<svg width="32" height="32" viewBox="0 0 32 32" fill="none" xmlns="http://www.w3.org/2000/svg">
<g id="Frame" clip-path="url(#clip0_738_4846)">
<g id="Group">
<path id="Vector" d="M26 32H6C2.68606 32 0 29.3139 0 26V6C0 2.68606 2.68606 0 6 0H26C29.3139 0 32 2.68606 32 6V26C32 29.3139 29.3139 32 26 32Z" fill="#F5F5F5"/>
<path id="Vector_2" d="M22 10H10C8.897 10 8 10.897 8 12V22C8 23.103 8.897 24 10 24H22C23.103 24 24 23.103 24 22V12C24 10.897 23.103 10 22 10ZM22.667 22C22.667 22.3679 22.3679 22.667 22 22.667H10C9.63206 22.667 9.333 22.3679 9.333 22V14.6931H22.666V22H22.667Z" fill="#12A297"/>
<g id="Group_2">
<path id="Vector_3" d="M11.9981 8H11.3311C10.9631 8 10.6641 8.29812 10.6641 8.667V11.334C10.6641 11.7019 10.9622 12.001 11.3311 12.001H11.9981C12.366 12.001 12.6651 11.7029 12.6651 11.334V8.667C12.6651 8.29812 12.366 8 11.9981 8ZM20.6651 8H19.9981C19.6301 8 19.3311 8.29812 19.3311 8.667V11.334C19.3311 11.7019 19.6301 12 19.9981 12H20.6651C21.033 12 21.3321 11.7019 21.3321 11.333V8.667C21.3311 8.29812 21.033 8 20.6651 8Z" fill="#30C9BD"/>
</g>
</g>
</g>
<defs>
<clipPath id="clip0_738_4846">
<rect width="32" height="32" fill="white"/>
</clipPath>
</defs>
</svg>
