<svg width="33" height="32" viewBox="0 0 33 32" fill="none" xmlns="http://www.w3.org/2000/svg">
<g id="Frame" clip-path="url(#clip0_738_4867)">
<g id="Group">
<path id="Vector" d="M26.668 32H6.66797C5.07667 32 3.55055 31.3679 2.42533 30.2426C1.30011 29.1174 0.667969 27.5913 0.667969 26L0.667969 6C0.667969 4.4087 1.30011 2.88258 2.42533 1.75736C3.55055 0.632141 5.07667 0 6.66797 0L26.668 0C28.2593 0 29.7854 0.632141 30.9106 1.75736C32.0358 2.88258 32.668 4.4087 32.668 6V26C32.668 27.5913 32.0358 29.1174 30.9106 30.2426C29.7854 31.3679 28.2593 32 26.668 32Z" fill="#F5F5F5"/>
<path id="Vector_2" d="M10.668 23.333C10.5432 23.3331 10.4229 23.2863 10.331 23.202C10.263 23.141 8.66797 21.666 8.66797 20.125C8.66797 18.953 9.56497 18 10.668 18C11.771 18 12.668 18.953 12.668 20.125C12.668 21.666 11.073 23.141 11.005 23.202C10.9132 23.2867 10.7928 23.3335 10.668 23.333Z" fill="#12A297"/>
<path id="Vector_3" d="M19.104 24H10.668C10.5354 24 10.4082 23.9473 10.3144 23.8535C10.2206 23.7598 10.168 23.6326 10.168 23.5C10.168 23.3674 10.2206 23.2402 10.3144 23.1464C10.4082 23.0527 10.5354 23 10.668 23H19.104C19.198 23 19.241 22.942 19.26 22.893C19.279 22.844 19.286 22.773 19.216 22.71L14.782 18.698C14.422 18.372 14.301 17.869 14.476 17.415C14.651 16.961 15.078 16.667 15.565 16.667H21.335C21.4676 16.667 21.5948 16.7197 21.6885 16.8134C21.7823 16.9072 21.835 17.0344 21.835 17.167C21.835 17.2996 21.7823 17.4268 21.6885 17.5205C21.5948 17.6143 21.4676 17.667 21.335 17.667H15.565C15.471 17.667 15.428 17.725 15.409 17.774C15.39 17.823 15.383 17.894 15.453 17.957L19.887 21.969C20.247 22.295 20.368 22.798 20.193 23.252C20.018 23.706 19.591 24 19.104 24Z" fill="#30C9BD"/>
<path id="Vector_4" d="M21.3369 8C19.4989 8 18.0039 9.514 18.0039 11.375C18.0039 13.943 20.8889 16.441 21.0119 16.547C21.1022 16.625 21.2176 16.668 21.3369 16.668C21.4563 16.668 21.5716 16.625 21.6619 16.547C21.7849 16.441 24.6699 13.943 24.6699 11.375C24.6699 9.514 23.1749 8 21.3369 8ZM21.3369 12.667C20.6019 12.667 20.0039 12.069 20.0039 11.334C20.0039 10.599 20.6019 10.001 21.3369 10.001C21.6904 10.001 22.0295 10.1414 22.2795 10.3914C22.5295 10.6414 22.6699 10.9805 22.6699 11.334C22.6699 11.6875 22.5295 12.0266 22.2795 12.2766C22.0295 12.5266 21.6904 12.667 21.3369 12.667Z" fill="#12A297"/>
</g>
</g>
<defs>
<clipPath id="clip0_738_4867">
<rect width="32" height="32" fill="white" transform="translate(0.667969)"/>
</clipPath>
</defs>
</svg>
