<svg width="40" height="40" viewBox="0 0 40 40" fill="none" xmlns="http://www.w3.org/2000/svg">
<g id="icons/ic_cloud_upload">
<g id="shape">
<path d="M36.5007 20C36.5007 19.8166 36.4007 19.6333 36.3507 19.45C36.2735 19.1265 36.1733 18.8091 36.0507 18.5C35.9673 18.3 35.8507 18.1 35.7507 17.8833C35.6507 17.6666 35.5007 17.3833 35.3507 17.15C35.2007 16.9166 35.0007 16.8 35.0007 16.6666C35.0007 16.5333 34.6673 16.25 34.484 16.05C34.3007 15.85 34.134 15.7166 33.9507 15.55L33.334 15L32.734 14.6C32.4985 14.4558 32.2535 14.3278 32.0007 14.2166L31.3507 13.9166C31.0784 13.8158 30.8001 13.7323 30.5173 13.6666C30.2933 13.6007 30.065 13.5506 29.834 13.5166L29.4507 13.3333C28.7706 11.3684 27.4949 9.66433 25.8012 8.45824C24.1075 7.25214 22.0799 6.604 20.0007 6.604C17.9214 6.604 15.8938 7.25214 14.2001 8.45824C12.5064 9.66433 11.2307 11.3684 10.5507 13.3333L10.2507 13.4166C10.0197 13.4506 9.79131 13.5007 9.56732 13.5666C9.28455 13.6323 9.00621 13.7158 8.73399 13.8166L8.08399 14.1166C7.83119 14.2278 7.58619 14.3558 7.35065 14.5L6.75065 15L6.13399 15.5166C5.95065 15.6833 5.76732 15.8333 5.60065 16.0166C5.43398 16.2 5.25065 16.4333 5.08398 16.6333C4.91732 16.8333 4.78398 17.0166 4.65065 17.2333C4.51732 17.45 4.38398 17.7166 4.25065 17.9666C4.11732 18.2166 4.03398 18.3833 3.95065 18.5833C3.82805 18.8924 3.7278 19.2099 3.65065 19.5333C3.65065 19.7166 3.53398 19.9 3.50065 20.0833C3.39691 20.6049 3.34112 21.1349 3.33398 21.6666C3.3418 22.1755 3.39197 22.6828 3.48398 23.1833C3.48398 23.35 3.56732 23.5 3.60065 23.6666C3.68303 23.9941 3.78318 24.3168 3.90065 24.6333L4.10065 25.1166C4.24736 25.438 4.41437 25.7498 4.60065 26.05L4.83398 26.4166C4.85796 26.4633 4.88584 26.5079 4.91732 26.55L5.00065 26.6666C5.77688 27.7016 6.78341 28.5416 7.94054 29.1202C9.09767 29.6988 10.3736 30 11.6673 30H16.6673V27.7166C16.1609 28.0104 15.5861 28.1656 15.0007 28.1666C14.0977 28.1582 13.2349 27.7927 12.6007 27.15C12.2961 26.8349 12.0567 26.463 11.8961 26.0554C11.7354 25.6477 11.6567 25.2124 11.6645 24.7744C11.6722 24.3363 11.7662 23.904 11.9412 23.5023C12.1161 23.1006 12.3685 22.7374 12.684 22.4333L17.684 17.6C18.3061 17.0004 19.1367 16.6657 20.0007 16.6666C20.8833 16.6704 21.7284 17.024 22.3507 17.65L27.3507 22.65C27.9715 23.2745 28.32 24.1193 28.32 25C28.32 25.8806 27.9715 26.7254 27.3507 27.35C26.7284 27.9759 25.8833 28.3296 25.0007 28.3333C24.4144 28.3388 23.8378 28.1832 23.334 27.8833V30H28.334C29.6277 30 30.9036 29.6988 32.0608 29.1202C33.2179 28.5416 34.2244 27.7016 35.0007 26.6666L35.084 26.5833C35.1155 26.5413 35.1433 26.4967 35.1673 26.45L35.4007 26.0833C35.5869 25.7831 35.7539 25.4714 35.9007 25.15L36.1007 24.6666C36.2181 24.3501 36.3183 24.0274 36.4007 23.7C36.4007 23.5333 36.484 23.3833 36.5173 23.2166C36.6112 22.7052 36.6614 22.1866 36.6673 21.6666C36.6654 21.107 36.6096 20.5489 36.5007 20Z" fill="#919EAB"/>
<path d="M21.184 18.8166C20.8724 18.5113 20.4536 18.3402 20.0173 18.3402C19.5811 18.3402 19.1622 18.5113 18.8507 18.8166L13.8507 23.65C13.6738 23.7959 13.529 23.9767 13.4252 24.1812C13.3214 24.3857 13.261 24.6093 13.2476 24.8382C13.2342 25.0671 13.2682 25.2963 13.3474 25.5115C13.4267 25.7266 13.5495 25.9231 13.7081 26.0887C13.8667 26.2542 14.0578 26.3852 14.2694 26.4736C14.481 26.5619 14.7086 26.6056 14.9378 26.6019C15.1671 26.5983 15.3931 26.5474 15.6018 26.4524C15.8105 26.3575 15.9973 26.2204 16.1507 26.05L18.334 23.9333V33.3333C18.334 33.7753 18.5096 34.1993 18.8221 34.5118C19.1347 34.8244 19.5586 35 20.0007 35C20.4427 35 20.8666 34.8244 21.1792 34.5118C21.4917 34.1993 21.6673 33.7753 21.6673 33.3333V24.0166L23.8173 26.1833C23.9723 26.3395 24.1566 26.4635 24.3597 26.5481C24.5628 26.6327 24.7806 26.6763 25.0007 26.6763C25.2207 26.6763 25.4385 26.6327 25.6416 26.5481C25.8447 26.4635 26.029 26.3395 26.184 26.1833C26.3402 26.0284 26.4642 25.844 26.5488 25.6409C26.6334 25.4378 26.677 25.22 26.677 25C26.677 24.7799 26.6334 24.5621 26.5488 24.359C26.4642 24.1559 26.3402 23.9716 26.184 23.8166L21.184 18.8166Z" fill="#919EAB"/>
</g>
</g>
</svg>
