<svg width="33" height="32" viewBox="0 0 33 32" fill="none" xmlns="http://www.w3.org/2000/svg">
<g id="Frame" clip-path="url(#clip0_738_4856)">
<g id="Group">
<path id="Vector" d="M26.332 32H6.33203C4.74073 32 3.21461 31.3679 2.08939 30.2426C0.964172 29.1174 0.332031 27.5913 0.332031 26L0.332031 6C0.332031 4.4087 0.964172 2.88258 2.08939 1.75736C3.21461 0.632141 4.74073 0 6.33203 0L26.332 0C27.9233 0 29.4495 0.632141 30.5747 1.75736C31.6999 2.88258 32.332 4.4087 32.332 6V26C32.332 27.5913 31.6999 29.1174 30.5747 30.2426C29.4495 31.3679 27.9233 32 26.332 32Z" fill="#F5F5F5"/>
<path id="Vector_2" d="M19.3969 23.999C19.2509 23.999 19.1029 23.981 18.9569 23.947L16.0279 23.233C15.9405 23.2124 15.8603 23.1685 15.7959 23.106C15.7314 23.0435 15.6851 22.9647 15.6617 22.878C15.6383 22.7913 15.6388 22.6999 15.6632 22.6135C15.6875 22.5271 15.7347 22.4488 15.7999 22.387L21.7869 16.627C21.8655 16.5516 21.9665 16.5039 22.0747 16.4912C22.1828 16.4785 22.2922 16.5014 22.3861 16.5565C22.48 16.6117 22.5534 16.6959 22.5951 16.7966C22.6367 16.8972 22.6444 17.0087 22.6169 17.114L21.1629 22.647C21.0386 23.0984 20.7481 23.486 20.3499 23.732C20.0579 23.908 19.7299 23.999 19.3969 23.999Z" fill="#30C9BD"/>
<g id="Group_2">
<path id="Vector_3" d="M14.999 24C14.7363 24.0009 14.476 23.9495 14.2332 23.8489C13.9905 23.7483 13.7702 23.6005 13.585 23.414L8.91904 18.748C8.7323 18.5628 8.58423 18.3424 8.48346 18.0994C8.38269 17.8565 8.33122 17.596 8.33204 17.333C8.33204 16.82 8.52604 16.332 8.87904 15.959L15.732 8.83C15.9814 8.56815 16.2812 8.35959 16.6135 8.21693C16.9457 8.07427 17.3035 8.00047 17.665 8H22.332C23.435 8 24.332 8.897 24.332 10V14.667C24.3314 15.0292 24.2573 15.3875 24.1143 15.7202C23.9713 16.053 23.7623 16.3533 23.5 16.603L16.377 23.45C16 23.806 15.512 24 14.999 24ZM17.665 9.333C17.295 9.333 16.95 9.481 16.696 9.75L9.84304 16.879C9.72784 17.002 9.66414 17.1645 9.66504 17.333C9.66504 17.511 9.73404 17.678 9.86004 17.804L14.527 22.471C14.6518 22.5902 14.817 22.6578 14.9895 22.6603C15.162 22.6627 15.329 22.5997 15.457 22.484L22.578 15.639L22.582 15.635C22.7144 15.5108 22.8198 15.3607 22.8915 15.194C22.9633 15.0272 22.9999 14.8475 22.999 14.666V10C22.999 9.8231 22.9288 9.65345 22.8037 9.52836C22.6786 9.40327 22.5089 9.333 22.332 9.333H17.665Z" fill="#12A297"/>
<path id="Vector_4" d="M20.9983 12.667C20.6556 12.6507 20.3323 12.5031 20.0955 12.2548C19.8587 12.0065 19.7266 11.6766 19.7266 11.3335C19.7266 10.9904 19.8587 10.6605 20.0955 10.4122C20.3323 10.1639 20.6556 10.0163 20.9983 10C21.341 10.0163 21.6643 10.1639 21.9011 10.4122C22.1379 10.6605 22.27 10.9904 22.27 11.3335C22.27 11.6766 22.1379 12.0065 21.9011 12.2548C21.6643 12.5031 21.341 12.6507 20.9983 12.667Z" fill="#12A297"/>
</g>
</g>
</g>
<defs>
<clipPath id="clip0_738_4856">
<rect width="32" height="32" fill="white" transform="translate(0.332031)"/>
</clipPath>
</defs>
</svg>
