<svg width="1920" height="6663" viewBox="0 0 1920 6663" fill="none" xmlns="http://www.w3.org/2000/svg">
<path fill-rule="evenodd" clip-rule="evenodd" d="M891.858 342.045C874.383 347.952 864.567 355.956 860.659 366.539C855.874 379.5 860.874 395.226 877.239 417.529C889.087 433.677 905.264 451.177 923.744 471.17C930.422 478.394 937.401 485.944 944.585 493.873C997.921 552.738 1059.75 629.613 1073.31 734.509C1077.68 768.284 1063.94 794.188 1039.01 814.294C1014.71 833.889 979.394 848.398 938.85 860.999C905.299 871.427 867.198 880.822 827.431 890.628C818.956 892.718 810.405 894.827 801.806 896.968C752.823 909.166 702.006 922.486 653.432 939.641L533.426 995.637C507.594 1011.9 484.283 1030.52 464.456 1052.1C458.579 1058.5 453.102 1064.35 447.94 1069.86C423.506 1095.94 406.135 1114.49 386.844 1148.21C366.361 1184.02 351.745 1211.15 340.945 1240.14C330.193 1269.01 323.094 1300.09 318.163 1343.68C315.345 1368.59 321.703 1387.52 333.259 1403.15C345.084 1419.15 362.679 1432.13 382.991 1444.07C393.092 1450.02 403.656 1455.59 414.306 1461.12C415.779 1461.89 417.256 1462.65 418.733 1463.42C427.857 1468.15 437.016 1472.91 445.682 1477.76C465.576 1488.91 484.567 1501.48 496.279 1517.9C505.575 1530.94 521.339 1544.31 540.131 1559.94L542.06 1561.55C559.879 1576.36 579.706 1592.84 596.028 1611.61C613.015 1631.15 626.874 1653.89 630.867 1680.95C634.888 1708.2 628.701 1738.42 608.224 1772.42C588.048 1805.92 567.691 1826.57 548.739 1841.03C536.183 1850.61 523.622 1857.79 513.201 1863.75C508.497 1866.44 504.228 1868.89 500.594 1871.19C488.466 1878.86 480.647 1886.21 476.318 1899.43C471.707 1913.51 470.678 1935.39 476.121 1973C478.395 1988.7 487.667 2003.45 503.887 2017.61C520.15 2031.81 542.735 2044.82 570.095 2056.95C624.847 2081.23 696.338 2101 768.677 2120.23C775.154 2121.95 781.639 2123.67 788.117 2125.38C853.541 2142.71 918.386 2159.88 969.192 2179.74C997.116 2190.65 1021.48 2202.62 1039.61 2216.3C1057.68 2229.93 1070.82 2246.23 1073.63 2266.03C1078.27 2298.81 1078.63 2363.59 1076.43 2442.45C1074.22 2521.65 1069.4 2615.97 1063.46 2708.42C1057.52 2800.88 1050.45 2891.55 1043.73 2963.44C1037.07 3034.82 1030.66 3088.87 1025.89 3107.15C1023.01 3118.18 1014.27 3131.25 1003.08 3145.07C991.576 3159.28 976.303 3175.66 958.747 3193.51C939.344 3213.24 916.664 3235.24 892.796 3258.39C873.728 3276.88 853.902 3296.11 834.381 3315.51C790.062 3359.55 746.679 3405.05 714.42 3447.32C698.296 3468.44 685.141 3488.51 676.053 3506.98C667.168 3525.04 662.489 3540.92 662.24 3554.37C666.574 3573.57 677.768 3625.89 690.318 3692.56C690.755 3694.88 692.574 3698.5 697.509 3703.36C702.342 3708.12 709.399 3713.32 718.724 3718.87C737.358 3729.96 763.602 3741.63 795.378 3753.62C858.84 3777.57 942.617 3802.16 1027.55 3825.69C1060.46 3834.81 1093.57 3843.77 1125.69 3852.47C1176.22 3866.15 1224.29 3879.17 1265.26 3891.06C1298.79 3900.8 1327.88 3909.88 1349.93 3918.07C1360.94 3922.16 1370.4 3926.1 1377.87 3929.88C1384.98 3933.47 1391.56 3937.52 1395.53 3942.24C1399.34 3946.76 1399.8 3952.34 1399.51 3956.51C1399.2 3960.87 1397.93 3965.64 1396.19 3970.5C1392.68 3980.29 1386.45 3992.57 1378.18 4006.75C1361.57 4035.22 1335.71 4073.01 1303.55 4116.86C1239.17 4204.63 1148.85 4317.61 1054.89 4430.65C960.906 4543.71 863.179 4656.95 783.948 4745.27C744.338 4789.42 709.303 4827.4 681.646 4856.03C654.363 4884.28 633.401 4904.35 622.323 4911.73C600.346 4926.39 579.914 4929.78 560.814 4925.81C542.311 4921.96 526.184 4911.41 512.097 4900.57C506.918 4896.59 501.786 4892.38 496.87 4888.35C495.091 4886.89 493.339 4885.45 491.624 4884.06C485.039 4878.7 478.848 4873.85 472.78 4869.87C460.5 4861.8 450.352 4858.35 440.54 4860.3C438.523 4860.7 436.468 4861.1 434.38 4861.51C407.407 4866.82 374.992 4873.2 346.57 4884.73C315.781 4897.21 292.398 4914.66 284.547 4940.55C284.226 4941.6 284.02 4944.16 285.392 4949C286.722 4953.68 289.253 4959.54 293.096 4966.56C300.775 4980.61 312.929 4997.98 328.418 5017.88C357.924 5055.79 398.452 5101.52 440.31 5148.76L446.421 5155.66C490.27 5205.16 535.016 5255.92 568.793 5299.97C585.678 5321.99 600.028 5342.6 610.203 5360.74C620.154 5378.48 626.999 5395.37 626.999 5409.5C626.999 5416.1 631.456 5424.85 643.828 5435.64C655.887 5446.16 673.705 5457.06 696.122 5468.06C740.864 5490 801.797 5511.3 865.879 5530.44C993.915 5568.67 1132.66 5597.72 1174.94 5605.68C1187.65 5608.07 1198.13 5613.88 1205.89 5622.56C1213.58 5631.16 1218.11 5642.04 1219.96 5653.92C1223.64 5677.47 1217.03 5706 1201.9 5733.71C1171.48 5789.48 1104.9 5845.26 1004.77 5857.42C931.552 5866.31 883.868 5910.56 853.694 5963.44C823.376 6016.57 811.265 6077.66 809.489 6117.47L788.51 6116.53C790.4 6074.17 803.139 6009.66 835.455 5953.03C867.914 5896.15 920.646 5846.48 1002.23 5836.58C1095.59 5825.24 1156.27 5773.51 1183.47 5723.66C1197.16 5698.56 1201.96 5674.75 1199.21 5657.16C1197.85 5648.46 1194.72 5641.57 1190.23 5636.55C1185.8 5631.6 1179.59 5627.92 1171.06 5626.32C1128.34 5618.28 988.833 5589.07 859.87 5550.56C795.452 5531.32 733.197 5509.63 686.876 5486.91C663.762 5475.58 644.08 5463.73 630.022 5451.47C616.277 5439.48 605.999 5425.4 605.999 5409.5C605.999 5401.13 601.579 5388.29 591.887 5371.02C582.419 5354.14 568.75 5334.43 552.127 5312.75C518.888 5269.39 474.666 5219.21 430.702 5169.59L424.371 5162.44C382.72 5115.44 341.781 5069.23 311.846 5030.78C296.139 5010.6 283.165 4992.18 274.67 4976.64C270.426 4968.88 267.109 4961.49 265.19 4954.73C263.314 4948.12 262.459 4941.02 264.451 4934.45C275.1 4899.34 305.968 4878.53 338.678 4865.27C369.066 4852.95 403.396 4846.2 430.062 4840.96C432.247 4840.53 434.381 4840.11 436.458 4839.7C454.396 4836.14 470.436 4843.2 484.312 4852.32C491.322 4856.92 498.201 4862.34 504.87 4867.76C506.741 4869.28 508.587 4870.8 510.422 4872.3C515.254 4876.26 520.002 4880.16 524.901 4883.93C538.439 4894.34 551.437 4902.41 565.09 4905.25C578.147 4907.97 592.902 4906.11 610.675 4894.26C619.472 4888.4 638.761 4870.2 666.542 4841.44C693.949 4813.07 728.793 4775.3 768.316 4731.25C847.35 4643.14 944.905 4530.1 1038.74 4417.22C1132.59 4304.32 1222.61 4191.71 1286.62 4104.44C1318.66 4060.76 1344 4023.67 1360.05 3996.16C1368.11 3982.35 1373.57 3971.38 1376.42 3963.42C1377.86 3959.4 1378.44 3956.68 1378.56 3955.02C1378.56 3954.97 1378.57 3954.92 1378.57 3954.87C1377 3953.51 1373.86 3951.38 1368.4 3948.62C1361.93 3945.35 1353.28 3941.72 1342.62 3937.76C1321.31 3929.85 1292.82 3920.94 1259.4 3911.23C1218.57 3899.37 1170.86 3886.46 1120.52 3872.83C1088.37 3864.12 1055.15 3855.13 1021.95 3845.93C937.006 3822.4 852.408 3797.59 787.964 3773.27C755.787 3761.13 728.195 3748.95 707.981 3736.91C697.882 3730.9 689.263 3724.71 682.774 3718.32C676.389 3712.04 671.243 3704.74 669.68 3696.44C656.902 3628.55 645.548 3575.68 641.491 3557.83L641.23 3556.68V3555.5C641.23 3537.32 647.354 3517.74 657.211 3497.71C667.115 3477.58 681.132 3456.32 697.727 3434.57C730.905 3391.1 775.147 3344.76 819.579 3300.61C839.576 3280.74 859.488 3261.43 878.524 3242.97C902.127 3220.08 924.381 3198.5 943.775 3178.78C961.188 3161.08 975.899 3145.27 986.761 3131.85C997.942 3118.04 1003.95 3108.07 1005.57 3101.85C1009.8 3085.63 1016.08 3033.67 1022.82 2961.49C1029.51 2889.83 1036.57 2799.37 1042.5 2707.08C1048.43 2614.78 1053.24 2520.73 1055.44 2441.86C1057.64 2362.66 1057.19 2299.69 1052.83 2268.97C1051.14 2257.02 1042.92 2245.1 1026.97 2233.06C1011.08 2221.07 988.765 2209.93 961.549 2199.29C911.929 2179.91 848.283 2163.05 782.515 2145.62C776.12 2143.93 769.706 2142.23 763.282 2140.52C691.246 2121.37 618.112 2101.21 561.583 2076.15C533.303 2063.61 508.583 2049.59 490.076 2033.43C471.526 2017.24 458.565 1998.3 455.338 1976C449.781 1937.61 450.19 1911.74 456.36 1892.9C462.812 1873.2 475.118 1862.45 489.366 1853.44C494.409 1850.25 499.417 1847.4 504.531 1844.48C514.31 1838.91 524.473 1833.13 536.002 1824.33C552.83 1811.49 571.411 1792.83 590.235 1761.58C608.758 1730.83 613.259 1705.48 610.092 1684.02C606.898 1662.36 595.694 1643.23 580.181 1625.39C564.998 1607.93 546.327 1592.41 528.148 1577.29L526.703 1576.09C508.558 1561 490.385 1545.81 479.18 1530.1C470.392 1517.77 455.071 1507.09 435.418 1496.08C427.074 1491.41 418.255 1486.83 409.115 1482.09C407.625 1481.32 406.126 1480.54 404.62 1479.76C393.952 1474.21 382.961 1468.42 372.343 1462.18C351.218 1449.75 330.719 1435.04 316.372 1415.63C301.756 1395.86 293.864 1371.66 297.296 1341.32C302.365 1296.51 309.768 1263.68 321.266 1232.81C332.717 1202.07 348.101 1173.65 368.615 1137.79C389.209 1101.79 408.34 1081.38 432.968 1055.11C438.054 1049.69 443.374 1044.01 448.99 1037.9C470.446 1014.54 495.476 994.66 522.811 977.505L523.362 977.159L645.473 920.181L645.951 920.012C695.688 902.415 747.512 888.847 796.732 876.59C805.463 874.416 814.103 872.285 822.633 870.182C862.381 860.379 899.724 851.169 932.617 840.945C972.727 828.479 1004.8 814.906 1025.83 797.948C1046.22 781.5 1055.74 762.38 1052.48 737.203C1039.81 639.157 981.977 566.417 929.023 507.973C922.308 500.562 915.621 493.329 909.103 486.279C890.309 465.95 872.919 447.14 860.308 429.952C843.558 407.125 832.134 383.168 840.959 359.265C848.047 340.069 864.986 328.961 885.133 322.15C905.276 315.341 930.648 312.115 957.98 310.006C973.16 308.834 989.015 307.992 1005.22 307.132C1048.44 304.837 1094.17 302.409 1136.26 293.24L1140.73 313.759C1096.84 323.32 1048.42 325.889 1004.7 328.209C988.91 329.047 973.73 329.853 959.596 330.943C932.458 333.037 909.339 336.135 891.858 342.045Z" fill="#324A57"/>
<path d="M799.001 6117C802.668 6034.83 848.701 5865.8 1003.5 5847C1197 5823.5 1258 5632 1173 5616C1088 5600 616.501 5499.5 616.501 5409.5C616.501 5319.5 256.001 4998.5 274.501 4937.5C293.001 4876.5 383.001 4861 438.501 4850C494.001 4839 537.001 4956 616.501 4903C696.001 4850 1427.5 3996.5 1387.5 3949C1347.5 3901.5 696.001 3779.5 680.001 3694.5C667.201 3626.5 655.821 3573.5 651.731 3555.5C651.731 3428 997.731 3173.5 1015.73 3104.5C1033.73 3035.5 1081.23 2394.5 1063.23 2267.5C1045.23 2140.5 487.731 2126.5 465.731 1974.5C443.731 1822.5 521.231 1896.5 599.231 1767C677.231 1637.5 528.731 1581.5 487.731 1524C446.731 1466.5 295.231 1453 307.731 1342.5C317.731 1254.1 336.734 1214.67 377.731 1143C401.838 1100.86 423.471 1081.2 456.725 1045C477.437 1022.45 501.702 1003.15 528.394 986.399L649.455 929.911C846.364 860.245 1078.15 853.76 1062.9 735.856C1036.66 532.914 823.589 436.629 850.811 362.903C872.802 303.344 1020.87 329.121 1138.5 303.5" stroke="#BEBEBE" stroke-opacity="0.6" stroke-width="2" stroke-dasharray="12 21"/>
<g clip-path="url(#clip0_108_2157)">
<ellipse cx="1015" cy="2273.77" rx="13.8716" ry="2.93103" fill="#193A41"/>
<path d="M1015 2236.16V2273.77" stroke="black" stroke-width="3"/>
<path d="M1011.55 2192.06L989.546 2231.32C989.192 2231.94 989.003 2232.65 989 2233.37C988.997 2234.09 989.179 2234.8 989.528 2235.43C989.877 2236.05 990.381 2236.58 990.989 2236.94C991.598 2237.31 992.291 2237.51 992.998 2237.52H1037C1037.71 2237.51 1038.4 2237.31 1039.01 2236.94C1039.62 2236.58 1040.12 2236.05 1040.47 2235.43C1040.82 2234.8 1041 2234.09 1041 2233.37C1041 2232.65 1040.81 2231.94 1040.45 2231.32L1018.45 2192.06C1018.11 2191.44 1017.61 2190.92 1017 2190.56C1016.39 2190.19 1015.7 2190 1015 2190C1014.3 2190 1013.61 2190.19 1013 2190.56C1012.39 2190.92 1011.89 2191.44 1011.55 2192.06Z" fill="#C03A2B"/>
<path d="M992.998 2233.86C992.928 2233.87 992.858 2233.85 992.799 2233.81C992.739 2233.77 992.692 2233.72 992.663 2233.65C992.614 2233.57 992.588 2233.48 992.588 2233.39C992.587 2233.3 992.612 2233.21 992.66 2233.13L1014.66 2193.87C1014.69 2193.81 1014.74 2193.75 1014.8 2193.72C1014.86 2193.68 1014.93 2193.66 1015 2193.66C1015.07 2193.66 1015.14 2193.68 1015.2 2193.72C1015.26 2193.75 1015.31 2193.81 1015.34 2193.87L1037.34 2233.13C1037.39 2233.21 1037.41 2233.3 1037.41 2233.39C1037.41 2233.48 1037.39 2233.57 1037.34 2233.65C1037.31 2233.72 1037.26 2233.77 1037.2 2233.81C1037.14 2233.85 1037.07 2233.86 1037 2233.86L992.998 2233.86Z" fill="#ECF0F1"/>
<path d="M1008.79 2212.69C1008.77 2212.71 1008.75 2212.73 1008.74 2212.76C1008.73 2212.79 1008.73 2212.82 1008.73 2212.85C1008.73 2212.88 1008.73 2212.91 1008.74 2212.93C1008.75 2212.96 1008.77 2212.99 1008.79 2213.01L1010.43 2214.67C1014.38 2214.68 1017.59 2217.95 1017.6 2221.98V2229.29C1017.6 2229.54 1017.69 2229.77 1017.86 2229.94C1018.03 2230.11 1018.26 2230.21 1018.49 2230.21H1020.29C1020.78 2230.21 1021.18 2229.8 1021.18 2229.29V2221.98C1021.18 2215.93 1016.37 2211.02 1010.43 2211.02L1008.79 2212.69Z" fill="#35495E"/>
</g>
<g clip-path="url(#clip1_108_2157)">
<ellipse cx="1401" cy="3919.77" rx="13.8716" ry="2.93103" fill="#193A41"/>
<path d="M1400 3882.16V3919.77" stroke="black" stroke-width="3"/>
<path d="M1396.68 3838.06L1375.53 3877.32C1375.18 3877.94 1375 3878.65 1375 3879.37C1375 3880.09 1375.17 3880.8 1375.51 3881.43C1375.84 3882.05 1376.33 3882.58 1376.91 3882.94C1377.5 3883.31 1378.16 3883.51 1378.84 3883.52H1421.16C1421.84 3883.51 1422.5 3883.31 1423.09 3882.94C1423.67 3882.58 1424.16 3882.05 1424.49 3881.43C1424.83 3880.8 1425 3880.09 1425 3879.37C1425 3878.65 1424.82 3877.94 1424.47 3877.32L1403.32 3838.06C1402.99 3837.44 1402.51 3836.92 1401.92 3836.56C1401.34 3836.19 1400.68 3836 1400 3836C1399.32 3836 1398.66 3836.19 1398.08 3836.56C1397.49 3836.92 1397.01 3837.44 1396.68 3838.06Z" fill="#C03A2B"/>
<path d="M1378.84 3879.86C1378.78 3879.87 1378.71 3879.85 1378.65 3879.81C1378.59 3879.77 1378.55 3879.72 1378.52 3879.65C1378.47 3879.57 1378.45 3879.48 1378.45 3879.39C1378.45 3879.3 1378.47 3879.21 1378.52 3879.13L1399.67 3839.87C1399.7 3839.81 1399.75 3839.75 1399.81 3839.72C1399.87 3839.68 1399.93 3839.66 1400 3839.66C1400.07 3839.66 1400.13 3839.68 1400.19 3839.72C1400.25 3839.75 1400.29 3839.81 1400.32 3839.87L1421.48 3879.13C1421.53 3879.21 1421.55 3879.3 1421.55 3879.39C1421.55 3879.48 1421.52 3879.57 1421.48 3879.65C1421.45 3879.72 1421.4 3879.77 1421.35 3879.81C1421.29 3879.85 1421.22 3879.86 1421.16 3879.86L1378.84 3879.86Z" fill="#ECF0F1"/>
<g clip-path="url(#clip2_108_2157)">
<path fill-rule="evenodd" clip-rule="evenodd" d="M1402.39 3854.92C1402.39 3854.92 1401.94 3852.76 1403.66 3851.78C1403.86 3851.67 1403.93 3851.42 1403.82 3851.22C1403.72 3851.02 1403.47 3850.94 1403.28 3851.05C1401.06 3852.31 1401.6 3855.09 1401.6 3855.09C1401.65 3855.32 1401.86 3855.46 1402.08 3855.42C1402.29 3855.37 1402.43 3855.15 1402.39 3854.92ZM1399.98 3853.21C1399.98 3853.21 1399.51 3852.51 1399.69 3851.49C1399.73 3851.27 1399.59 3851.05 1399.37 3851.01C1399.15 3850.96 1398.94 3851.11 1398.9 3851.34C1398.65 3852.73 1399.32 3853.7 1399.32 3853.7C1399.45 3853.88 1399.7 3853.93 1399.88 3853.79C1400.06 3853.66 1400.11 3853.4 1399.98 3853.21ZM1390.37 3866.14C1389.58 3866.14 1388.41 3866.43 1387.79 3868.01C1387.7 3868.22 1387.8 3868.46 1388 3868.55C1388.21 3868.64 1388.44 3868.54 1388.53 3868.32C1388.82 3867.58 1389.29 3867.23 1389.74 3867.08C1389.79 3866.93 1389.86 3866.79 1389.95 3866.65C1390.06 3866.46 1390.21 3866.29 1390.37 3866.14ZM1393.61 3874.72C1393.94 3873.48 1394.45 3872.36 1394.78 3871.31L1394.79 3871.28C1395.07 3871.37 1395.34 3871.43 1395.61 3871.47C1395.67 3872.72 1395.14 3873.21 1395.26 3874.67C1395.38 3876.04 1395.74 3877 1395.74 3877H1394.19C1393.85 3876.24 1393.71 3875.48 1393.61 3874.72ZM1402.45 3869.81C1402.74 3871.66 1403.11 3874.76 1403.03 3877H1401.59C1401.65 3875.48 1401.4 3874.22 1401.07 3873C1401.35 3872.14 1401.65 3871.27 1401.85 3870.27L1401.87 3870.26C1402.06 3870.13 1402.25 3869.98 1402.45 3869.81Z" fill="black"/>
<path fill-rule="evenodd" clip-rule="evenodd" d="M1403.75 3857.7C1403.96 3857.53 1404.2 3857.39 1404.45 3857.3C1403.5 3855.82 1400.92 3852.51 1396.99 3852.43C1396.77 3852.43 1396.59 3852.61 1396.58 3852.84C1396.58 3853.07 1396.75 3853.26 1396.98 3853.27C1400.53 3853.34 1402.86 3856.32 1403.75 3857.7Z" fill="black"/>
<path fill-rule="evenodd" clip-rule="evenodd" d="M1402.93 3855.9C1402.93 3855.9 1400.95 3857.37 1398.26 3855.39C1398.08 3855.26 1397.83 3855.31 1397.7 3855.49C1397.57 3855.68 1397.62 3855.94 1397.8 3856.08C1401.03 3858.45 1403.41 3856.57 1403.41 3856.57C1403.58 3856.43 1403.62 3856.17 1403.49 3855.99C1403.36 3855.8 1403.11 3855.76 1402.93 3855.9ZM1405.34 3858C1404.65 3857.96 1403.94 3858.38 1403.79 3859.09C1401.43 3870.33 1388.32 3862.44 1390.67 3869.47C1391.15 3870.93 1391.37 3872.54 1391.02 3873.83C1390.56 3875.51 1390.66 3877 1390.66 3877H1392.46C1392.49 3874.73 1393.47 3872.78 1394.02 3871.05C1394.14 3870.61 1394.58 3870.36 1395 3870.48C1395.94 3870.76 1396.68 3870.74 1397.51 3870.49C1397.64 3870.45 1397.78 3870.44 1397.91 3870.48C1398.05 3870.51 1398.17 3870.58 1398.27 3870.67C1398.37 3870.77 1398.45 3870.89 1398.49 3871.02C1398.53 3871.16 1398.54 3871.3 1398.52 3871.44C1398.18 3873.19 1397.63 3874.64 1397.74 3877H1399.61C1399.48 3874.29 1400.56 3872.59 1401.07 3870.1C1401.09 3869.99 1401.13 3869.89 1401.2 3869.8C1401.26 3869.7 1401.33 3869.63 1401.43 3869.57C1403.17 3868.37 1405.16 3865.43 1405.34 3862.2C1405.36 3861.75 1405.72 3861.4 1406.15 3861.41C1407.01 3861.44 1407.6 3861.04 1408.16 3860.56C1408.33 3860.4 1408.4 3860.33 1408.4 3860.09C1408.4 3859.56 1408 3859.11 1407.49 3859.06C1407.09 3859.03 1406.61 3858.87 1406.21 3858.43C1405.95 3858.14 1405.64 3858.02 1405.34 3858Z" fill="black"/>
</g>
</g>
<defs>
<clipPath id="clip0_108_2157">
<rect width="52" height="92" fill="white" transform="translate(989 2190)"/>
</clipPath>
<clipPath id="clip1_108_2157">
<rect width="50" height="92" fill="white" transform="translate(1375 3836)"/>
</clipPath>
<clipPath id="clip2_108_2157">
<rect width="25" height="26" fill="white" transform="translate(1385.58 3851)"/>
</clipPath>
</defs>
</svg>
