<svg width="361" height="5393" viewBox="0 0 361 5393" fill="none" xmlns="http://www.w3.org/2000/svg">
<g clip-path="url(#clip0_0_3427)">
<path fill-rule="evenodd" clip-rule="evenodd" d="M300.649 132.607C298.328 124.508 295.879 116.815 293.368 109.5C292.597 110.333 290.755 112.5 289.555 114.5C288.617 116.062 287.68 118.601 286.742 121.141C286.18 122.664 285.617 124.187 285.055 125.5C283.855 128.3 280.034 130.333 278.273 131C279.013 133.421 279.743 135.885 280.461 138.393C288.278 165.668 273.343 197.334 246.982 227.963C221.158 257.967 186.965 283.885 163.418 298.473L163.392 298.489L163.367 298.506C136.032 315.66 111.002 335.538 89.5458 358.897C83.931 365.009 78.6118 370.683 73.5269 376.107L73.5233 376.111C48.8963 402.379 29.7651 422.786 9.17133 458.786C-11.3428 494.648 -26.7269 523.069 -38.178 553.81C-49.6762 584.678 -57.0792 617.512 -62.148 662.32C-65.58 692.659 -57.6883 716.859 -43.0722 736.632C-28.7252 756.041 -8.22653 770.748 12.8993 783.175C23.5167 789.421 34.5081 795.21 45.1759 800.756C46.6802 801.538 48.1766 802.314 49.6646 803.086C58.8069 807.83 67.6281 812.406 75.9737 817.082C95.627 828.093 110.948 838.771 119.736 851.096C126.088 860.003 133.634 869.269 141.12 878.46C145.784 884.187 150.424 889.884 154.737 895.448C166.423 910.524 176.952 926.06 183.916 943.411C197.461 977.16 198.437 1020.08 160.791 1082.58C141.967 1113.83 123.386 1132.49 106.557 1145.33C95.029 1154.13 84.8658 1159.91 75.0866 1165.48L75.0853 1165.48C69.9725 1168.4 64.9646 1171.25 59.9214 1174.44C45.6738 1183.45 33.3676 1194.2 26.9163 1213.9C20.7455 1232.74 20.3366 1258.61 25.8938 1297C29.1788 1319.7 43.6279 1338.71 64.0543 1354.77C84.4978 1370.85 111.946 1384.81 143.461 1397.31C206.497 1422.31 288.322 1442.44 369.113 1461.59C376.326 1463.3 383.529 1465 390.712 1466.7C464.416 1484.11 535.892 1501 591.527 1520.43C622.066 1531.09 647.139 1542.3 664.945 1554.37C682.951 1566.58 691.759 1578.47 693.389 1589.97C697.743 1620.69 698.201 1683.66 695.993 1762.86C693.794 1841.73 688.99 1935.78 683.057 2028.08C677.125 2120.37 670.07 2210.83 663.378 2282.49C656.637 2354.67 650.357 2406.63 646.126 2422.85C645.468 2425.37 643.542 2429.35 639.617 2434.97C635.794 2440.43 630.518 2446.82 623.865 2454.09C610.559 2468.62 592.344 2486.02 570.707 2505.61C545.918 2528.06 517.119 2552.96 486.551 2579.4L486.546 2579.4L486.526 2579.42C463.56 2599.28 439.597 2620 415.587 2641.19C359.923 2690.32 304.439 2741.6 262.82 2788.75C242.013 2812.31 224.43 2835.11 211.997 2856.31C199.676 2877.32 191.785 2897.81 191.785 2916.5V2917.68L192.046 2918.83C196.104 2936.68 207.457 2989.55 220.236 3057.44C222.869 3071.43 234.091 3086.41 248.687 3101.26C263.733 3116.56 284.105 3133.4 307.831 3151.07C355.321 3186.43 417.358 3225.91 479.836 3264.03C514.944 3285.45 550.614 3306.69 583.947 3326.54L583.95 3326.54L584.034 3326.59C609.707 3341.88 633.992 3356.34 655.564 3369.42C680.575 3384.59 702.168 3398.03 718.713 3409.13C735.209 3420.19 745.522 3428.17 749.662 3432.85C749.728 3433.09 749.834 3433.57 749.912 3434.37C750.103 3436.35 750.03 3439.32 749.484 3443.46C748.396 3451.72 745.649 3463.05 741.242 3477.29C732.459 3505.67 717.572 3544.02 698.178 3589.24C659.428 3679.6 603.125 3796.35 543.027 3913.39C482.936 4030.42 419.144 4147.56 365.454 4238.69C338.599 4284.27 314.343 4323.23 294.385 4352.37C284.401 4366.94 275.578 4378.94 268.108 4388.03C260.448 4397.36 254.814 4402.87 251.231 4405.26C233.458 4417.11 218.703 4418.97 205.646 4416.25C191.993 4413.41 178.995 4405.34 165.457 4394.93C160.569 4391.17 155.831 4387.28 151.01 4383.33L150.978 4383.3C149.143 4381.8 147.297 4380.28 145.426 4378.76C138.757 4373.34 131.878 4367.92 124.868 4363.32C110.992 4354.2 94.9517 4347.14 77.0136 4350.7C75.8823 4350.92 74.7338 4351.15 73.5692 4351.38L70.6175 4351.96C43.9518 4357.2 9.62199 4363.95 -20.7658 4376.27C-53.4764 4389.53 -84.3439 4410.34 -94.9931 4445.45C-98.6347 4457.46 -94.3795 4468.9 -87.5046 4478.61C-80.6422 4488.31 -70.1441 4497.83 -57.9368 4507.12C-36.2461 4523.63 -6.86076 4541.08 23.0895 4558.86L23.1056 4558.87C26.8973 4561.13 30.698 4563.38 34.4933 4565.64C68.6812 4586.01 102.648 4606.83 128.064 4627.99C140.75 4638.55 150.908 4648.88 157.835 4658.9C164.754 4668.92 168.055 4678.06 168.055 4686.5C168.055 4701.18 175.315 4715.57 185.969 4728.98C196.745 4742.54 211.904 4756.24 229.811 4769.74C265.658 4796.77 313.989 4824.11 364.555 4848.93C465.466 4898.44 577.72 4939.06 621.613 4947.32C630.15 4948.92 636.359 4952.6 640.784 4957.55C645.272 4962.57 648.41 4969.46 649.767 4978.16C652.513 4995.75 647.717 5019.56 634.025 5044.66C606.826 5094.51 546.15 5146.24 452.789 5157.58C371.202 5167.48 318.47 5217.15 286.01 5274.03C253.695 5330.66 240.956 5395.17 239.065 5437.53L260.045 5438.47C261.821 5398.66 273.932 5337.57 304.25 5284.44C334.424 5231.56 382.108 5187.31 455.321 5178.42C555.46 5166.26 622.035 5110.48 652.46 5054.72C667.581 5027 674.191 4998.47 670.516 4974.92C668.661 4963.04 664.131 4952.16 656.442 4943.56C648.689 4934.88 638.211 4929.07 625.498 4926.68C584.391 4918.94 474.144 4879.31 373.805 4830.07C323.746 4805.51 276.765 4778.85 242.455 4752.98C225.284 4740.03 211.654 4727.55 202.41 4715.91C193.045 4704.13 189.055 4694.32 189.055 4686.5C189.055 4672.44 183.544 4659.17 175.113 4646.97C166.69 4634.77 154.962 4623.06 141.499 4611.85C114.618 4589.48 79.2413 4567.86 45.2417 4547.6C41.4378 4545.34 37.6532 4543.09 33.8988 4540.86C3.69385 4522.92 -24.5559 4506.13 -45.2188 4490.41C-56.8475 4481.56 -65.3455 4473.57 -70.3639 4466.48C-75.3699 4459.41 -75.8803 4454.79 -74.897 4451.55C-67.0462 4425.66 -43.6636 4408.21 -12.8742 4395.73C15.5478 4384.2 47.963 4377.82 74.9362 4372.51C77.0237 4372.1 79.0785 4371.7 81.0964 4371.3C90.9083 4369.35 101.056 4372.8 113.336 4380.87C119.404 4384.85 125.595 4389.7 132.18 4395.06C133.864 4396.42 135.582 4397.83 137.328 4399.27L137.426 4399.35L137.472 4399.38C142.374 4403.4 147.49 4407.6 152.653 4411.57C166.74 4422.41 182.867 4432.96 201.37 4436.81C220.47 4440.78 240.902 4437.39 262.879 4422.73C269.234 4418.5 276.522 4410.87 284.336 4401.36C292.341 4391.62 301.546 4379.07 311.711 4364.23C332.052 4334.53 356.581 4295.12 383.547 4249.35C437.497 4157.78 501.486 4040.27 561.708 3922.98C621.922 3805.71 678.463 3688.49 717.478 3597.52C736.968 3552.08 752.194 3512.93 761.303 3483.5C765.843 3468.83 768.988 3456.19 770.304 3446.21C770.96 3441.23 771.217 3436.52 770.814 3432.35C770.43 3428.39 769.331 3423.59 766.087 3419.74C759.966 3412.47 746.914 3402.75 730.409 3391.69C713.45 3380.31 691.52 3366.67 666.453 3351.47C644.364 3338.07 620.01 3323.57 594.357 3308.3L594.352 3308.29L594.348 3308.29C561.289 3288.6 526.073 3267.64 490.774 3246.1C428.377 3208.03 367.039 3168.97 320.373 3134.23C297.021 3116.84 277.619 3100.73 263.661 3086.54C249.253 3071.88 242.241 3060.82 240.874 3053.56C228.327 2986.9 217.135 2934.59 212.799 2915.39C213.111 2902.38 218.844 2886.15 230.112 2866.94C241.594 2847.36 258.214 2825.69 278.563 2802.64C319.257 2756.55 373.898 2705.99 429.484 2656.93C453.076 2636.11 476.919 2615.49 499.876 2595.64L499.93 2595.59C530.737 2568.95 559.945 2543.69 584.802 2521.18C606.571 2501.47 625.371 2483.54 639.355 2468.27C646.346 2460.63 652.283 2453.5 656.824 2447C661.263 2440.66 664.853 2434.25 666.446 2428.15C671.214 2409.87 677.621 2355.83 684.287 2284.44C691.001 2212.55 698.071 2121.88 704.014 2029.42C709.956 1936.97 714.777 1842.65 716.985 1763.45C719.183 1684.59 718.828 1619.81 714.182 1587.03C711.313 1566.78 696.574 1550.45 676.732 1536.99C656.69 1523.4 629.614 1511.48 598.45 1500.6C541.714 1480.79 469.128 1463.64 395.745 1446.31L395.694 1446.3C388.452 1444.59 381.201 1442.88 373.958 1441.16C292.874 1421.94 212.574 1402.13 151.204 1377.79C120.516 1365.61 95.1904 1352.55 77.0362 1338.27C58.865 1323.98 48.8922 1309.3 46.6772 1294C41.2343 1256.39 42.2629 1234.51 46.8734 1220.43C51.2032 1207.21 59.022 1199.86 71.1495 1192.19C74.7841 1189.89 79.0524 1187.44 83.7569 1184.75C94.1775 1178.79 106.738 1171.61 119.295 1162.03C138.247 1147.57 158.604 1126.92 178.78 1093.42C219.134 1026.42 219.86 976.59 203.405 935.589C195.369 915.565 183.461 898.226 171.334 882.583C166.281 876.064 161.365 870.04 156.63 864.239C149.58 855.6 142.932 847.455 136.835 838.904C125.123 822.479 106.132 809.907 86.2379 798.761C77.5735 793.907 68.4161 789.156 59.2944 784.424C57.8152 783.657 56.337 782.89 54.8619 782.123C44.2114 776.586 33.6481 771.017 23.5467 765.075C3.23507 753.127 -14.3601 740.146 -26.1849 724.149C-37.7407 708.516 -44.099 689.591 -41.281 664.68C-36.3498 621.088 -29.2515 590.006 -18.499 561.141C-7.69946 532.149 6.91642 505.021 27.3996 469.214C46.6908 435.49 64.0614 416.945 88.4958 390.859C93.6575 385.348 99.1345 379.501 105.011 373.103C124.973 351.372 148.464 332.653 174.504 316.309C199.325 300.928 235.321 273.704 262.898 241.662C289.948 210.232 311.632 170.932 300.649 132.607Z" fill="#324A57"/>
<path fill-rule="evenodd" clip-rule="evenodd" d="M300.649 132.607C298.328 124.508 295.879 116.815 293.368 109.5C292.597 110.333 290.755 112.5 289.555 114.5C288.617 116.062 287.68 118.601 286.742 121.141C286.18 122.664 285.617 124.187 285.055 125.5C283.855 128.3 280.034 130.333 278.273 131C279.013 133.421 279.743 135.885 280.461 138.393C288.278 165.668 273.343 197.334 246.982 227.963C221.158 257.967 186.965 283.885 163.418 298.473L163.392 298.489L163.367 298.506C136.032 315.66 111.002 335.538 89.5458 358.897C83.931 365.009 78.6118 370.683 73.5269 376.107L73.5233 376.111C48.8963 402.379 29.7651 422.786 9.17133 458.786C-11.3428 494.648 -26.7269 523.069 -38.178 553.81C-49.6762 584.678 -57.0792 617.512 -62.148 662.32C-65.58 692.659 -57.6883 716.859 -43.0722 736.632C-28.7252 756.041 -8.22653 770.748 12.8993 783.175C23.5167 789.421 34.5081 795.21 45.1759 800.756C46.6802 801.538 48.1766 802.314 49.6646 803.086C58.8069 807.83 67.6281 812.406 75.9737 817.082C95.627 828.093 110.948 838.771 119.736 851.096C126.088 860.003 133.634 869.269 141.12 878.46C145.784 884.187 150.424 889.884 154.737 895.448C166.423 910.524 176.952 926.06 183.916 943.411C197.461 977.16 198.437 1020.08 160.791 1082.58C141.967 1113.83 123.386 1132.49 106.557 1145.33C95.029 1154.13 84.8658 1159.91 75.0866 1165.48L75.0853 1165.48C69.9725 1168.4 64.9646 1171.25 59.9214 1174.44C45.6738 1183.45 33.3676 1194.2 26.9163 1213.9C20.7455 1232.74 20.3366 1258.61 25.8938 1297C29.1788 1319.7 43.6279 1338.71 64.0543 1354.77C84.4978 1370.85 111.946 1384.81 143.461 1397.31C206.497 1422.31 288.322 1442.44 369.113 1461.59C376.326 1463.3 383.529 1465 390.712 1466.7C464.416 1484.11 535.892 1501 591.527 1520.43C622.066 1531.09 647.139 1542.3 664.945 1554.37C682.951 1566.58 691.759 1578.47 693.389 1589.97C697.743 1620.69 698.201 1683.66 695.993 1762.86C693.794 1841.73 688.99 1935.78 683.057 2028.08C677.125 2120.37 670.07 2210.83 663.378 2282.49C656.637 2354.67 650.357 2406.63 646.126 2422.85C645.468 2425.37 643.542 2429.35 639.617 2434.97C635.794 2440.43 630.518 2446.82 623.865 2454.09C610.559 2468.62 592.344 2486.02 570.707 2505.61C545.918 2528.06 517.119 2552.96 486.551 2579.4L486.546 2579.4L486.526 2579.42C463.56 2599.28 439.597 2620 415.587 2641.19C359.923 2690.32 304.439 2741.6 262.82 2788.75C242.013 2812.31 224.43 2835.11 211.997 2856.31C199.676 2877.32 191.785 2897.81 191.785 2916.5V2917.68L192.046 2918.83C196.104 2936.68 207.457 2989.55 220.236 3057.44C222.869 3071.43 234.091 3086.41 248.687 3101.26C263.733 3116.56 284.105 3133.4 307.831 3151.07C355.321 3186.43 417.358 3225.91 479.836 3264.03C514.944 3285.45 550.614 3306.69 583.947 3326.54L583.95 3326.54L584.034 3326.59C609.707 3341.88 633.992 3356.34 655.564 3369.42C680.575 3384.59 702.168 3398.03 718.713 3409.13C735.209 3420.19 745.522 3428.17 749.662 3432.85C749.728 3433.09 749.834 3433.57 749.912 3434.37C750.103 3436.35 750.03 3439.32 749.484 3443.46C748.396 3451.72 745.649 3463.05 741.242 3477.29C732.459 3505.67 717.572 3544.02 698.178 3589.24C659.428 3679.6 603.125 3796.35 543.027 3913.39C482.936 4030.42 419.144 4147.56 365.454 4238.69C338.599 4284.27 314.343 4323.23 294.385 4352.37C284.401 4366.94 275.578 4378.94 268.108 4388.03C260.448 4397.36 254.814 4402.87 251.231 4405.26C233.458 4417.11 218.703 4418.97 205.646 4416.25C191.993 4413.41 178.995 4405.34 165.457 4394.93C160.569 4391.17 155.831 4387.28 151.01 4383.33L150.978 4383.3C149.143 4381.8 147.297 4380.28 145.426 4378.76C138.757 4373.34 131.878 4367.92 124.868 4363.32C110.992 4354.2 94.9517 4347.14 77.0136 4350.7C75.8823 4350.92 74.7338 4351.15 73.5692 4351.38L70.6175 4351.96C43.9518 4357.2 9.62199 4363.95 -20.7658 4376.27C-53.4764 4389.53 -84.3439 4410.34 -94.9931 4445.45C-98.6347 4457.46 -94.3795 4468.9 -87.5046 4478.61C-80.6422 4488.31 -70.1441 4497.83 -57.9368 4507.12C-36.2461 4523.63 -6.86076 4541.08 23.0895 4558.86L23.1056 4558.87C26.8973 4561.13 30.698 4563.38 34.4933 4565.64C68.6812 4586.01 102.648 4606.83 128.064 4627.99C140.75 4638.55 150.908 4648.88 157.835 4658.9C164.754 4668.92 168.055 4678.06 168.055 4686.5C168.055 4701.18 175.315 4715.57 185.969 4728.98C196.745 4742.54 211.904 4756.24 229.811 4769.74C265.658 4796.77 313.989 4824.11 364.555 4848.93C465.466 4898.44 577.72 4939.06 621.613 4947.32C630.15 4948.92 636.359 4952.6 640.784 4957.55C645.272 4962.57 648.41 4969.46 649.767 4978.16C652.513 4995.75 647.717 5019.56 634.025 5044.66C606.826 5094.51 546.15 5146.24 452.789 5157.58C371.202 5167.48 318.47 5217.15 286.01 5274.03C253.695 5330.66 240.956 5395.17 239.065 5437.53L260.045 5438.47C261.821 5398.66 273.932 5337.57 304.25 5284.44C334.424 5231.56 382.108 5187.31 455.321 5178.42C555.46 5166.26 622.035 5110.48 652.46 5054.72C667.581 5027 674.191 4998.47 670.516 4974.92C668.661 4963.04 664.131 4952.16 656.442 4943.56C648.689 4934.88 638.211 4929.07 625.498 4926.68C584.391 4918.94 474.144 4879.31 373.805 4830.07C323.746 4805.51 276.765 4778.85 242.455 4752.98C225.284 4740.03 211.654 4727.55 202.41 4715.91C193.045 4704.13 189.055 4694.32 189.055 4686.5C189.055 4672.44 183.544 4659.17 175.113 4646.97C166.69 4634.77 154.962 4623.06 141.499 4611.85C114.618 4589.48 79.2413 4567.86 45.2417 4547.6C41.4378 4545.34 37.6532 4543.09 33.8988 4540.86C3.69385 4522.92 -24.5559 4506.13 -45.2188 4490.41C-56.8475 4481.56 -65.3455 4473.57 -70.3639 4466.48C-75.3699 4459.41 -75.8803 4454.79 -74.897 4451.55C-67.0462 4425.66 -43.6636 4408.21 -12.8742 4395.73C15.5478 4384.2 47.963 4377.82 74.9362 4372.51C77.0237 4372.1 79.0785 4371.7 81.0964 4371.3C90.9083 4369.35 101.056 4372.8 113.336 4380.87C119.404 4384.85 125.595 4389.7 132.18 4395.06C133.864 4396.42 135.582 4397.83 137.328 4399.27L137.426 4399.35L137.472 4399.38C142.374 4403.4 147.49 4407.6 152.653 4411.57C166.74 4422.41 182.867 4432.96 201.37 4436.81C220.47 4440.78 240.902 4437.39 262.879 4422.73C269.234 4418.5 276.522 4410.87 284.336 4401.36C292.341 4391.62 301.546 4379.07 311.711 4364.23C332.052 4334.53 356.581 4295.12 383.547 4249.35C437.497 4157.78 501.486 4040.27 561.708 3922.98C621.922 3805.71 678.463 3688.49 717.478 3597.52C736.968 3552.08 752.194 3512.93 761.303 3483.5C765.843 3468.83 768.988 3456.19 770.304 3446.21C770.96 3441.23 771.217 3436.52 770.814 3432.35C770.43 3428.39 769.331 3423.59 766.087 3419.74C759.966 3412.47 746.914 3402.75 730.409 3391.69C713.45 3380.31 691.52 3366.67 666.453 3351.47C644.364 3338.07 620.01 3323.57 594.357 3308.3L594.352 3308.29L594.348 3308.29C561.289 3288.6 526.073 3267.64 490.774 3246.1C428.377 3208.03 367.039 3168.97 320.373 3134.23C297.021 3116.84 277.619 3100.73 263.661 3086.54C249.253 3071.88 242.241 3060.82 240.874 3053.56C228.327 2986.9 217.135 2934.59 212.799 2915.39C213.111 2902.38 218.844 2886.15 230.112 2866.94C241.594 2847.36 258.214 2825.69 278.563 2802.64C319.257 2756.55 373.898 2705.99 429.484 2656.93C453.076 2636.11 476.919 2615.49 499.876 2595.64L499.93 2595.59C530.737 2568.95 559.945 2543.69 584.802 2521.18C606.571 2501.47 625.371 2483.54 639.355 2468.27C646.346 2460.63 652.283 2453.5 656.824 2447C661.263 2440.66 664.853 2434.25 666.446 2428.15C671.214 2409.87 677.621 2355.83 684.287 2284.44C691.001 2212.55 698.071 2121.88 704.014 2029.42C709.956 1936.97 714.777 1842.65 716.985 1763.45C719.183 1684.59 718.828 1619.81 714.182 1587.03C711.313 1566.78 696.574 1550.45 676.732 1536.99C656.69 1523.4 629.614 1511.48 598.45 1500.6C541.714 1480.79 469.128 1463.64 395.745 1446.31L395.694 1446.3C388.452 1444.59 381.201 1442.88 373.958 1441.16C292.874 1421.94 212.574 1402.13 151.204 1377.79C120.516 1365.61 95.1904 1352.55 77.0362 1338.27C58.865 1323.98 48.8922 1309.3 46.6772 1294C41.2343 1256.39 42.2629 1234.51 46.8734 1220.43C51.2032 1207.21 59.022 1199.86 71.1495 1192.19C74.7841 1189.89 79.0524 1187.44 83.7569 1184.75C94.1775 1178.79 106.738 1171.61 119.295 1162.03C138.247 1147.57 158.604 1126.92 178.78 1093.42C219.134 1026.42 219.86 976.59 203.405 935.589C195.369 915.565 183.461 898.226 171.334 882.583C166.281 876.064 161.365 870.04 156.63 864.239C149.58 855.6 142.932 847.455 136.835 838.904C125.123 822.479 106.132 809.907 86.2379 798.761C77.5735 793.907 68.4161 789.156 59.2944 784.424C57.8152 783.657 56.337 782.89 54.8619 782.123C44.2114 776.586 33.6481 771.017 23.5467 765.075C3.23507 753.127 -14.3601 740.146 -26.1849 724.149C-37.7407 708.516 -44.099 689.591 -41.281 664.68C-36.3498 621.088 -29.2515 590.006 -18.499 561.141C-7.69946 532.149 6.91642 505.021 27.3996 469.214C46.6908 435.49 64.0614 416.945 88.4958 390.859C93.6575 385.348 99.1345 379.501 105.011 373.103C124.973 351.372 148.464 332.653 174.504 316.309C199.325 300.928 235.321 273.704 262.898 241.662C289.948 210.232 311.632 170.932 300.649 132.607Z" fill="url(#paint0_radial_0_3427)" fill-opacity="0.9"/>
<path d="M249.555 5438C253.221 5355.83 299.255 5186.8 454.055 5168C647.555 5144.5 708.555 4953 623.555 4937C538.555 4921 178.555 4776.5 178.555 4686.5C178.555 4596.5 -103.445 4509.5 -84.9454 4448.5C-66.4454 4387.5 23.5547 4372 79.0547 4361C134.555 4350 177.555 4467 257.055 4414C336.555 4361 798.055 3474 758.055 3426.5C718.055 3379 246.555 3140.5 230.555 3055.5C217.755 2987.5 206.375 2934.5 202.285 2916.5C202.285 2789 638.285 2494.5 656.285 2425.5C674.285 2356.5 721.785 1715.5 703.785 1588.5C685.785 1461.5 58.2852 1447.5 36.2851 1295.5C14.2851 1143.5 91.7851 1217.5 169.785 1088C247.785 958.5 169.285 902.5 128.285 845C87.2852 787.5 -64.2149 774 -51.7149 663.5C-41.7149 575.1 -22.7122 535.669 18.2851 464C42.3918 421.859 64.025 402.202 97.2783 366C117.99 343.452 142.255 324.151 168.948 307.4C217.317 277.433 309.355 201.1 290.555 135.5C289.415 131.524 288.246 127.652 287.055 123.879" stroke="#BEBEBE" stroke-opacity="0.6" stroke-width="2" stroke-dasharray="12 21"/>
<g clip-path="url(#clip1_0_3427)">
<ellipse cx="68.5552" cy="1299.76" rx="13.8716" ry="2.93103" fill="#193A41"/>
<path d="M68.5547 1262.16V1299.76" stroke="black" stroke-width="3"/>
<path d="M65.1031 1218.06L43.101 1257.32C42.7463 1257.94 42.558 1258.65 42.5547 1259.37C42.5515 1260.09 42.7333 1260.8 43.0823 1261.43C43.4313 1262.05 43.9353 1262.58 44.5441 1262.94C45.1529 1263.31 45.8454 1263.51 46.5527 1263.52H90.5569C91.2641 1263.51 91.9566 1263.31 92.5654 1262.94C93.1743 1262.58 93.6782 1262.05 94.0272 1261.43C94.3762 1260.8 94.5581 1260.09 94.5548 1259.37C94.5515 1258.65 94.3632 1257.94 94.0086 1257.32L72.0062 1218.06C71.6617 1217.44 71.1605 1216.92 70.5539 1216.56C69.9474 1216.19 69.2573 1216 68.5547 1216C67.852 1216 67.162 1216.19 66.5554 1216.56C65.9489 1216.92 65.4476 1217.44 65.1031 1218.06Z" fill="#C03A2B"/>
<path d="M46.5528 1259.86C46.4825 1259.87 46.4131 1259.85 46.3534 1259.81C46.2936 1259.77 46.2463 1259.72 46.2172 1259.65C46.1689 1259.57 46.143 1259.48 46.1426 1259.39C46.1422 1259.3 46.1672 1259.21 46.2148 1259.13L68.2171 1219.87C68.2478 1219.81 68.2958 1219.75 68.3555 1219.72C68.4152 1219.68 68.4843 1219.66 68.5547 1219.66C68.6251 1219.66 68.6941 1219.68 68.7538 1219.72C68.8135 1219.75 68.8615 1219.81 68.8923 1219.87L90.895 1259.13C90.9426 1259.21 90.9676 1259.3 90.9673 1259.39C90.9669 1259.48 90.9412 1259.57 90.8929 1259.65C90.8639 1259.72 90.8165 1259.77 90.7567 1259.81C90.6969 1259.85 90.6273 1259.86 90.557 1259.86L46.5528 1259.86Z" fill="#ECF0F1"/>
<path d="M62.3452 1238.69C62.3243 1238.71 62.3078 1238.73 62.2965 1238.76C62.2852 1238.79 62.2794 1238.82 62.2794 1238.85C62.2794 1238.88 62.2852 1238.91 62.2965 1238.93C62.3078 1238.96 62.3243 1238.99 62.3452 1239.01L63.9796 1240.67C67.9382 1240.68 71.1464 1243.95 71.1515 1247.98V1255.29C71.1515 1255.54 71.246 1255.77 71.4141 1255.94C71.5823 1256.11 71.8103 1256.21 72.0481 1256.21H73.8412C74.3363 1256.21 74.7373 1255.8 74.7373 1255.29V1247.98C74.7326 1241.93 69.919 1237.02 63.9795 1237.02L62.3452 1238.69Z" fill="#35495E"/>
</g>
</g>
<defs>
<radialGradient id="paint0_radial_0_3427" cx="0" cy="0" r="1" gradientUnits="userSpaceOnUse" gradientTransform="translate(287.555 119) rotate(126.358) scale(414.117 222.415)">
<stop stop-color="#002C5F"/>
<stop offset="1" stop-opacity="0"/>
</radialGradient>
<clipPath id="clip0_0_3427">
<rect width="361" height="5984" fill="white"/>
</clipPath>
<clipPath id="clip1_0_3427">
<rect width="52" height="92" fill="white" transform="translate(42.5547 1216)"/>
</clipPath>
</defs>
</svg>
