<svg width="42" height="42" viewBox="0 0 42 42" fill="none" xmlns="http://www.w3.org/2000/svg">
<g clip-path="url(#clip0_0_1616)">
<path d="M34.125 42H7.875C5.78642 42 3.78338 41.1703 2.30653 39.6935C0.829685 38.2166 0 36.2136 0 34.125L0 7.875C0 5.78642 0.829685 3.78338 2.30653 2.30653C3.78338 0.829685 5.78642 0 7.875 0L34.125 0C36.2136 0 38.2166 0.829685 39.6935 2.30653C41.1703 3.78338 42 5.78642 42 7.875V34.125C42 36.2136 41.1703 38.2166 39.6935 39.6935C38.2166 41.1703 36.2136 42 34.125 42Z" fill="white"/>
<path d="M13.125 30.6246C12.9612 30.6247 12.8034 30.5633 12.6827 30.4526C12.5934 30.3726 10.5 28.4366 10.5 26.4141C10.5 24.8758 11.6773 23.625 13.125 23.625C14.5727 23.625 15.75 24.8758 15.75 26.4141C15.75 28.4366 13.6566 30.3726 13.5673 30.4526C13.4469 30.5638 13.2889 30.6252 13.125 30.6246Z" fill="#12A297"/>
<path d="M24.1973 31.5H13.125C12.951 31.5 12.784 31.4309 12.661 31.3078C12.5379 31.1847 12.4688 31.0178 12.4688 30.8437C12.4688 30.6697 12.5379 30.5028 12.661 30.3797C12.784 30.2566 12.951 30.1875 13.125 30.1875H24.1973C24.3206 30.1875 24.3771 30.1114 24.402 30.0471C24.4269 29.9827 24.4361 29.8896 24.3443 29.8069L18.5246 24.5411C18.0521 24.1132 17.8933 23.4531 18.123 22.8572C18.3527 22.2613 18.9131 21.8754 19.5523 21.8754H27.1254C27.2995 21.8754 27.4664 21.9446 27.5895 22.0676C27.7125 22.1907 27.7817 22.3576 27.7817 22.5317C27.7817 22.7057 27.7125 22.8726 27.5895 22.9957C27.4664 23.1188 27.2995 23.1879 27.1254 23.1879H19.5523C19.4289 23.1879 19.3725 23.2641 19.3476 23.3284C19.3226 23.3927 19.3134 23.4859 19.4053 23.5686L25.2249 28.8343C25.6974 29.2622 25.8562 29.9224 25.6266 30.5182C25.3969 31.1141 24.8364 31.5 24.1973 31.5Z" fill="#30C9BD"/>
<path d="M27.1254 10.5C24.713 10.5 22.7509 12.4871 22.7509 14.9297C22.7509 18.3002 26.5374 21.5788 26.6989 21.7179C26.8174 21.8204 26.9688 21.8767 27.1254 21.8767C27.2821 21.8767 27.4335 21.8204 27.552 21.7179C27.7134 21.5788 31.5 18.3002 31.5 14.9297C31.5 12.4871 29.5378 10.5 27.1254 10.5ZM27.1254 16.6254C26.1607 16.6254 25.3759 15.8406 25.3759 14.8759C25.3759 13.9112 26.1607 13.1263 27.1254 13.1263C27.5894 13.1263 28.0344 13.3106 28.3625 13.6387C28.6907 13.9669 28.875 14.4119 28.875 14.8759C28.875 15.3399 28.6907 15.7849 28.3625 16.113C28.0344 16.4411 27.5894 16.6254 27.1254 16.6254Z" fill="#12A297"/>
</g>
<defs>
<clipPath id="clip0_0_1616">
<rect width="42" height="42" fill="white"/>
</clipPath>
</defs>
</svg>
