<svg width="42" height="42" viewBox="0 0 42 42" fill="none" xmlns="http://www.w3.org/2000/svg">
<g clip-path="url(#clip0_0_1595)">
<path d="M34.125 42H7.875C3.52546 42 0 38.4745 0 34.125V7.875C0 3.52546 3.52546 0 7.875 0H34.125C38.4745 0 42 3.52546 42 7.875V34.125C42 38.4745 38.4745 42 34.125 42Z" fill="white"/>
<path d="M28.875 13.125H13.125C11.6773 13.125 10.5 14.3023 10.5 15.75V28.875C10.5 30.3227 11.6773 31.5 13.125 31.5H28.875C30.3227 31.5 31.5 30.3227 31.5 28.875V15.75C31.5 14.3023 30.3227 13.125 28.875 13.125ZM29.7504 28.875C29.7504 29.3579 29.3579 29.7504 28.875 29.7504H13.125C12.6421 29.7504 12.2496 29.3579 12.2496 28.875V19.2847H29.7491V28.875H29.7504Z" fill="#12A297"/>
<path d="M15.7499 10.5H14.8745C14.3915 10.5 13.999 10.8913 13.999 11.3754V14.8759C13.999 15.3587 14.3903 15.7513 14.8745 15.7513H15.7499C16.2328 15.7513 16.6253 15.36 16.6253 14.8759V11.3754C16.6253 10.8913 16.2328 10.5 15.7499 10.5ZM27.1253 10.5H26.2499C25.767 10.5 25.3745 10.8913 25.3745 11.3754V14.8759C25.3745 15.3587 25.767 15.75 26.2499 15.75H27.1253C27.6083 15.75 28.0008 15.3587 28.0008 14.8746V11.3754C27.9995 10.8913 27.6083 10.5 27.1253 10.5Z" fill="#30C9BD"/>
</g>
<defs>
<clipPath id="clip0_0_1595">
<rect width="42" height="42" fill="white"/>
</clipPath>
</defs>
</svg>
