<svg width="272" height="65" viewBox="0 0 272 65" fill="none" xmlns="http://www.w3.org/2000/svg">
<path d="M20.8089 49.4392C21.4971 49.7478 21.9955 50.2224 22.304 50.8157C22.6125 51.409 22.6837 52.0498 22.5176 52.7143C22.3515 53.3788 22.043 54.0196 21.592 54.6603C21.1411 55.2774 20.4529 55.7995 19.5036 56.2029C18.578 56.6064 17.5338 56.82 16.3472 56.82H4.31498C4.12513 56.82 3.959 56.7725 3.81661 56.6776C3.69795 56.5826 3.62675 56.464 3.62675 56.3216C3.60302 56.108 3.74541 55.9419 4.05393 55.8232C4.36245 55.7046 4.55231 55.6096 4.59977 55.5622C4.78963 55.3011 4.88456 54.6366 4.88456 53.5924V30.3111C4.88456 29.2431 4.78963 28.5786 4.59977 28.3413C4.55231 28.2938 4.38618 28.1989 4.05393 28.0802C3.74541 27.9616 3.60302 27.7955 3.62675 27.5819C3.62675 27.4395 3.69795 27.3208 3.81661 27.2259C3.93527 27.131 4.10139 27.0835 4.31498 27.0835H10.604C10.8413 27.0835 11.0312 27.131 11.1499 27.2259C11.2685 27.3208 11.3397 27.4632 11.3397 27.6056C11.316 27.7717 11.1736 27.9141 10.9125 28.0565C10.6515 28.1989 10.4854 28.3176 10.4142 28.4125C10.248 28.6735 10.1531 29.3143 10.1531 30.3585V53.5924C10.1531 53.9958 10.1768 54.3044 10.2006 54.5179C10.2243 54.7078 10.3192 54.9214 10.4854 55.135C10.6515 55.3486 10.9125 55.491 11.2685 55.5622C11.6482 55.6334 12.1229 55.6571 12.7637 55.6571H14.4486C18.2695 55.6571 20.263 54.779 20.3817 52.9991C20.4292 52.477 20.1444 52.1685 19.5748 52.121C18.9578 52.0735 18.4357 52.2871 18.0559 52.8092C17.9373 53.0228 17.8186 53.2601 17.7712 53.4975C17.1541 53.3076 16.7269 52.9279 16.4659 52.2871C16.2048 51.6701 16.2048 51.1005 16.4659 50.6259C16.7032 50.1037 17.0829 49.724 17.605 49.463C18.1271 49.2019 18.673 49.0833 19.2188 49.107C19.7647 49.0833 20.3105 49.2019 20.8089 49.4392Z" fill="white"/>
<path d="M27.1454 46.9709C27.5963 46.5674 28.1896 46.2589 28.8778 46.0453C29.5898 45.8555 30.278 45.7843 30.9663 45.8555C31.6545 45.9267 32.2715 46.164 32.8411 46.5437C33.387 46.9472 33.7429 47.4693 33.8853 48.1338C33.9803 48.5135 33.9803 48.8932 33.9091 49.2729C33.8379 49.6764 33.7192 50.0323 33.5293 50.3646C33.3632 50.6968 33.1022 50.9816 32.7462 51.2189C32.3902 51.4563 31.9868 51.5987 31.5121 51.6224C30.8951 51.6936 30.3255 51.5512 29.7322 51.1715C29.1626 50.7918 28.8541 50.3171 28.8304 49.7238C29.3999 49.7713 29.8509 49.6289 30.2306 49.3204C30.6103 49.0119 30.7764 48.6559 30.7764 48.2524C30.7527 47.849 30.5391 47.5405 30.1119 47.3269C29.7322 47.137 29.2575 47.137 28.688 47.3269C28.3083 47.4693 27.9285 47.6828 27.62 48.0151C27.2878 48.3236 27.0267 48.6796 26.8131 49.0356C26.5995 49.3916 26.3859 49.8662 26.1724 50.4595C25.9588 51.0528 25.7926 51.5275 25.674 51.9072C25.5553 52.2869 25.4367 52.809 25.2705 53.4261C25.1044 54.0668 24.9857 54.494 24.9383 54.7313C24.8434 55.2534 24.9146 55.5857 25.1044 55.7043C25.1756 55.7518 25.2468 55.7755 25.318 55.823C25.3892 55.8705 25.4604 55.8942 25.5079 55.9179C25.5553 55.9417 25.6028 55.9654 25.6265 56.0129C25.674 56.0603 25.6977 56.0841 25.7214 56.1315C25.7452 56.179 25.7452 56.2027 25.7452 56.2502C25.7452 56.4163 25.6977 56.535 25.5791 56.6536C25.4604 56.7723 25.318 56.8435 25.0807 56.8435H22.7787C22.5651 56.8435 22.3989 56.7723 22.2565 56.6536C22.1379 56.535 22.0904 56.3688 22.1853 56.179C22.2565 55.9891 22.4701 55.8467 22.7787 55.7281C22.8973 55.6806 22.9922 55.6331 23.0634 55.5382C23.1584 55.4433 23.2296 55.3246 23.3008 55.1585C23.372 54.9924 23.4194 54.8737 23.4669 54.7788C23.4906 54.6839 23.5618 54.5177 23.633 54.3279C23.7042 54.1143 23.7517 54.0194 23.7517 53.9956L23.8229 53.8532L29.2813 34.6064C29.661 35.0098 29.9695 35.5082 30.2306 36.1015L27.1454 46.9709ZM43.7817 56.2976C43.8054 56.44 43.7579 56.5587 43.663 56.6774C43.5681 56.796 43.402 56.8435 43.1884 56.8435H37.1129C36.9231 56.8435 36.7569 56.796 36.6145 56.7011C36.4721 56.6062 36.4009 56.4875 36.4009 56.3451C36.3772 56.1553 36.4247 55.9891 36.5196 55.8942C36.6383 55.7993 36.7332 55.7043 36.8519 55.6806C36.9705 55.6332 37.0654 55.5382 37.1604 55.3958C37.2553 55.2534 37.279 55.0398 37.2316 54.7788C37.2078 54.6127 37.1604 54.3753 37.0417 54.0668C36.9468 53.7583 36.8756 53.5684 36.8519 53.5447C36.6383 52.8327 36.0687 50.9104 35.1906 47.7303C34.2888 44.5739 33.5531 42.1532 33.0072 40.4683C32.5801 39.1392 32.1291 38.0001 31.702 37.0034C31.2511 36.0066 30.7527 35.1048 30.1831 34.2741C29.6135 33.4435 28.9728 32.8265 28.2608 32.423C27.5488 32.0196 26.8131 31.806 26.0062 31.8297C25.6028 31.8772 25.3655 31.7823 25.318 31.5687C25.2705 31.3551 25.4367 31.1652 25.8638 30.9516C28.3795 29.8362 30.7052 29.9074 32.8411 31.094C34.9533 32.3044 36.8756 35.7218 38.5606 41.3701C38.9878 42.8652 39.6048 45.0011 40.388 47.7778C41.1711 50.5544 41.717 52.453 42.0018 53.4972C42.3577 54.7788 42.7612 55.5382 43.2596 55.7755C43.5918 55.9654 43.7579 56.1315 43.7817 56.2976Z" fill="white"/>
<path d="M57.404 27.5815C58.1159 27.5815 58.7567 27.7239 59.2788 28.0325C59.8247 28.341 60.2044 28.7444 60.4417 29.2191C60.679 29.6937 60.774 30.2158 60.7502 30.7617C60.7265 31.3075 60.5129 31.8533 60.1094 32.3992C59.706 32.945 59.1602 33.3959 58.4719 33.7519C57.8074 34.0842 57.048 34.274 56.1936 34.2978C55.3393 34.3215 54.5561 34.274 53.8679 34.1554V53.687C53.8679 54.7312 53.9628 55.3957 54.1289 55.6805C54.2001 55.7754 54.3662 55.8941 54.651 56.0365C54.9358 56.1789 55.0782 56.3213 55.0782 56.4874C55.0782 56.6535 55.007 56.7722 54.8884 56.8908C54.7697 57.0095 54.6036 57.057 54.39 57.057H48.1009C47.9823 57.057 47.8636 57.0332 47.745 56.9858C47.6263 56.9383 47.5551 56.8671 47.4839 56.7959C47.4127 56.7247 47.389 56.6298 47.389 56.5349C47.389 56.3213 47.5551 56.1551 47.8636 56.0365C48.1721 55.9178 48.362 55.8229 48.4095 55.7754C48.5993 55.5144 48.6942 54.8499 48.6942 53.7582V32.684C47.7212 32.4229 46.9618 32.2805 46.416 32.2331C45.6328 32.1856 45.0395 32.4229 44.6123 33.0162C44.1851 33.5858 44.1139 34.2266 44.3987 34.9148C44.6835 35.603 45.3243 36.0302 46.321 36.1963C45.8226 36.7184 45.2768 37.0744 44.6598 37.2406C44.0427 37.4067 43.4732 37.3829 42.9511 37.2168C42.4289 37.0507 41.9543 36.7897 41.5271 36.4574C41.0999 36.1014 40.7914 35.6742 40.5778 35.1521C40.388 34.63 40.3405 34.1079 40.4592 33.6095C40.6728 32.5653 41.2186 31.8296 42.073 31.4024C42.9273 30.9752 44.0427 30.7617 45.3955 30.7379C45.8701 30.7379 46.5109 30.7854 47.3415 30.8803C48.1721 30.9753 48.9553 31.0464 49.7147 31.1414C50.4742 31.2126 51.2811 31.2838 52.1592 31.355C53.0372 31.4024 53.8204 31.4024 54.4849 31.3075C55.1494 31.2126 55.7665 31.0464 56.3123 30.8091C56.8581 30.5718 57.2379 30.1921 57.4277 29.6462C57.5938 29.0292 57.5938 28.3647 57.404 27.5815Z" fill="white"/>
<path d="M78.929 27.9377C79.7833 29.3142 79.9969 31.2839 79.6172 33.8233C79.285 35.9117 78.4306 38.9257 77.0067 42.8415C75.5827 46.7811 74.3487 49.9137 73.257 52.2158C71.9992 54.945 70.6702 56.7486 69.2225 57.6742C69.2462 56.5825 68.9377 55.1823 68.2732 53.4736C67.6324 51.7648 66.8968 50.1511 66.0899 48.6322C65.283 47.1133 64.3574 45.4046 63.3369 43.4823C62.3164 41.5837 61.5807 40.0649 61.1298 38.9495C59.9432 36.0779 60.2755 33.7758 62.174 32.0908C63.5268 30.8805 65.3304 30.2397 67.5612 30.2397C69.6734 30.2397 71.3109 30.7856 72.4738 31.901C73.0197 32.4468 73.3519 33.0876 73.518 33.7996C73.7791 34.9624 73.4706 35.8405 72.6162 36.4576C71.7619 37.0746 70.7414 37.1458 69.5548 36.6949C70.0057 36.1728 70.2905 35.6269 70.3854 35.0099C70.4803 34.3929 70.4328 33.847 70.1955 33.3724C69.9819 32.8977 69.6734 32.4706 69.27 32.1383C68.8665 31.7823 68.4393 31.6162 67.9884 31.5925C67.1341 31.5213 66.4933 31.6637 66.0187 32.0434C65.544 32.4231 65.283 32.9452 65.2355 33.586C65.188 34.2267 65.2118 34.8675 65.3304 35.532C65.4491 36.1728 65.6389 36.7898 65.9 37.3357C66.3272 38.2375 66.9679 39.4241 67.8223 40.9192C68.6767 42.3906 69.3886 43.6722 70.0057 44.7164C70.6227 45.7606 71.1448 46.9235 71.572 48.1338C72.0229 49.3679 72.2128 50.4121 72.1653 51.2902C72.8535 49.9375 73.9689 47.0659 75.5353 42.6517C77.0779 38.2375 77.9797 35.176 78.2407 33.4673C78.5967 31.0941 78.2408 29.504 77.244 28.7446C76.888 28.4835 76.4846 28.3411 76.0099 28.3411C75.2505 27.9852 74.9657 27.5342 75.1556 26.9409C75.3217 26.4426 75.7251 26.1815 76.3659 26.1815C77.2915 26.1103 78.1458 26.7036 78.929 27.9377Z" fill="white"/>
<path d="M88.5644 33.4673C88.9203 33.5148 89.0865 33.7284 89.1102 34.0607C89.1102 34.3929 88.9678 34.6065 88.683 34.7014C87.8049 35.0099 87.093 35.4134 86.5708 35.9118C86.0487 36.4101 85.6928 37.0509 85.5029 37.8341C85.4317 38.1426 85.1944 38.3087 84.8147 38.3087C84.4112 38.3087 84.1739 38.1426 84.1264 37.8341C83.8179 36.5288 82.75 35.4609 80.9226 34.7014C80.6378 34.5828 80.4954 34.3692 80.5191 34.0607C80.5191 33.7521 80.6853 33.5385 80.9938 33.4673C82.5601 33.0639 83.6043 32.0197 84.1502 30.3347C84.2451 30.0499 84.4587 29.8838 84.8384 29.8838C85.2181 29.8838 85.4554 30.0262 85.5504 30.3347C86.1199 32.1858 87.1642 33.23 88.5644 33.4673ZM87.4252 43.4586V53.5685C87.4252 54.589 87.5201 55.2535 87.6863 55.5146C87.7575 55.6095 87.9236 55.7282 88.2084 55.8468C88.4932 55.9655 88.6356 56.1079 88.6356 56.274C88.6356 56.4401 88.5644 56.5588 88.4457 56.6775C88.327 56.7961 88.1609 56.8436 87.9473 56.8436H81.6583C81.4684 56.8436 81.3023 56.7961 81.1599 56.6775C81.0175 56.5825 80.9463 56.4639 80.9463 56.3452C80.9463 56.1554 81.0175 56.0367 81.1362 55.9655C81.2548 55.8943 81.421 55.8231 81.5871 55.7519C81.7532 55.7044 81.8719 55.6332 81.9431 55.5383C82.1329 55.301 82.2279 54.6365 82.2279 53.5685V43.4586C82.2279 42.4856 82.0855 41.8448 81.7769 41.4888C81.7057 41.4176 81.5871 41.3227 81.421 41.2278C81.2548 41.1329 81.1599 41.0617 81.1362 41.0379C80.7802 40.7531 80.709 40.4684 80.9463 40.1598C81.1362 39.8988 81.3735 39.8513 81.6583 39.97C82.0855 40.1598 83.1534 40.2548 84.8147 40.2548C86.4997 40.2548 87.5201 40.1598 87.9236 39.97C88.2796 39.7801 88.5406 39.8513 88.7067 40.1836C88.8966 40.5158 88.8017 40.8006 88.422 41.0379C88.1372 41.2278 87.9473 41.3939 87.8287 41.56C87.5676 41.9635 87.4252 42.6043 87.4252 43.4586Z" fill="white"/>
<path d="M94.5685 46.9709C95.0194 46.5674 95.6128 46.2589 96.301 46.0453C97.013 45.8555 97.7012 45.7843 98.3894 45.8555C99.0777 45.9267 99.6947 46.164 100.264 46.5437C100.81 46.9472 101.166 47.4693 101.308 48.1338C101.403 48.5135 101.403 48.8932 101.332 49.2729C101.261 49.6764 101.142 50.0323 100.953 50.3646C100.763 50.6968 100.525 50.9816 100.169 51.2189C99.8134 51.4563 99.4099 51.5987 98.9353 51.6224C98.3182 51.6936 97.7487 51.5512 97.1553 51.1715C96.5858 50.7918 96.2773 50.3171 96.2535 49.7238C96.8231 49.7713 97.274 49.6289 97.6537 49.3204C98.0334 49.0119 98.1996 48.6559 98.1996 48.2524C98.1996 47.849 97.9622 47.5405 97.5351 47.3269C97.1553 47.137 96.6807 47.137 96.1111 47.3269C95.7314 47.4693 95.3754 47.6828 95.0432 48.0151C94.7109 48.3236 94.4499 48.6796 94.2363 49.0356C94.0227 49.3916 93.8091 49.8662 93.5955 50.4595C93.3819 51.0528 93.2158 51.5275 93.0971 51.9072C92.9785 52.2869 92.8598 52.809 92.6937 53.4261C92.5276 54.0668 92.4089 54.494 92.3614 54.7313C92.2665 55.2534 92.3377 55.5857 92.5276 55.7043C92.5988 55.7518 92.67 55.7755 92.7412 55.823C92.8123 55.8705 92.8835 55.8942 92.931 55.9179C92.9785 55.9417 93.0259 55.9654 93.0497 56.0129C93.0971 56.0603 93.1209 56.0841 93.1446 56.1315C93.1683 56.179 93.1683 56.2027 93.1683 56.2502C93.1683 56.4163 93.1209 56.535 93.0022 56.6536C92.8835 56.7723 92.7412 56.8435 92.5038 56.8435H90.2018C89.9882 56.8435 89.8221 56.7723 89.6797 56.6536C89.561 56.535 89.5136 56.3688 89.6085 56.179C89.6797 55.9891 89.8933 55.8467 90.2018 55.7281C90.3205 55.6806 90.4154 55.6331 90.4866 55.5382C90.5578 55.4433 90.6527 55.3246 90.7239 55.1585C90.7951 54.9924 90.8426 54.8737 90.89 54.7788C90.9138 54.6839 90.985 54.5177 91.0562 54.3279C91.1274 54.1143 91.1748 54.0194 91.1748 53.9956L91.246 53.8532L96.7044 34.6064C97.0604 35.0098 97.3927 35.5082 97.6537 36.1015L94.5685 46.9709ZM111.229 56.2976C111.252 56.44 111.205 56.5587 111.11 56.6774C111.015 56.796 110.849 56.8435 110.635 56.8435H104.56C104.37 56.8435 104.204 56.796 104.061 56.7011C103.919 56.6062 103.848 56.4875 103.848 56.3451C103.824 56.1553 103.872 55.9891 103.966 55.8942C104.085 55.7993 104.18 55.7043 104.299 55.6806C104.417 55.6332 104.512 55.5382 104.607 55.3958C104.702 55.2534 104.726 55.0398 104.678 54.7788C104.655 54.6127 104.607 54.3753 104.489 54.0668C104.394 53.7583 104.322 53.5684 104.299 53.5447C104.085 52.8327 103.516 50.9104 102.637 47.7303C101.736 44.5739 101 42.1532 100.454 40.4683C100.027 39.1392 99.576 38.0001 99.1489 37.0034C98.6979 36.0066 98.1996 35.1048 97.63 34.2741C97.0604 33.4435 96.4196 32.8265 95.7077 32.423C94.9957 32.0196 94.26 31.806 93.4531 31.8297C93.0497 31.8772 92.8124 31.7823 92.7649 31.5687C92.7174 31.3551 92.8835 31.1652 93.3107 30.9516C95.8263 29.8362 98.1521 29.9074 100.288 31.094C102.4 32.3044 104.322 35.7218 106.007 41.3701C106.435 42.8652 107.052 45.0011 107.835 47.7778C108.618 50.5544 109.164 52.453 109.449 53.4972C109.805 54.7788 110.208 55.5382 110.706 55.7755C111.039 55.9654 111.205 56.1315 111.229 56.2976Z" fill="white"/>
<path d="M131.093 30.4534C131.306 30.4534 131.472 30.5008 131.615 30.6195C131.733 30.7382 131.805 30.8568 131.781 31.0229C131.781 31.1891 131.638 31.3315 131.354 31.4501C131.069 31.5688 130.903 31.6874 130.855 31.7824C130.689 32.0672 130.594 32.7079 130.594 33.7284V53.1176C130.618 54.3517 130.357 55.6095 129.787 56.8436C129.336 55.8468 128.411 54.5653 127.011 52.999C125.61 51.4564 124.258 50.0562 122.929 48.8458C121.6 47.6355 119.962 46.1404 117.969 44.3605C115.975 42.5805 114.67 41.4177 114.077 40.8481C113.317 40.1361 112.748 39.4004 112.368 38.6173C111.988 37.8341 111.775 37.0984 111.775 36.4102C111.775 35.7219 111.893 35.0574 112.131 34.3929C112.368 33.7284 112.748 33.1351 113.246 32.6367C113.744 32.1146 114.29 31.6637 114.955 31.284C115.595 30.8805 116.284 30.5958 116.996 30.4059C117.708 30.2161 118.443 30.1211 119.226 30.1686C119.986 30.2161 120.722 30.3584 121.41 30.6432C122.929 31.284 123.807 32.2333 124.068 33.5386C124.329 34.6777 124.02 35.5558 123.166 36.1491C122.312 36.7424 121.291 36.8373 120.105 36.3627C120.627 35.7931 120.911 35.1998 120.959 34.5828C121.006 33.9657 120.888 33.4199 120.603 32.9452C120.318 32.4706 119.915 32.1146 119.416 31.8773C118.894 31.6162 118.348 31.5213 117.779 31.5925C117.209 31.6637 116.735 31.8536 116.355 32.2096C115.975 32.5418 115.714 32.969 115.595 33.5148C115.477 34.0369 115.572 34.6302 115.928 35.2947C116.355 36.1728 116.972 36.956 117.779 37.6205C120.745 40.1361 123.997 43.1738 127.509 46.7337C128.174 47.4456 128.743 48.1576 129.218 48.8933V33.7521C129.218 32.6605 129.123 32.0197 128.933 31.7824C128.862 31.7349 128.696 31.64 128.387 31.5213C128.079 31.4027 127.936 31.2365 127.936 30.9992C127.936 30.928 127.96 30.8331 128.031 30.7619C128.102 30.6907 128.174 30.6195 128.292 30.572C128.411 30.5246 128.529 30.5008 128.648 30.5008L131.093 30.4534ZM114.789 55.5146C114.86 55.6095 115.026 55.7282 115.311 55.8468C115.595 55.9655 115.738 56.1079 115.738 56.274C115.738 56.4402 115.667 56.5588 115.548 56.6775C115.429 56.7961 115.263 56.8436 115.05 56.8436H112.558C112.368 56.8436 112.202 56.7961 112.059 56.6775C111.917 56.5825 111.846 56.4639 111.846 56.3452C111.846 56.1079 112.012 55.9418 112.32 55.8231C112.629 55.7045 112.819 55.6095 112.866 55.5621C113.056 55.3247 113.151 54.6602 113.151 53.5923V41.1803C113.531 41.56 114.005 41.9635 114.551 42.3907V53.5923C114.527 54.589 114.622 55.2298 114.789 55.5146Z" fill="white"/>
<path d="M155.241 33.8745C155.69 34.5357 156.303 35.2441 157.059 35.9998C157.815 36.7554 158.57 37.4402 159.326 38.0542C160.082 38.6682 160.908 39.353 161.758 40.0614C162.608 40.7698 163.388 41.4782 164.096 42.2338C164.804 42.9895 165.442 43.7451 166.009 44.548C166.576 45.3509 166.977 46.2718 167.237 47.2636C167.496 48.2554 167.567 49.2708 167.473 50.3334C167.331 51.7975 166.717 53.0726 165.631 54.1588C164.545 55.2687 163.222 56.1188 161.664 56.6855C160.082 57.2522 158.405 57.6065 156.587 57.7009C155.146 57.7717 153.753 57.7009 152.384 57.4412C151.014 57.1814 149.762 56.7564 148.629 56.1896C147.472 55.5993 146.527 54.7964 145.772 53.781C145.016 52.7656 144.567 51.6085 144.426 50.2862C144.308 49.3888 144.355 48.5387 144.567 47.7595C144.78 46.9802 145.111 46.319 145.559 45.7759C146.008 45.2328 146.527 44.7841 147.118 44.4063C147.708 44.0285 148.346 43.7687 149.03 43.6743C149.715 43.5798 150.353 43.5562 150.99 43.6507C151.604 43.7451 152.218 43.9813 152.785 44.3591C153.352 44.7369 153.8 45.2328 154.131 45.8468C152.1 46.1065 150.66 47.0511 149.762 48.704C148.936 50.1917 148.842 51.703 149.479 53.2615C150.14 54.9145 151.439 55.9535 153.352 56.3785C154.296 56.5674 155.335 56.6147 156.445 56.4966C157.319 56.3785 158.145 56.1424 158.925 55.8118C159.68 55.4812 160.365 55.0325 160.955 54.4422C161.546 53.8755 161.947 53.1907 162.207 52.435C162.443 51.6794 162.467 50.7821 162.278 49.7667C162.065 48.7277 161.617 47.6414 160.885 46.508C160.412 45.7759 159.798 45.0439 159.019 44.2646C158.24 43.4854 157.484 42.8006 156.705 42.1394C155.926 41.4782 155.123 40.817 154.344 40.1322C153.564 39.4474 152.832 38.7154 152.147 37.9125C151.463 37.1096 150.943 36.3068 150.542 35.5039C150.069 34.5121 149.904 33.5439 150.022 32.6466C150.14 31.7493 150.447 30.9228 150.92 30.1672C151.392 29.4115 152.029 28.7503 152.832 28.2072C153.635 27.6641 154.509 27.239 155.406 26.9321C156.327 26.6251 157.295 26.4834 158.287 26.5306C159.302 26.5542 160.223 26.7668 161.097 27.1446C161.947 27.546 162.632 28.0419 163.104 28.6795C163.577 29.3171 163.765 30.0255 163.695 30.7811C163.6 31.5368 163.246 32.0563 162.632 32.4105C162.018 32.7411 161.192 32.7411 160.153 32.4105C160.46 32.1271 160.672 31.7965 160.79 31.4187C160.908 31.0173 160.955 30.6394 160.908 30.238C160.861 29.8366 160.743 29.4824 160.554 29.1282C160.365 28.7739 160.105 28.467 159.727 28.2308C159.373 27.9947 158.948 27.8294 158.5 27.7822C157.579 27.6877 156.799 27.8294 156.138 28.2308C155.501 28.6323 155.052 29.1518 154.792 29.7894C154.532 30.4269 154.462 31.1353 154.532 31.891C154.603 32.5994 154.839 33.2842 155.241 33.8745Z" fill="white"/>
<path d="M181.995 27.7112C182.704 27.7112 183.341 27.8529 183.861 28.1599C184.404 28.4668 184.782 28.8683 185.018 29.3405C185.254 29.8128 185.349 30.3323 185.325 30.8754C185.301 31.4186 185.089 31.9617 184.687 32.5048C184.286 33.0479 183.743 33.4966 183.058 33.8508C182.397 34.1814 181.641 34.3703 180.768 34.3939C179.917 34.4175 179.138 34.3703 178.453 34.2522V53.6628C178.453 54.7018 178.548 55.363 178.713 55.6227C178.784 55.7172 178.949 55.8353 179.233 55.977C179.516 56.1186 179.658 56.2603 179.658 56.4256C179.658 56.5909 179.587 56.709 179.469 56.8271C179.351 56.9451 179.185 56.9923 178.973 56.9923H172.692C172.574 56.9923 172.455 56.9687 172.337 56.9215C172.243 56.8743 172.149 56.8034 172.078 56.7326C172.007 56.6618 171.983 56.5673 171.983 56.4729C171.983 56.2603 172.149 56.095 172.455 55.977C172.762 55.8589 172.951 55.7644 172.999 55.7172C173.188 55.4575 173.282 54.7963 173.282 53.71V32.7409C172.314 32.4812 171.558 32.3395 171.015 32.2923C170.236 32.245 169.645 32.4812 169.22 33.0715C168.795 33.6383 168.725 34.2758 169.008 34.9606C169.291 35.6454 169.929 36.0705 170.921 36.2358C170.425 36.7553 169.882 37.1095 169.268 37.2748C168.654 37.4401 168.087 37.4165 167.567 37.2512C167.048 37.0859 166.576 36.8261 166.151 36.4955C165.726 36.1413 165.419 35.7163 165.206 35.1968C165.017 34.6773 164.97 34.1578 165.088 33.6619C165.301 32.6229 165.844 31.8908 166.694 31.4658C167.544 31.0407 168.654 30.8282 170 30.8046C170.472 30.8046 171.11 30.8518 171.936 30.9463C172.762 31.0407 173.542 31.1116 174.297 31.206C175.053 31.2769 175.856 31.3477 176.73 31.4186C177.603 31.4658 178.359 31.4658 179.044 31.3713C179.705 31.2769 180.319 31.1116 180.862 30.8754C181.405 30.6393 181.783 30.2615 181.972 29.7184C182.184 29.1516 182.184 28.4904 181.995 27.7112Z" fill="white"/>
<path d="M199.824 34.7011C201.335 37.1806 202.091 40.3212 202.091 44.123C202.091 46.2483 201.831 48.1846 201.312 49.9084C200.792 51.6322 200.084 53.0254 199.21 54.0881C198.336 55.1507 197.368 55.9536 196.282 56.4967C195.196 57.0398 194.062 57.2995 192.882 57.2759C191.725 57.2523 190.615 56.9453 189.529 56.355C188.466 55.7646 187.498 54.9382 186.648 53.8519C185.774 52.7657 185.113 51.3725 184.593 49.625C184.097 47.9012 183.861 45.9649 183.908 43.816C183.932 41.6672 184.192 39.7072 184.735 37.9598C185.254 36.2124 185.963 34.7955 186.813 33.7329C187.663 32.6467 188.608 31.8202 189.67 31.2535C190.733 30.6867 191.819 30.3798 192.953 30.3798C194.535 30.2617 195.928 30.6395 197.179 31.4896C198.431 32.3397 198.998 33.4496 198.856 34.7955C198.809 35.3623 198.573 35.8582 198.171 36.2832C197.746 36.7083 197.25 37.0152 196.707 37.2042C196.14 37.3931 195.55 37.3695 194.889 37.1806C194.228 36.9916 193.661 36.5902 193.165 35.9762C193.944 35.5512 194.464 34.9845 194.747 34.2761C195.031 33.5676 195.007 32.9773 194.724 32.4578C194.417 31.9619 193.944 31.7257 193.26 31.773C192.976 31.7966 192.693 31.891 192.433 32.0563C192.15 32.2216 191.866 32.4814 191.583 32.812C191.3 33.1426 191.063 33.544 190.851 34.0163C189.765 36.4485 189.245 39.8489 189.292 44.1939C189.34 47.9485 189.717 50.8294 190.449 52.8838C191.182 54.9382 192.032 55.9536 193 55.9536C193.968 55.9536 194.889 54.8673 195.645 52.6948C196.4 50.5224 196.778 47.5234 196.778 43.698C196.778 41.6672 196.66 39.8253 196.424 38.1959C196.99 38.1251 197.534 37.9362 198.03 37.6292C199.163 36.968 199.753 36.0471 199.871 34.89L199.824 34.7011Z" fill="white"/>
<path d="M231.938 60.5581C232.316 60.5109 232.552 60.629 232.623 60.9123C232.505 61.1485 232.293 61.2902 231.986 61.361C229.648 61.361 227.688 61.0777 226.035 60.4873C224.406 59.9206 222.965 59.0232 221.714 57.8189C220.958 57.1341 220.249 56.2368 219.565 55.1506C218.88 54.0643 218.29 53.0017 217.794 51.9863C217.274 50.9473 216.778 49.9319 216.235 48.9401C215.716 47.9483 215.102 47.051 214.417 46.2718C213.732 45.4925 212.976 44.9494 212.197 44.6424C211.819 44.5243 211.772 44.3118 212.032 44.0285C212.244 43.8159 212.528 43.6979 212.882 43.6506C214.015 43.5562 215.007 43.202 215.81 42.6116C216.637 42.0213 217.227 41.3129 217.581 40.51C217.935 39.7071 218.101 38.8098 218.101 37.8652C218.077 36.9207 217.912 36.0234 217.534 35.1733C217.18 34.3232 216.589 33.5911 215.81 32.9536C215.031 32.316 214.11 31.8909 213.047 31.702C211.607 31.4659 210.284 31.6784 209.104 32.3396C207.923 33.0008 207.356 33.8981 207.427 35.008C207.474 35.7872 208.041 36.472 209.127 37.0387C208.679 37.6763 208.136 38.0778 207.474 38.3139C206.837 38.5264 206.223 38.55 205.656 38.4084C205.089 38.2667 204.57 37.9833 204.145 37.5583C203.696 37.1332 203.46 36.6373 203.389 36.0706C203.2 34.7954 203.578 33.7092 204.523 32.7646C205.467 31.8437 206.719 31.1825 208.277 30.8047C209.836 30.4033 211.512 30.2616 213.307 30.356C214.677 30.4269 215.928 30.663 217.109 31.0172C218.29 31.3714 219.281 31.8437 220.108 32.3868C220.934 32.9299 221.643 33.5675 222.209 34.2759C222.776 34.9844 223.178 35.7164 223.414 36.4484C223.65 37.204 223.673 37.9597 223.532 38.7389C223.39 39.5182 223.083 40.2502 222.611 40.935C222.139 41.6198 221.43 42.2574 220.509 42.8478C219.588 43.4381 218.478 43.9104 217.203 44.2646C217.51 44.4063 217.794 44.5479 218.053 44.7132C219.234 45.3036 220.226 46.2009 221.052 47.3816C221.643 48.2553 222.375 49.6958 223.248 51.6793C224.122 53.6629 224.878 55.127 225.468 56.0715C226.436 57.512 227.428 58.6218 228.443 59.3775C229.435 60.1095 230.592 60.5109 231.938 60.5581ZM211.654 55.4339C211.725 55.5284 211.89 55.6465 212.174 55.7881C212.457 55.9298 212.599 56.0715 212.599 56.2368C212.599 56.4021 212.528 56.5202 212.41 56.6382C212.292 56.7327 212.126 56.8035 211.914 56.8035H205.656C205.514 56.8035 205.396 56.7799 205.302 56.7327C205.184 56.6855 205.113 56.6146 205.042 56.5438C204.971 56.4729 204.948 56.3785 204.948 56.284C204.948 56.1187 205.019 56.0007 205.137 55.9062C205.278 55.8118 205.42 55.7409 205.585 55.6937C205.751 55.6465 205.869 55.5756 205.939 55.4812C206.128 55.245 206.223 54.5602 206.223 53.4504V43.1075C206.223 42.1157 206.058 41.4309 205.751 41.0531C205.703 41.0059 205.656 40.935 205.562 40.8878C205.491 40.8406 205.396 40.7934 205.326 40.7461C205.231 40.6989 205.184 40.6517 205.137 40.6044C204.782 40.3211 204.712 40.0141 204.948 39.6835C205.113 39.4474 205.349 39.4001 205.656 39.4946C206.27 39.778 206.908 39.8488 207.616 39.6599C208.324 39.471 208.915 39.2112 209.387 38.9042C209.859 38.5737 210.355 38.2431 210.851 37.8889C211.347 37.5346 211.701 37.3457 211.89 37.2985C212.292 37.2277 212.575 37.3221 212.717 37.6291C212.858 37.9125 212.74 38.1958 212.386 38.432C212.103 38.6209 211.914 38.7862 211.796 38.9515C211.725 39.0695 211.654 39.4001 211.607 39.9433C211.536 40.4864 211.489 41.0767 211.465 41.6671C211.418 42.2574 211.418 42.7297 211.418 43.0839V53.4268C211.394 54.4894 211.465 55.1506 211.654 55.4339Z" fill="white"/>
<path d="M234.56 33.544C234.914 33.5912 235.079 33.8037 235.103 34.1343C235.103 34.4649 234.961 34.6774 234.678 34.7719C233.804 35.0789 233.096 35.4803 232.576 35.9762C232.057 36.4721 231.702 37.1097 231.514 37.8889C231.443 38.1959 231.23 38.3612 230.829 38.3612C230.427 38.3612 230.191 38.1959 230.12 37.8889C229.813 36.5665 228.751 35.5275 226.932 34.7719C226.649 34.6538 226.507 34.4413 226.531 34.1343C226.531 33.8273 226.696 33.6148 227.003 33.544C228.562 33.1425 229.601 32.1035 230.144 30.4269C230.238 30.1436 230.451 29.9783 230.829 29.9783C231.207 29.9783 231.443 30.1199 231.537 30.4269C232.128 32.2688 233.167 33.3314 234.56 33.544ZM233.426 43.4854V53.5449C233.426 54.5603 233.521 55.1979 233.686 55.4812C233.757 55.5757 233.922 55.6937 234.206 55.8118C234.489 55.9535 234.631 56.0716 234.631 56.2369C234.631 56.4022 234.56 56.5202 234.442 56.6383C234.324 56.7328 234.158 56.8036 233.946 56.8036H227.688C227.499 56.8036 227.334 56.7564 227.192 56.6383C227.051 56.5202 226.98 56.4258 226.98 56.3077C226.98 56.1188 227.051 56.0007 227.169 55.9299C227.287 55.859 227.452 55.7882 227.617 55.7174C227.783 55.6701 227.901 55.5993 227.971 55.5048C228.16 55.2687 228.255 54.6075 228.255 53.5449V43.4854C228.255 42.5172 228.113 41.856 227.806 41.5254C227.735 41.4546 227.617 41.3601 227.452 41.2657C227.287 41.1712 227.192 41.1004 227.169 41.0768C226.791 40.7934 226.744 40.51 226.98 40.2031C227.169 39.9433 227.405 39.8961 227.688 40.0142C228.113 40.2031 229.176 40.2975 230.829 40.2975C232.505 40.2975 233.521 40.2031 233.922 40.0142C234.276 39.8252 234.536 39.8961 234.701 40.2267C234.89 40.5573 234.796 40.8406 234.418 41.0768C234.135 41.2657 233.946 41.431 233.828 41.5963C233.544 42.0213 233.426 42.6589 233.426 43.4854Z" fill="white"/>
<path d="M250.192 54.6312C250.334 54.6312 250.475 54.6784 250.593 54.7965C250.712 54.9145 250.782 55.0562 250.782 55.2451C250.782 55.5757 250.735 55.8591 250.664 56.048C250.593 56.2605 250.523 56.4022 250.452 56.5203C250.381 56.6147 250.239 56.7092 250.003 56.7564C249.791 56.8036 249.602 56.8273 249.46 56.8273C249.318 56.8273 249.082 56.8273 248.752 56.8037C248.421 56.78 248.161 56.78 247.996 56.78C246.933 56.7564 245.8 56.7564 244.596 56.7564C243.391 56.7564 242.045 56.7564 240.581 56.78C239.117 56.78 237.984 56.8037 237.181 56.8037C236.992 56.8037 236.827 56.7564 236.685 56.662C236.567 56.5675 236.496 56.4494 236.496 56.3078C236.472 56.0952 236.614 55.9299 236.921 55.8119C237.228 55.6938 237.417 55.5993 237.464 55.5521C237.653 55.316 237.748 54.6548 237.748 53.5922V33.8274C237.748 32.7411 237.653 32.1036 237.464 31.8674C237.417 31.8202 237.252 31.7257 236.921 31.6077C236.614 31.4896 236.472 31.3243 236.496 31.0882C236.496 30.9701 236.567 30.852 236.685 30.7576C236.803 30.6395 236.968 30.5923 237.181 30.5923C237.889 30.5923 238.787 30.5923 239.849 30.6159C240.912 30.6159 241.833 30.6395 242.636 30.6395C243.415 30.6395 244.312 30.6631 245.304 30.6631C246.296 30.6631 247.193 30.6395 248.02 30.6159H249.177C249.295 30.6159 249.436 30.6159 249.625 30.6395C249.814 30.6631 249.956 30.6867 250.05 30.734C250.145 30.7812 250.239 30.8284 250.357 30.8993C250.475 30.9701 250.546 31.0646 250.593 31.1826C250.641 31.3007 250.688 31.4424 250.712 31.5841C250.759 31.7494 250.782 31.9383 250.782 32.1744C250.782 32.3161 250.759 32.4342 250.712 32.5286C250.664 32.6231 250.593 32.6939 250.499 32.7412C250.405 32.7884 250.31 32.7884 250.216 32.7884C250.027 32.7884 249.861 32.6703 249.72 32.4106C249.578 32.1508 249.46 32.0091 249.342 31.9383C249.035 31.773 248.326 31.7021 247.217 31.7021H242.943V42.1158C244.029 41.3602 245.209 41.0532 246.508 41.1949C247.807 41.3366 248.728 41.8325 249.295 42.659C249.838 43.4146 249.909 44.2647 249.507 45.1856C249.106 46.1066 248.397 46.6261 247.382 46.7442C246.981 46.7914 246.555 46.7678 246.154 46.6497C245.753 46.5316 245.398 46.3191 245.091 46.0121C244.784 45.7288 244.643 45.3746 244.643 45.0204C244.973 45.044 245.28 44.9967 245.564 44.8787C245.847 44.7606 246.083 44.6189 246.225 44.43C246.367 44.2411 246.485 44.0286 246.532 43.816C246.579 43.6035 246.555 43.391 246.437 43.1785C246.319 42.9659 246.13 42.8006 245.871 42.6826C245.493 42.4937 245.044 42.4937 244.477 42.6826C243.934 42.8479 243.557 43.1785 243.368 43.698C243.155 44.2175 243.037 44.9495 242.966 45.8941V55.8119H247.24C248.35 55.8119 249.082 55.741 249.366 55.5757C249.484 55.5285 249.554 55.4104 249.649 55.2924C249.72 55.1507 249.814 55.0326 249.885 54.9145C249.909 54.702 250.05 54.6312 250.192 54.6312Z" fill="white"/>
<path d="M262.59 37.3457C263.133 37.1568 263.534 36.8735 263.841 36.4956C264.125 36.1178 264.29 35.74 264.337 35.3386C264.408 34.2051 264.077 33.2842 263.369 32.5994C262.661 31.9146 261.787 31.5604 260.795 31.5604C259.685 31.5604 258.788 31.8909 258.08 32.5757C257.371 33.2606 256.97 34.087 256.922 35.0552C256.875 35.9761 257.135 36.8735 257.678 37.7708C258.221 38.6681 258.953 39.4946 259.851 40.2502C260.748 41.0059 261.669 41.7379 262.613 42.4463C263.558 43.1547 264.479 43.9576 265.353 44.8077C266.226 45.6578 266.84 46.5079 267.171 47.3344C267.572 48.3262 267.761 49.2707 267.738 50.1681C267.714 51.0654 267.454 51.9391 267.006 52.742C266.557 53.5448 265.99 54.2533 265.305 54.8436C264.621 55.4339 263.818 55.9298 262.897 56.3077C261.976 56.6855 261.031 56.898 260.039 56.9452C258.292 57.0397 256.686 56.7091 255.222 55.9535C254.585 55.6229 254.018 55.1506 253.569 54.5602C253.097 53.9699 252.837 53.3323 252.719 52.6711C252.625 52.0099 252.814 51.396 253.31 50.8056C253.735 50.3334 254.301 50.0264 255.01 49.8611C255.718 49.6958 256.427 49.7902 257.135 50.0736C257.843 50.3806 258.339 50.9001 258.623 51.6085C258.245 51.6321 257.938 51.703 257.631 51.821C257.347 51.9391 257.088 52.1044 256.899 52.2697C256.71 52.4586 256.568 52.6475 256.474 52.8837C256.143 53.7101 256.379 54.4186 257.135 55.0089C257.891 55.5992 258.788 55.8118 259.803 55.6465C260.677 55.5048 261.433 55.0089 262.023 54.1352C262.613 53.2615 262.92 52.2933 262.92 51.2071C262.92 50.5459 262.613 49.7902 261.976 48.9637C261.338 48.1373 260.559 47.3344 259.614 46.5315C258.67 45.7287 257.702 44.9258 256.734 44.1229C255.765 43.32 254.844 42.4936 253.994 41.6198C253.144 40.7461 252.554 39.9669 252.247 39.2585C251.657 38.0069 251.515 36.7082 251.798 35.3858C252.082 34.0634 252.837 32.9536 254.018 32.0562C254.797 31.4659 255.718 31.0172 256.804 30.7102C257.891 30.4033 258.977 30.238 260.063 30.2144C261.173 30.1908 262.236 30.3088 263.298 30.5922C264.361 30.8519 265.305 31.2298 266.085 31.7256C266.887 32.2215 267.501 32.8591 267.903 33.6856C268.328 34.4885 268.47 35.3858 268.352 36.3776C268.257 36.9207 267.997 37.4166 267.572 37.818C267.147 38.2195 266.628 38.5028 266.061 38.6445C265.494 38.7862 264.88 38.7626 264.219 38.55C263.605 38.3611 263.038 37.9597 262.59 37.3457Z" fill="white"/>
</svg>
