<svg width="304" height="65" viewBox="0 0 304 65" fill="none" xmlns="http://www.w3.org/2000/svg">
<g clip-path="url(#clip0_0_234)">
<path d="M156.378 36.8568C157.625 43.9541 154.173 45.5176 149.184 48.9784H152.864C156.079 46.6858 157.572 45.2277 158.653 41.7054C158.468 45.0433 157.194 46.5453 154.111 48.9784H167.331C164.863 47.696 163.457 46.8703 160.523 43.7345C161.841 40.019 161.173 37.9284 158.336 34.1865C156.948 35.6007 156.79 36.0223 156.378 36.8568Z" fill="white"/>
<path d="M170.616 31.1474C165.425 30.3744 162.825 30.7258 159.039 33.5717L160.761 36.6988C160.761 32.79 165.416 31.2967 170.309 32.3157L170.616 31.1474Z" fill="white"/>
<path d="M143.158 31.1471L143.782 32.3241C143.782 32.3241 149.553 30.9187 152.856 35.2228C156.158 39.5268 153.321 45.5525 153.321 45.5525C155.306 42.8822 156.676 41.4241 155.974 37.4539C155.886 36.9708 155.939 36.4701 156.193 36.0572C156.826 35.0295 158.284 33.0093 160.752 31.5512C164.195 29.5133 169.668 30.3741 169.668 30.3741V29.1971C168.034 28.8721 167.041 28.714 164.266 28.6525C165.592 27.1768 165.768 25.7714 165.908 23.1012H164.731C164.608 24.7876 164.468 25.8417 163.8 26.9309C163.431 27.537 162.825 27.941 162.184 28.2309C159.364 29.5045 159.03 29.9174 158.161 30.6903C158.565 28.4066 158.53 27.1417 156.984 24.9018C154.99 22.1262 154.094 20.5363 153.303 17.5498H152.311C152.82 23.6106 155.447 23.6018 156.237 27.7126C156.36 28.3363 156.351 28.9775 156.246 29.5924C155.956 31.1647 155.394 32.2802 154.27 34.0457C150.888 30.9363 148.428 30.3566 143.158 31.1471Z" fill="white"/>
<path d="M145.811 28.2486C144.933 26.7465 144.897 25.429 145.266 22.6182H146.443C146.18 25.0074 146.171 26.2986 147.383 28.2486H145.811Z" fill="white"/>
<path d="M148.393 21.8364H147.374C146.294 24.7087 146.645 26.1756 148.393 28.6439C144.511 28.6175 143.308 29.004 141.665 29.8912L141.981 31.1472C147.726 29.5222 150.37 30.102 154.261 33.2553L155.438 31.1472C152.618 28.5385 150.95 29.0391 149.272 27.1682C148.868 26.7202 148.578 26.1756 148.411 25.5959C147.998 24.1553 148.174 23.031 148.393 21.8364Z" fill="white"/>
<path d="M156.378 23.0924C154.243 20.3694 153.848 18.885 153.874 16.285L154.814 15.9688C155.332 18.9728 156.22 20.5187 158.574 23.0836C158.67 21.5728 159.101 20.6417 161.235 18.8586L162.017 19.8775C161.024 20.4573 160.506 21.0721 160.049 22.4248C159.821 23.11 159.821 23.839 159.97 24.5417L160.761 28.2485L158.881 29.4255C158.705 26.5269 158.152 25.1566 156.378 23.0924Z" fill="white"/>
<path d="M165.372 28.2486C166.338 25.9824 166.426 24.4979 166.549 21.8364L167.647 22.1526C167.673 24.331 167.832 25.4553 166.944 28.2574H165.372V28.2486Z" fill="white"/>
<path d="M143.57 49.4793C146.144 50.261 151.713 51.2009 155.147 47.0549L153.812 45.8516C153.812 45.8516 151.581 47.336 150.606 48.109C148.832 49.5144 147.04 48.961 143.878 48.3022L143.57 49.4793Z" fill="white"/>
<path d="M170.397 48.3021L171.02 49.4791C165.741 50.2697 163.282 49.6899 159.909 46.5805C159.461 47.2832 159.101 47.8893 158.811 48.4602L159.909 47.3622C163.8 50.5156 166.444 51.1041 172.188 49.4791L172.505 50.7264C170.862 51.6136 169.659 52.0001 165.776 51.9737C167.515 54.4332 167.876 55.9089 166.795 58.7812H165.776C165.996 57.5866 166.18 56.4622 165.767 55.0217C165.601 54.442 165.311 53.8974 164.907 53.4494C163.185 51.5609 161.121 51.7014 158.415 49.3298C158.205 49.8744 158.047 50.419 157.932 51.0339C157.818 51.6575 157.818 52.2987 157.941 52.9136C158.732 57.0244 161.358 57.0156 161.867 63.0852H160.849C160.058 60.0987 159.171 58.5001 157.168 55.7332C155.631 53.4933 155.587 52.2197 155.991 49.9447C155.122 50.7176 154.788 51.1305 151.968 52.4041C151.327 52.694 150.721 53.098 150.352 53.7041C149.684 54.7933 149.553 55.8474 149.421 57.5339H148.244C148.384 54.8636 148.56 53.4582 149.886 51.9825C147.111 51.921 146.127 51.7541 144.484 51.4379V50.2609C144.484 50.2609 150.132 51.3501 153.576 49.321C154.226 48.9345 157.142 46.4312 158.688 45.0785C159.294 44.5514 159.566 43.7345 159.338 42.9616C158.398 39.7818 157.458 40.0366 159.347 37.498C159.347 37.498 157.985 41.1082 161.297 45.4122C164.634 49.7163 170.397 48.3021 170.397 48.3021Z" fill="white"/>
<path d="M168.367 52.3691C169.246 53.8712 169.281 55.1975 168.912 57.9995H167.735C167.998 55.6104 168.007 54.3191 166.795 52.3691H168.367Z" fill="white"/>
<path d="M157.8 57.5338C159.935 60.2568 160.33 61.7412 160.304 64.3412L159.364 64.6574C158.846 61.6534 157.95 60.1074 155.604 57.5426C155.508 59.0534 155.077 59.9845 152.943 61.7676L152.161 60.7487C153.154 60.1689 153.672 59.5541 154.129 58.2014C154.357 57.5162 154.357 56.7872 154.208 56.0845L153.417 52.3777L155.297 51.2007C155.473 54.0905 156.026 55.4696 157.8 57.5338Z" fill="white"/>
<path d="M148.805 52.3691C147.839 54.6354 147.751 56.1198 147.628 58.7813L146.53 58.4651C146.504 56.2867 146.346 55.1624 147.233 52.3604H148.805V52.3691Z" fill="white"/>
<path d="M148.92 38.9032C147.699 36.4437 147.752 35.8113 149.315 33.8788C147.04 34.8802 146.416 34.766 144.361 32.939C145.582 35.3984 145.529 36.0309 143.966 37.9633C146.241 36.9619 146.864 37.0849 148.92 38.9032Z" fill="white"/>
<path d="M138.325 35.9493C139.508 33.4716 140.039 33.1231 142.524 33.1625C140.333 31.9889 140.039 31.4275 140.21 28.6828C139.026 31.1605 138.496 31.509 136.01 31.4696C138.201 32.6432 138.489 33.21 138.325 35.9493Z" fill="white"/>
<path d="M142.952 27.6423C142.2 25.5448 142.304 25.0342 143.746 23.6266C141.814 24.22 141.324 24.0613 139.84 22.3984C140.592 24.496 140.489 25.0066 139.047 26.4142C140.979 25.8208 141.476 25.9726 142.952 27.6423Z" fill="white"/>
<path d="M144.985 21.8715C144.028 19.2012 144.16 18.5512 145.995 16.7593C143.536 17.5147 142.912 17.3127 141.024 15.1958C141.981 17.8661 141.849 18.5161 140.014 20.308C142.464 19.5526 143.097 19.7546 144.985 21.8715Z" fill="white"/>
<path d="M138.994 19.5438C138.037 16.8736 138.168 16.2236 140.004 14.4317C137.545 15.1871 136.921 14.9851 135.033 12.8682C135.99 15.5384 135.858 16.1884 134.022 17.9803C136.482 17.2249 137.106 17.4182 138.994 19.5438Z" fill="white"/>
<path d="M135.493 18.7688C133.956 21.1603 133.367 21.4567 130.826 21.0877C132.921 22.5742 133.151 23.1883 132.621 25.9864C134.158 23.5949 134.746 23.2984 137.288 23.6675C135.193 22.1809 134.958 21.5591 135.493 18.7688Z" fill="white"/>
<path d="M184.503 20.2465C182.017 21.6255 181.359 21.608 179.294 20.0796C180.436 22.3809 180.349 23.0309 178.557 25.2445C181.042 23.8654 181.701 23.883 183.765 25.4113C182.624 23.11 182.72 22.4512 184.503 20.2465Z" fill="white"/>
<path d="M145.249 15.1962C144.292 12.5259 144.423 11.8759 146.259 10.084C143.8 10.8394 143.176 10.6374 141.287 8.52051C142.245 11.1908 142.113 11.8408 140.277 13.6327C142.737 12.8773 143.36 13.0793 145.249 15.1962Z" fill="white"/>
<path d="M149.377 9.31093C148.419 6.64066 148.551 5.99066 150.387 4.19877C147.928 4.95417 147.304 4.75215 145.415 2.63525C146.373 5.30552 146.241 5.95552 144.405 7.74742C146.856 6.99201 147.488 7.19404 149.377 9.31093Z" fill="white"/>
<path d="M165.908 9.99599C164.951 7.32572 165.082 6.67572 166.918 4.88383C164.459 5.63923 163.835 5.4372 161.947 3.32031C162.904 5.99058 162.772 6.64058 160.937 8.43247C163.396 7.67707 164.02 7.8791 165.908 9.99599Z" fill="white"/>
<path d="M173.093 13.6151C172.135 10.9449 172.267 10.2949 174.103 8.50297C171.643 9.25837 171.02 9.05634 169.131 6.93945C170.089 9.60972 169.957 10.2597 168.121 12.0516C170.572 11.2962 171.204 11.4982 173.093 13.6151Z" fill="white"/>
<path d="M180.426 18.6535C178.427 16.6405 178.271 15.9959 179.174 13.595C177.267 15.3213 176.616 15.4026 174.009 14.2854C176.007 16.2984 176.163 16.943 175.26 19.3439C177.16 17.6213 177.818 17.5363 180.426 18.6535Z" fill="white"/>
<path d="M178.633 26.5407C177.248 24.0652 177.27 23.4024 178.785 21.3319C176.484 22.4831 175.835 22.3869 173.623 20.611C175.009 23.0864 174.986 23.7493 173.471 25.8198C175.772 24.6685 176.421 24.7648 178.633 26.5407Z" fill="white"/>
<path d="M177.248 34.4061C176.291 31.7359 176.422 31.0859 178.258 29.294C175.799 30.0494 175.175 29.8474 173.287 27.7305C174.244 30.4007 174.112 31.0507 172.276 32.8426C174.736 32.0872 175.359 32.2893 177.248 34.4061Z" fill="white"/>
<path d="M170.915 39.2548C169.958 36.5845 170.089 35.9345 171.925 34.1426C169.466 34.898 168.842 34.696 166.953 32.5791C167.911 35.2494 167.779 35.8994 165.943 37.6913C168.403 36.9359 169.026 37.1379 170.915 39.2548Z" fill="white"/>
<path d="M168.718 20.9669C166.312 19.4561 166.013 18.8676 166.355 16.3203C164.889 18.4284 164.274 18.6656 161.48 18.1649C163.887 19.6757 164.186 20.2642 163.843 22.8115C165.31 20.7034 165.925 20.4663 168.718 20.9669Z" fill="white"/>
<path d="M162.605 17.3742C160.198 15.8633 159.9 15.2748 160.242 12.7275C158.775 14.8356 158.16 15.0728 155.367 14.5721C157.774 16.0829 158.073 16.6715 157.73 19.2188C159.188 17.1019 159.803 16.8735 162.605 17.3742Z" fill="white"/>
<path d="M154.7 14.2384C152.293 12.7276 151.994 12.1391 152.337 9.5918C150.87 11.6999 150.255 11.9371 147.462 11.4364C149.869 12.9472 150.167 13.5357 149.825 16.083C151.292 13.9749 151.907 13.7377 154.7 14.2384Z" fill="white"/>
<path d="M161.586 10.8742C159.18 9.36335 158.881 8.77484 159.224 6.22754C157.757 8.33565 157.142 8.57281 154.349 8.07213C156.755 9.58294 157.054 10.1715 156.711 12.7188C158.178 10.6106 158.793 10.3735 161.586 10.8742Z" fill="white"/>
<path d="M169.096 14.713C166.689 13.2022 166.391 12.6137 166.733 10.0664C165.267 12.1745 164.652 12.4117 161.858 11.911C164.265 13.4218 164.564 14.0103 164.221 16.5576C165.688 14.4407 166.303 14.2124 169.096 14.713Z" fill="white"/>
<path d="M174.393 20.0182C171.986 18.5074 171.688 17.9189 172.03 15.3716C170.563 17.4797 169.949 17.7169 167.155 17.2162C169.562 18.727 169.861 19.3155 169.518 21.8628C170.976 19.7547 171.591 19.5263 174.393 20.0182Z" fill="white"/>
<path d="M174.806 27.5372C172.399 26.0264 172.101 25.4379 172.435 22.8906C170.968 24.9987 170.353 25.2359 167.56 24.7352C169.966 26.246 170.265 26.8345 169.922 29.3818C171.398 27.2737 172.013 27.0366 174.806 27.5372Z" fill="white"/>
<path d="M158.319 6.22768C155.912 4.71686 155.613 4.12835 155.956 1.58105C154.489 3.68916 153.874 3.92632 151.081 3.42565C153.488 4.93646 153.786 5.52497 153.444 8.07227C154.902 5.95538 155.526 5.727 158.319 6.22768Z" fill="white"/>
<path d="M151.063 22.6092C150.141 19.9214 150.273 19.2802 152.135 17.5059C149.667 18.2349 149.043 18.0241 147.181 15.8809C148.103 18.5687 147.972 19.2099 146.109 20.9842C148.578 20.2552 149.201 20.466 151.063 22.6092Z" fill="white"/>
<path d="M22.8087 49.4392C23.4969 49.7478 23.9953 50.2224 24.3038 50.8157C24.6123 51.409 24.6835 52.0498 24.5174 52.7143C24.3513 53.3788 24.0428 54.0196 23.5919 54.6603C23.1409 55.2774 22.4527 55.7995 21.5034 56.2029C20.5779 56.6064 19.5336 56.82 18.347 56.82H6.3148C6.12494 56.82 5.95882 56.7725 5.81642 56.6776C5.69776 56.5826 5.62657 56.464 5.62657 56.3216C5.60283 56.108 5.74523 55.9419 6.05375 55.8232C6.36226 55.7046 6.55212 55.6096 6.59959 55.5622C6.78944 55.3011 6.88437 54.6366 6.88437 53.5924V30.3111C6.88437 29.2431 6.78944 28.5786 6.59959 28.3413C6.55212 28.2938 6.386 28.1989 6.05375 28.0802C5.74523 27.9616 5.60283 27.7955 5.62657 27.5819C5.62657 27.4395 5.69776 27.3208 5.81642 27.2259C5.93508 27.131 6.10121 27.0835 6.3148 27.0835H12.6038C12.8412 27.0835 13.031 27.131 13.1497 27.2259C13.2683 27.3208 13.3395 27.4632 13.3395 27.6056C13.3158 27.7717 13.1734 27.9141 12.9124 28.0565C12.6513 28.1989 12.4852 28.3176 12.414 28.4125C12.2479 28.6735 12.1529 29.3143 12.1529 30.3585V53.5924C12.1529 53.9958 12.1767 54.3044 12.2004 54.5179C12.2241 54.7078 12.3191 54.9214 12.4852 55.135C12.6513 55.3486 12.9124 55.491 13.2683 55.5622C13.6481 55.6334 14.1227 55.6571 14.7635 55.6571H16.4485C20.2693 55.6571 22.2629 54.779 22.3815 52.9991C22.429 52.477 22.1442 52.1685 21.5746 52.121C20.9576 52.0735 20.4355 52.2871 20.0558 52.8092C19.9371 53.0228 19.8184 53.2601 19.771 53.4975C19.1539 53.3076 18.7268 52.9279 18.4657 52.2871C18.2046 51.6701 18.2046 51.1005 18.4657 50.6259C18.703 50.1037 19.0827 49.724 19.6048 49.463C20.127 49.2019 20.6728 49.0833 21.2186 49.107C21.7645 49.0833 22.3103 49.2019 22.8087 49.4392Z" fill="white"/>
<path d="M29.1453 46.9709C29.5962 46.5674 30.1895 46.2589 30.8778 46.0453C31.5897 45.8555 32.278 45.7843 32.9662 45.8555C33.6544 45.9267 34.2715 46.164 34.841 46.5437C35.3869 46.9472 35.7429 47.4693 35.8853 48.1338C35.9802 48.5135 35.9802 48.8932 35.909 49.2729C35.8378 49.6764 35.7191 50.0323 35.5293 50.3646C35.3631 50.6968 35.1021 50.9816 34.7461 51.2189C34.3901 51.4563 33.9867 51.5987 33.512 51.6224C32.895 51.6936 32.3254 51.5512 31.7321 51.1715C31.1625 50.7918 30.854 50.3171 30.8303 49.7238C31.3999 49.7713 31.8508 49.6289 32.2305 49.3204C32.6102 49.0119 32.7763 48.6559 32.7763 48.2524C32.7526 47.849 32.539 47.5405 32.1118 47.3269C31.7321 47.137 31.2575 47.137 30.6879 47.3269C30.3082 47.4693 29.9285 47.6828 29.6199 48.0151C29.2877 48.3236 29.0266 48.6796 28.813 49.0356C28.5995 49.3916 28.3859 49.8662 28.1723 50.4595C27.9587 51.0528 27.7926 51.5275 27.6739 51.9072C27.5552 52.2869 27.4366 52.809 27.2705 53.4261C27.1043 54.0668 26.9857 54.494 26.9382 54.7313C26.8433 55.2534 26.9145 55.5857 27.1043 55.7043C27.1755 55.7518 27.2467 55.7755 27.3179 55.823C27.3891 55.8705 27.4603 55.8942 27.5078 55.9179C27.5552 55.9417 27.6027 55.9654 27.6264 56.0129C27.6739 56.0603 27.6976 56.0841 27.7214 56.1315C27.7451 56.179 27.7451 56.2027 27.7451 56.2502C27.7451 56.4163 27.6976 56.535 27.579 56.6536C27.4603 56.7723 27.3179 56.8435 27.0806 56.8435H24.7786C24.565 56.8435 24.3989 56.7723 24.2565 56.6536C24.1378 56.535 24.0903 56.3688 24.1853 56.179C24.2565 55.9891 24.4701 55.8467 24.7786 55.7281C24.8972 55.6806 24.9922 55.6331 25.0634 55.5382C25.1583 55.4433 25.2295 55.3246 25.3007 55.1585C25.3719 54.9924 25.4193 54.8737 25.4668 54.7788C25.4905 54.6839 25.5617 54.5177 25.6329 54.3279C25.7041 54.1143 25.7516 54.0194 25.7516 53.9956L25.8228 53.8532L31.2812 34.6064C31.6609 35.0098 31.9694 35.5082 32.2305 36.1015L29.1453 46.9709ZM45.7816 56.2976C45.8053 56.44 45.7579 56.5587 45.6629 56.6774C45.568 56.796 45.4019 56.8435 45.1883 56.8435H39.1128C38.923 56.8435 38.7568 56.796 38.6145 56.7011C38.4721 56.6062 38.4009 56.4875 38.4009 56.3451C38.3771 56.1553 38.4246 55.9891 38.5195 55.8942C38.6382 55.7993 38.7331 55.7043 38.8518 55.6806C38.9704 55.6332 39.0654 55.5382 39.1603 55.3958C39.2552 55.2534 39.279 55.0398 39.2315 54.7788C39.2078 54.6127 39.1603 54.3753 39.0416 54.0668C38.9467 53.7583 38.8755 53.5684 38.8518 53.5447C38.6382 52.8328 38.0686 50.9104 37.1905 47.7303C36.2887 44.5739 35.553 42.1532 35.0072 40.4683C34.58 39.1392 34.1291 38.0001 33.7019 37.0034C33.251 36.0066 32.7526 35.1048 32.183 34.2741C31.6134 33.4435 30.9727 32.8265 30.2607 32.423C29.5487 32.0196 28.813 31.806 28.0062 31.8297C27.6027 31.8772 27.3654 31.7823 27.3179 31.5687C27.2705 31.3551 27.4366 31.1652 27.8638 30.9516C30.3794 29.8362 32.7051 29.9074 34.841 31.094C36.9532 32.3044 38.8755 35.7218 40.5605 41.3701C40.9877 42.8652 41.6047 45.0011 42.3879 47.7778C43.171 50.5544 43.7169 52.453 44.0017 53.4972C44.3577 54.7788 44.7611 55.5382 45.2595 55.7755C45.5917 55.9654 45.7579 56.1315 45.7816 56.2976Z" fill="white"/>
<path d="M59.404 27.5815C60.116 27.5815 60.7568 27.7239 61.2789 28.0325C61.8247 28.341 62.2044 28.7444 62.4418 29.2191C62.6791 29.6937 62.774 30.2158 62.7503 30.7617C62.7265 31.3075 62.513 31.8533 62.1095 32.3992C61.7061 32.945 61.1602 33.3959 60.472 33.7519C59.8075 34.0842 59.048 34.274 58.1937 34.2978C57.3393 34.3215 56.5562 34.274 55.8679 34.1554V53.687C55.8679 54.7312 55.9629 55.3957 56.129 55.6805C56.2002 55.7754 56.3663 55.8941 56.6511 56.0365C56.9359 56.1789 57.0783 56.3213 57.0783 56.4874C57.0783 56.6535 57.0071 56.7722 56.8884 56.8908C56.7698 57.0095 56.6036 57.057 56.39 57.057H50.101C49.9823 57.057 49.8637 57.0332 49.745 56.9858C49.6264 56.9383 49.5552 56.8671 49.484 56.7959C49.4128 56.7247 49.389 56.6298 49.389 56.5349C49.389 56.3213 49.5552 56.1551 49.8637 56.0365C50.1722 55.9178 50.3621 55.8229 50.4095 55.7754C50.5994 55.5144 50.6943 54.8499 50.6943 53.7582V32.684C49.7213 32.4229 48.9619 32.2805 48.416 32.2331C47.6329 32.1856 47.0395 32.4229 46.6124 33.0162C46.1852 33.5858 46.114 34.2266 46.3988 34.9148C46.6836 35.603 47.3243 36.0302 48.3211 36.1963C47.8227 36.7184 47.2769 37.0744 46.6598 37.2406C46.0428 37.4067 45.4732 37.3829 44.9511 37.2168C44.429 37.0507 43.9544 36.7897 43.5272 36.4574C43.1 36.1014 42.7915 35.6742 42.5779 35.1521C42.388 34.63 42.3406 34.1079 42.4592 33.6095C42.6728 32.5653 43.2187 31.8296 44.073 31.4024C44.9274 30.9752 46.0428 30.7617 47.3955 30.7379C47.8702 30.7379 48.5109 30.7854 49.3416 30.8803C50.1722 30.9753 50.9554 31.0464 51.7148 31.1414C52.4742 31.2126 53.2811 31.2838 54.1592 31.355C55.0373 31.4024 55.8205 31.4024 56.485 31.3075C57.1495 31.2126 57.7665 31.0464 58.3124 30.8091C58.8582 30.5718 59.2379 30.1921 59.4278 29.6462C59.5939 29.0292 59.5939 28.3647 59.404 27.5815Z" fill="white"/>
<path d="M80.9291 27.9377C81.7835 29.3142 81.9971 31.2839 81.6174 33.8233C81.2851 35.9117 80.4308 38.9257 79.0068 42.8415C77.5829 46.7811 76.3488 49.9137 75.2571 52.2158C73.9993 54.945 72.6703 56.7486 71.2227 57.6742C71.2464 56.5825 70.9379 55.1823 70.2734 53.4736C69.6326 51.7648 68.8969 50.1511 68.09 48.6322C67.2831 47.1133 66.3576 45.4046 65.3371 43.4823C64.3166 41.5837 63.5809 40.0649 63.13 38.9495C61.9434 36.0779 62.2756 33.7758 64.1742 32.0908C65.5269 30.8805 67.3306 30.2397 69.5614 30.2397C71.6736 30.2397 73.3111 30.7856 74.474 31.901C75.0198 32.4468 75.3521 33.0876 75.5182 33.7996C75.7793 34.9624 75.4707 35.8405 74.6164 36.4576C73.762 37.0746 72.7415 37.1458 71.5549 36.6949C72.0058 36.1728 72.2906 35.6269 72.3855 35.0099C72.4805 34.3929 72.433 33.847 72.1957 33.3724C71.9821 32.8977 71.6736 32.4706 71.2701 32.1383C70.8667 31.7823 70.4395 31.6162 69.9886 31.5925C69.1342 31.5213 68.4935 31.6637 68.0188 32.0434C67.5442 32.4231 67.2831 32.9452 67.2357 33.586C67.1882 34.2267 67.2119 34.8675 67.3306 35.532C67.4492 36.1728 67.6391 36.7898 67.9002 37.3357C68.3273 38.2375 68.9681 39.4241 69.8225 40.9192C70.6768 42.3906 71.3888 43.6722 72.0058 44.7164C72.6229 45.7606 73.145 46.9235 73.5722 48.1338C74.0231 49.3679 74.2129 50.4121 74.1655 51.2902C74.8537 49.9375 75.9691 47.0659 77.5354 42.6517C79.078 38.2375 79.9799 35.176 80.2409 33.4673C80.5969 31.0941 80.2409 29.504 79.2442 28.7446C78.8882 28.4835 78.4847 28.3411 78.0101 28.3411C77.2507 27.9852 76.9659 27.5342 77.1557 26.9409C77.3218 26.4426 77.7253 26.1815 78.3661 26.1815C79.2916 26.1103 80.146 26.7036 80.9291 27.9377Z" fill="white"/>
<path d="M90.5644 33.4673C90.9204 33.5148 91.0865 33.7284 91.1102 34.0607C91.1102 34.3929 90.9678 34.6065 90.683 34.7014C89.8049 35.0099 89.093 35.4134 88.5709 35.9118C88.0488 36.4101 87.6928 37.0509 87.5029 37.8341C87.4317 38.1426 87.1944 38.3087 86.8147 38.3087C86.4112 38.3087 86.1739 38.1426 86.1265 37.8341C85.8179 36.5288 84.75 35.4609 82.9226 34.7014C82.6378 34.5828 82.4954 34.3692 82.5192 34.0607C82.5192 33.7521 82.6853 33.5385 82.9938 33.4673C84.5601 33.0639 85.6043 32.0197 86.1502 30.3347C86.2451 30.0499 86.4587 29.8838 86.8384 29.8838C87.2181 29.8838 87.4555 30.0262 87.5504 30.3347C88.12 32.1858 89.1642 33.23 90.5644 33.4673ZM89.4252 43.4586V53.5685C89.4252 54.589 89.5202 55.2535 89.6863 55.5146C89.7575 55.6095 89.9236 55.7282 90.2084 55.8468C90.4932 55.9655 90.6356 56.1079 90.6356 56.274C90.6356 56.4401 90.5644 56.5588 90.4457 56.6775C90.3271 56.7961 90.1609 56.8436 89.9473 56.8436H83.6583C83.4684 56.8436 83.3023 56.7961 83.1599 56.6775C83.0175 56.5825 82.9463 56.4639 82.9463 56.3452C82.9463 56.1554 83.0175 56.0367 83.1362 55.9655C83.2549 55.8943 83.421 55.8231 83.5871 55.7519C83.7532 55.7044 83.8719 55.6332 83.9431 55.5383C84.1329 55.301 84.2279 54.6365 84.2279 53.5685V43.4586C84.2279 42.4856 84.0855 41.8448 83.777 41.4888C83.7058 41.4176 83.5871 41.3227 83.421 41.2278C83.2548 41.1329 83.1599 41.0617 83.1362 41.0379C82.7802 40.7531 82.709 40.4684 82.9463 40.1598C83.1362 39.8988 83.3735 39.8513 83.6583 39.97C84.0855 40.1598 85.1534 40.2548 86.8147 40.2548C88.4997 40.2548 89.5202 40.1598 89.9236 39.97C90.2796 39.7801 90.5406 39.8513 90.7068 40.1836C90.8966 40.5158 90.8017 40.8006 90.422 41.0379C90.1372 41.2278 89.9473 41.3939 89.8287 41.56C89.5676 41.9635 89.4252 42.6043 89.4252 43.4586Z" fill="white"/>
<path d="M96.5682 46.9709C97.0191 46.5674 97.6124 46.2589 98.3006 46.0453C99.0126 45.8555 99.7008 45.7843 100.389 45.8555C101.077 45.9267 101.694 46.164 102.264 46.5437C102.81 46.9472 103.166 47.4693 103.308 48.1338C103.403 48.5135 103.403 48.8932 103.332 49.2729C103.261 49.6764 103.142 50.0323 102.952 50.3646C102.762 50.6968 102.525 50.9816 102.169 51.2189C101.813 51.4563 101.41 51.5987 100.935 51.6224C100.318 51.6936 99.7483 51.5512 99.155 51.1715C98.5854 50.7918 98.2769 50.3171 98.2531 49.7238C98.8227 49.7713 99.2736 49.6289 99.6533 49.3204C100.033 49.0119 100.199 48.6559 100.199 48.2524C100.199 47.849 99.9619 47.5405 99.5347 47.3269C99.155 47.137 98.6803 47.137 98.1108 47.3269C97.731 47.4693 97.3751 47.6828 97.0428 48.0151C96.7105 48.3236 96.4495 48.6796 96.2359 49.0356C96.0223 49.3916 95.8087 49.8662 95.5951 50.4595C95.3815 51.0528 95.2154 51.5275 95.0968 51.9072C94.9781 52.2869 94.8594 52.809 94.6933 53.4261C94.5272 54.0668 94.4085 54.494 94.3611 54.7313C94.2661 55.2534 94.3373 55.5857 94.5272 55.7043C94.5984 55.7518 94.6696 55.7755 94.7408 55.823C94.812 55.8705 94.8832 55.8942 94.9306 55.9179C94.9781 55.9417 95.0256 55.9654 95.0493 56.0129C95.0968 56.0603 95.1205 56.0841 95.1442 56.1315C95.168 56.179 95.1679 56.2027 95.1679 56.2502C95.1679 56.4163 95.1205 56.535 95.0018 56.6536C94.8832 56.7723 94.7408 56.8435 94.5034 56.8435H92.2014C91.9878 56.8435 91.8217 56.7723 91.6793 56.6536C91.5607 56.535 91.5132 56.3688 91.6081 56.179C91.6793 55.9891 91.8929 55.8467 92.2014 55.7281C92.3201 55.6806 92.415 55.6331 92.4862 55.5382C92.5574 55.4433 92.6523 55.3246 92.7235 55.1585C92.7947 54.9924 92.8422 54.8737 92.8897 54.7788C92.9134 54.6839 92.9846 54.5177 93.0558 54.3279C93.127 54.1143 93.1744 54.0194 93.1744 53.9956L93.2456 53.8532L98.7041 34.6064C99.06 35.0098 99.3923 35.5082 99.6533 36.1015L96.5682 46.9709ZM113.228 56.2976C113.252 56.44 113.204 56.5587 113.11 56.6774C113.015 56.796 112.848 56.8435 112.635 56.8435H106.559C106.37 56.8435 106.203 56.796 106.061 56.7011C105.919 56.6062 105.847 56.4875 105.847 56.3451C105.824 56.1553 105.871 55.9891 105.966 55.8942C106.085 55.7993 106.18 55.7043 106.298 55.6806C106.417 55.6332 106.512 55.5382 106.607 55.3958C106.702 55.2534 106.726 55.0398 106.678 54.7788C106.654 54.6127 106.607 54.3753 106.488 54.0668C106.393 53.7583 106.322 53.5684 106.298 53.5447C106.085 52.8328 105.515 50.9104 104.637 47.7303C103.735 44.5739 103 42.1532 102.454 40.4683C102.027 39.1392 101.576 38.0001 101.148 37.0034C100.698 36.0066 100.199 35.1048 99.6296 34.2741C99.06 33.4435 98.4193 32.8265 97.7073 32.423C96.9953 32.0196 96.2596 31.806 95.4527 31.8297C95.0493 31.8772 94.812 31.7823 94.7645 31.5687C94.717 31.3551 94.8832 31.1652 95.3103 30.9516C97.826 29.8362 100.152 29.9074 102.288 31.094C104.4 32.3044 106.322 35.7218 108.007 41.3701C108.434 42.8652 109.051 45.0011 109.834 47.7778C110.618 50.5544 111.163 52.453 111.448 53.4972C111.804 54.7788 112.208 55.5382 112.706 55.7755C113.038 55.9654 113.204 56.1315 113.228 56.2976Z" fill="white"/>
<path d="M133.092 30.4531C133.306 30.4531 133.472 30.5006 133.615 30.6192C133.733 30.7379 133.804 30.8566 133.781 31.0227C133.781 31.1888 133.638 31.3312 133.353 31.4499C133.069 31.5685 132.903 31.6872 132.855 31.7821C132.689 32.0669 132.594 32.7077 132.594 33.7282V53.1174C132.618 54.3515 132.357 55.6093 131.787 56.8434C131.336 55.8466 130.411 54.5651 129.011 52.9987C127.61 51.4561 126.258 50.0559 124.929 48.8456C123.6 47.6353 121.962 46.1401 119.969 44.3602C117.975 42.5803 116.67 41.4174 116.076 40.8478C115.317 40.1359 114.747 39.4002 114.368 38.617C113.988 37.8338 113.774 37.0982 113.774 36.4099C113.774 35.7217 113.893 35.0572 114.13 34.3927C114.368 33.7282 114.747 33.1349 115.246 32.6365C115.744 32.1144 116.29 31.6635 116.955 31.2837C117.595 30.8803 118.284 30.5955 118.996 30.4057C119.707 30.2158 120.443 30.1209 121.226 30.1683C121.986 30.2158 122.721 30.3582 123.41 30.643C124.929 31.2838 125.807 32.233 126.068 33.5383C126.329 34.6775 126.02 35.5555 125.166 36.1489C124.312 36.7422 123.291 36.8371 122.104 36.3624C122.627 35.7929 122.911 35.1996 122.959 34.5825C123.006 33.9655 122.888 33.4196 122.603 32.945C122.318 32.4704 121.915 32.1144 121.416 31.8771C120.894 31.616 120.348 31.5211 119.779 31.5923C119.209 31.6635 118.734 31.8533 118.355 32.2093C117.975 32.5416 117.714 32.9687 117.595 33.5146C117.477 34.0367 117.572 34.63 117.928 35.2945C118.355 36.1726 118.972 36.9558 119.779 37.6203C122.745 40.1359 125.997 43.1736 129.509 46.7334C130.173 47.4454 130.743 48.1574 131.218 48.8931V33.7519C131.218 32.6602 131.123 32.0195 130.933 31.7821C130.862 31.7347 130.695 31.6397 130.387 31.5211C130.078 31.4024 129.936 31.2363 129.936 30.999C129.936 30.9278 129.96 30.8328 130.031 30.7617C130.102 30.6905 130.173 30.6192 130.292 30.5718C130.411 30.5243 130.529 30.5006 130.648 30.5006L133.092 30.4531ZM116.788 55.5144C116.86 55.6093 117.026 55.7279 117.311 55.8466C117.595 55.9653 117.738 56.1077 117.738 56.2738C117.738 56.4399 117.666 56.5586 117.548 56.6772C117.429 56.7959 117.263 56.8434 117.049 56.8434H114.558C114.368 56.8434 114.202 56.7959 114.059 56.6772C113.917 56.5823 113.846 56.4636 113.846 56.345C113.846 56.1077 114.012 55.9415 114.32 55.8229C114.629 55.7042 114.819 55.6093 114.866 55.5618C115.056 55.3245 115.151 54.66 115.151 53.592V41.1801C115.531 41.5598 116.005 41.9633 116.551 42.3904V53.592C116.527 54.5888 116.622 55.2296 116.788 55.5144Z" fill="white"/>
<path d="M187.241 33.8743C187.689 34.5355 188.303 35.2439 189.059 35.9995C189.815 36.7552 190.57 37.44 191.326 38.054C192.082 38.6679 192.908 39.3527 193.758 40.0611C194.608 40.7695 195.387 41.478 196.096 42.2336C196.804 42.9892 197.442 43.7449 198.009 44.5478C198.575 45.3506 198.977 46.2716 199.237 47.2634C199.496 48.2551 199.567 49.2705 199.473 50.3332C199.331 51.7972 198.717 53.0723 197.631 54.1586C196.545 55.2684 195.222 56.1185 193.664 56.6853C192.082 57.252 190.405 57.6062 188.587 57.7007C187.146 57.7715 185.753 57.7007 184.383 57.4409C183.014 57.1812 181.762 56.7561 180.629 56.1894C179.472 55.599 178.527 54.7962 177.772 53.7808C177.016 52.7654 176.567 51.6083 176.426 50.2859C176.307 49.3886 176.355 48.5385 176.567 47.7592C176.78 46.98 177.11 46.3188 177.559 45.7757C178.008 45.2326 178.527 44.7839 179.118 44.4061C179.708 44.0282 180.345 43.7685 181.03 43.674C181.715 43.5796 182.353 43.556 182.99 43.6504C183.604 43.7449 184.218 43.981 184.785 44.3588C185.352 44.7367 185.8 45.2326 186.131 45.8465C184.1 46.1063 182.66 47.0508 181.762 48.7038C180.936 50.1915 180.841 51.7027 181.479 53.2613C182.14 54.9142 183.439 55.9532 185.352 56.3783C186.296 56.5672 187.335 56.6144 188.445 56.4964C189.319 56.3783 190.145 56.1421 190.924 55.8116C191.68 55.481 192.365 55.0323 192.955 54.442C193.546 53.8752 193.947 53.1904 194.207 52.4348C194.443 51.6791 194.467 50.7818 194.278 49.7664C194.065 48.7274 193.616 47.6412 192.884 46.5077C192.412 45.7757 191.798 45.0436 191.019 44.2644C190.24 43.4851 189.484 42.8003 188.705 42.1391C187.925 41.478 187.123 40.8168 186.343 40.132C185.564 39.4472 184.832 38.7151 184.147 37.9123C183.462 37.1094 182.943 36.3065 182.542 35.5036C182.069 34.5119 181.904 33.5437 182.022 32.6464C182.14 31.7491 182.447 30.9226 182.919 30.1669C183.392 29.4113 184.029 28.7501 184.832 28.207C185.635 27.6639 186.509 27.2388 187.406 26.9318C188.327 26.6248 189.295 26.4832 190.287 26.5304C191.302 26.554 192.223 26.7665 193.097 27.1444C193.947 27.5458 194.632 28.0417 195.104 28.6793C195.576 29.3168 195.765 30.0252 195.694 30.7809C195.6 31.5365 195.246 32.056 194.632 32.4102C194.018 32.7408 193.191 32.7408 192.152 32.4102C192.459 32.1269 192.672 31.7963 192.79 31.4185C192.908 31.017 192.955 30.6392 192.908 30.2378C192.861 29.8363 192.743 29.4821 192.554 29.1279C192.365 28.7737 192.105 28.4667 191.727 28.2306C191.373 27.9944 190.948 27.8292 190.499 27.7819C189.578 27.6875 188.799 27.8292 188.138 28.2306C187.5 28.632 187.052 29.1515 186.792 29.7891C186.532 30.4267 186.461 31.1351 186.532 31.8907C186.603 32.5991 186.839 33.284 187.241 33.8743Z" fill="white"/>
<path d="M213.995 27.7109C214.704 27.7109 215.341 27.8526 215.861 28.1596C216.404 28.4666 216.782 28.868 217.018 29.3403C217.254 29.8126 217.348 30.3321 217.325 30.8752C217.301 31.4183 217.089 31.9614 216.687 32.5046C216.286 33.0477 215.743 33.4963 215.058 33.8505C214.397 34.1811 213.641 34.3701 212.767 34.3937C211.917 34.4173 211.138 34.37 210.453 34.252V53.6626C210.453 54.7016 210.548 55.3628 210.713 55.6225C210.784 55.717 210.949 55.835 211.233 55.9767C211.516 56.1184 211.658 56.2601 211.658 56.4254C211.658 56.5907 211.587 56.7087 211.469 56.8268C211.351 56.9449 211.185 56.9921 210.973 56.9921H204.691C204.573 56.9921 204.455 56.9685 204.337 56.9213C204.243 56.874 204.148 56.8032 204.077 56.7324C204.007 56.6615 203.983 56.5671 203.983 56.4726C203.983 56.2601 204.148 56.0948 204.455 55.9767C204.762 55.8586 204.951 55.7642 204.998 55.717C205.187 55.4572 205.282 54.796 205.282 53.7098V32.7407C204.314 32.4809 203.558 32.3393 203.015 32.292C202.236 32.2448 201.645 32.4809 201.22 33.0713C200.795 33.638 200.724 34.2756 201.008 34.9604C201.291 35.6452 201.929 36.0702 202.92 36.2355C202.425 36.755 201.881 37.1092 201.267 37.2745C200.653 37.4398 200.087 37.4162 199.567 37.2509C199.048 37.0856 198.575 36.8259 198.15 36.4953C197.725 36.1411 197.418 35.716 197.206 35.1965C197.017 34.677 196.97 34.1575 197.088 33.6616C197.3 32.6226 197.843 31.8906 198.694 31.4655C199.544 31.0405 200.653 30.828 201.999 30.8044C202.472 30.8044 203.109 30.8516 203.936 30.946C204.762 31.0405 205.542 31.1113 206.297 31.2058C207.053 31.2766 207.856 31.3475 208.729 31.4183C209.603 31.4655 210.359 31.4655 211.044 31.3711C211.705 31.2766 212.319 31.1113 212.862 30.8752C213.405 30.6391 213.783 30.2612 213.972 29.7181C214.184 29.1514 214.184 28.4902 213.995 27.7109Z" fill="white"/>
<path d="M231.824 34.7009C233.335 37.1803 234.091 40.3209 234.091 44.1228C234.091 46.248 233.831 48.1843 233.312 49.9082C232.792 51.632 232.084 53.0252 231.21 54.0878C230.336 55.1504 229.368 55.9533 228.282 56.4964C227.196 57.0395 226.062 57.2993 224.882 57.2757C223.724 57.2521 222.615 56.9451 221.528 56.3548C220.466 55.7644 219.498 54.9379 218.647 53.8517C217.774 52.7654 217.113 51.3722 216.593 49.6248C216.097 47.901 215.861 45.9647 215.908 43.8158C215.932 41.6669 216.192 39.707 216.735 37.9596C217.254 36.2121 217.963 34.7953 218.813 33.7327C219.663 32.6464 220.607 31.82 221.67 31.2532C222.733 30.6865 223.819 30.3795 224.952 30.3795C226.535 30.2615 227.928 30.6393 229.179 31.4894C230.431 32.3395 230.998 33.4493 230.856 34.7953C230.809 35.362 230.572 35.8579 230.171 36.283C229.746 36.708 229.25 37.015 228.707 37.2039C228.14 37.3928 227.55 37.3692 226.889 37.1803C226.228 36.9914 225.661 36.59 225.165 35.976C225.944 35.5509 226.464 34.9842 226.747 34.2758C227.03 33.5674 227.007 32.977 226.723 32.4575C226.416 31.9616 225.944 31.7255 225.259 31.7727C224.976 31.7963 224.693 31.8908 224.433 32.0561C224.149 32.2214 223.866 32.4812 223.583 32.8117C223.299 33.1423 223.063 33.5438 222.851 34.016C221.764 36.4483 221.245 39.8487 221.292 44.1936C221.339 47.9482 221.717 50.8291 222.449 52.8835C223.181 54.9379 224.031 55.9533 225 55.9533C225.968 55.9533 226.889 54.8671 227.644 52.6946C228.4 50.5221 228.778 47.5232 228.778 43.6977C228.778 41.6669 228.66 39.8251 228.424 38.1957C228.99 38.1249 229.533 37.9359 230.029 37.629C231.163 36.9678 231.753 36.0468 231.871 34.8898L231.824 34.7009Z" fill="white"/>
<path d="M263.938 60.5579C264.316 60.5107 264.552 60.6287 264.623 60.9121C264.505 61.1482 264.292 61.2899 263.985 61.3608C261.648 61.3608 259.688 61.0774 258.035 60.4871C256.405 59.9203 254.965 59.023 253.713 57.8187C252.958 57.1339 252.249 56.2366 251.565 55.1503C250.88 54.0641 250.289 53.0015 249.793 51.9861C249.274 50.9471 248.778 49.9317 248.235 48.9399C247.715 47.9481 247.102 47.0508 246.417 46.2715C245.732 45.4923 244.976 44.9491 244.197 44.6422C243.819 44.5241 243.772 44.3116 244.032 44.0282C244.244 43.8157 244.528 43.6976 244.882 43.6504C246.015 43.5559 247.007 43.2017 247.81 42.6114C248.636 42.021 249.227 41.3126 249.581 40.5097C249.935 39.7069 250.1 38.8095 250.1 37.865C250.077 36.9204 249.912 36.0231 249.534 35.173C249.18 34.3229 248.589 33.5909 247.81 32.9533C247.031 32.3157 246.11 31.8907 245.047 31.7018C243.607 31.4656 242.284 31.6782 241.104 32.3394C239.923 33.0005 239.356 33.8979 239.427 35.0077C239.474 35.787 240.041 36.4718 241.127 37.0385C240.679 37.6761 240.135 38.0775 239.474 38.3137C238.837 38.5262 238.223 38.5498 237.656 38.4081C237.089 38.2664 236.57 37.9831 236.145 37.558C235.696 37.133 235.46 36.6371 235.389 36.0703C235.2 34.7952 235.578 33.709 236.522 32.7644C237.467 31.8435 238.719 31.1823 240.277 30.8045C241.836 30.403 243.512 30.2613 245.307 30.3558C246.676 30.4266 247.928 30.6628 249.109 31.017C250.289 31.3712 251.281 31.8435 252.108 32.3866C252.934 32.9297 253.643 33.5673 254.209 34.2757C254.776 34.9841 255.177 35.7161 255.414 36.4482C255.65 37.2038 255.673 37.9594 255.532 38.7387C255.39 39.518 255.083 40.25 254.611 40.9348C254.138 41.6196 253.43 42.2572 252.509 42.8475C251.588 43.4379 250.478 43.9101 249.203 44.2643C249.51 44.406 249.793 44.5477 250.053 44.713C251.234 45.3033 252.226 46.2007 253.052 47.3814C253.643 48.2551 254.375 49.6955 255.248 51.6791C256.122 53.6626 256.878 55.1267 257.468 56.0713C258.436 57.5117 259.428 58.6216 260.443 59.3772C261.435 60.1092 262.592 60.5107 263.938 60.5579ZM243.654 55.4337C243.725 55.5281 243.89 55.6462 244.173 55.7879C244.457 55.9296 244.598 56.0713 244.598 56.2366C244.598 56.4019 244.528 56.5199 244.41 56.638C244.291 56.7324 244.126 56.8033 243.914 56.8033H237.656C237.514 56.8033 237.396 56.7797 237.302 56.7325C237.184 56.6852 237.113 56.6144 237.042 56.5435C236.971 56.4727 236.948 56.3782 236.948 56.2838C236.948 56.1185 237.018 56.0004 237.136 55.906C237.278 55.8115 237.42 55.7407 237.585 55.6934C237.75 55.6462 237.868 55.5754 237.939 55.4809C238.128 55.2448 238.223 54.56 238.223 53.4501V43.1073C238.223 42.1155 238.057 41.4307 237.75 41.0529C237.703 41.0056 237.656 40.9348 237.562 40.8876C237.491 40.8403 237.396 40.7931 237.325 40.7459C237.231 40.6987 237.184 40.6514 237.136 40.6042C236.782 40.3208 236.711 40.0138 236.948 39.6833C237.113 39.4471 237.349 39.3999 237.656 39.4943C238.27 39.7777 238.907 39.8486 239.616 39.6596C240.324 39.4707 240.915 39.211 241.387 38.904C241.859 38.5734 242.355 38.2428 242.851 37.8886C243.347 37.5344 243.701 37.3455 243.89 37.2983C244.291 37.2274 244.575 37.3219 244.716 37.6288C244.858 37.9122 244.74 38.1956 244.386 38.4317C244.103 38.6206 243.914 38.7859 243.796 38.9512C243.725 39.0693 243.654 39.3999 243.607 39.943C243.536 40.4861 243.489 41.0765 243.465 41.6668C243.418 42.2572 243.418 42.7294 243.418 43.0837V53.4265C243.394 54.4891 243.465 55.1503 243.654 55.4337Z" fill="white"/>
<path d="M266.56 33.5437C266.914 33.5909 267.079 33.8035 267.103 34.1341C267.103 34.4647 266.961 34.6772 266.678 34.7716C265.804 35.0786 265.096 35.48 264.576 35.9759C264.056 36.4718 263.702 37.1094 263.513 37.8887C263.443 38.1956 263.23 38.3609 262.829 38.3609C262.427 38.3609 262.191 38.1956 262.12 37.8887C261.813 36.5663 260.751 35.5273 258.932 34.7716C258.649 34.6536 258.507 34.441 258.531 34.1341C258.531 33.8271 258.696 33.6146 259.003 33.5437C260.562 33.1423 261.601 32.1033 262.144 30.4267C262.238 30.1433 262.451 29.978 262.829 29.978C263.206 29.978 263.443 30.1197 263.537 30.4267C264.127 32.2686 265.166 33.3312 266.56 33.5437ZM265.426 43.4852V53.5446C265.426 54.56 265.521 55.1976 265.686 55.481C265.757 55.5754 265.922 55.6935 266.205 55.8116C266.489 55.9532 266.63 56.0713 266.63 56.2366C266.63 56.4019 266.56 56.52 266.441 56.6381C266.323 56.7325 266.158 56.8034 265.946 56.8034H259.688C259.499 56.8034 259.334 56.7561 259.192 56.6381C259.05 56.52 258.98 56.4255 258.98 56.3075C258.98 56.1186 259.05 56.0005 259.168 55.9296C259.287 55.8588 259.452 55.788 259.617 55.7171C259.782 55.6699 259.9 55.599 259.971 55.5046C260.16 55.2685 260.255 54.6073 260.255 53.5446V43.4852C260.255 42.517 260.113 41.8558 259.806 41.5252C259.735 41.4543 259.617 41.3599 259.452 41.2654C259.287 41.171 259.192 41.1001 259.168 41.0765C258.791 40.7932 258.743 40.5098 258.98 40.2028C259.168 39.9431 259.405 39.8958 259.688 40.0139C260.113 40.2028 261.176 40.2973 262.829 40.2973C264.505 40.2973 265.521 40.2028 265.922 40.0139C266.276 39.825 266.536 39.8958 266.701 40.2264C266.89 40.557 266.796 40.8404 266.418 41.0765C266.135 41.2654 265.946 41.4307 265.828 41.596C265.544 42.0211 265.426 42.6587 265.426 43.4852Z" fill="white"/>
<path d="M282.192 54.6307C282.333 54.6307 282.475 54.6779 282.593 54.796C282.711 54.9141 282.782 55.0557 282.782 55.2447C282.782 55.5752 282.735 55.8586 282.664 56.0475C282.593 56.26 282.522 56.4017 282.451 56.5198C282.381 56.6143 282.239 56.7087 282.003 56.7559C281.79 56.8032 281.601 56.8268 281.46 56.8268C281.318 56.8268 281.082 56.8268 280.751 56.8032C280.421 56.7795 280.161 56.7796 279.996 56.7796C278.933 56.7559 277.8 56.7559 276.595 56.7559C275.391 56.7559 274.045 56.7559 272.581 56.7796C271.117 56.7796 269.983 56.8032 269.18 56.8032C268.992 56.8032 268.826 56.7559 268.685 56.6615C268.567 56.567 268.496 56.449 268.496 56.3073C268.472 56.0948 268.614 55.9294 268.921 55.8114C269.228 55.6933 269.417 55.5989 269.464 55.5516C269.653 55.3155 269.747 54.6543 269.747 53.5917V33.8269C269.747 32.7407 269.653 32.1031 269.464 31.867C269.417 31.8197 269.251 31.7253 268.921 31.6072C268.614 31.4891 268.472 31.3238 268.496 31.0877C268.496 30.9696 268.567 30.8516 268.685 30.7571C268.803 30.639 268.968 30.5918 269.18 30.5918C269.889 30.5918 270.786 30.5918 271.849 30.6154C272.911 30.6154 273.832 30.639 274.635 30.639C275.415 30.639 276.312 30.6626 277.304 30.6626C278.295 30.6626 279.193 30.639 280.019 30.6154H281.176C281.294 30.6154 281.436 30.6154 281.625 30.639C281.814 30.6626 281.956 30.6863 282.05 30.7335C282.144 30.7807 282.239 30.8279 282.357 30.8988C282.475 30.9696 282.546 31.0641 282.593 31.1821C282.64 31.3002 282.688 31.4419 282.711 31.5836C282.758 31.7489 282.782 31.9378 282.782 32.1739C282.782 32.3156 282.758 32.4337 282.711 32.5281C282.664 32.6226 282.593 32.6934 282.499 32.7407C282.404 32.7879 282.31 32.7879 282.215 32.7879C282.026 32.7879 281.861 32.6698 281.719 32.4101C281.578 32.1503 281.46 32.0086 281.342 31.9378C281.035 31.7725 280.326 31.7017 279.216 31.7017H274.942V42.1153C276.028 41.3597 277.209 41.0527 278.508 41.1944C279.807 41.3361 280.728 41.832 281.294 42.6585C281.838 43.4141 281.908 44.2642 281.507 45.1851C281.105 46.1061 280.397 46.6256 279.382 46.7437C278.98 46.7909 278.555 46.7673 278.154 46.6492C277.752 46.5311 277.398 46.3186 277.091 46.0116C276.784 45.7283 276.642 45.3741 276.642 45.0199C276.973 45.0435 277.28 44.9962 277.563 44.8782C277.847 44.7601 278.083 44.6184 278.225 44.4295C278.366 44.2406 278.484 44.0281 278.532 43.8155C278.579 43.603 278.555 43.3905 278.437 43.178C278.319 42.9654 278.13 42.8002 277.87 42.6821C277.493 42.4932 277.044 42.4932 276.477 42.6821C275.934 42.8474 275.556 43.178 275.367 43.6975C275.155 44.217 275.037 44.949 274.966 45.8936V55.8114H279.24C280.35 55.8114 281.082 55.7405 281.365 55.5752C281.483 55.528 281.554 55.41 281.649 55.2919C281.719 55.1502 281.814 55.0321 281.885 54.9141C281.908 54.7015 282.05 54.6307 282.192 54.6307Z" fill="white"/>
<path d="M294.59 37.3453C295.133 37.1563 295.534 36.873 295.841 36.4952C296.124 36.1173 296.29 35.7395 296.337 35.3381C296.408 34.2046 296.077 33.2837 295.369 32.5989C294.66 31.9141 293.787 31.5599 292.795 31.5599C291.685 31.5599 290.788 31.8905 290.079 32.5753C289.371 33.2601 288.969 34.0865 288.922 35.0547C288.875 35.9757 289.135 36.873 289.678 37.7703C290.221 38.6676 290.953 39.4941 291.85 40.2498C292.748 41.0054 293.669 41.7374 294.613 42.4458C295.558 43.1543 296.479 43.9571 297.352 44.8072C298.226 45.6573 298.84 46.5074 299.171 47.3339C299.572 48.3257 299.761 49.2703 299.737 50.1676C299.714 51.0649 299.454 51.9386 299.005 52.7415C298.557 53.5443 297.99 54.2528 297.305 54.8431C296.62 55.4335 295.817 55.9294 294.897 56.3072C293.976 56.685 293.031 56.8975 292.039 56.9448C290.292 57.0392 288.686 56.7086 287.222 55.953C286.584 55.6224 286.018 55.1501 285.569 54.5597C285.097 53.9694 284.837 53.3318 284.719 52.6706C284.625 52.0095 284.813 51.3955 285.309 50.8052C285.734 50.3329 286.301 50.0259 287.01 49.8606C287.718 49.6953 288.426 49.7897 289.135 50.0731C289.843 50.3801 290.339 50.8996 290.622 51.608C290.245 51.6316 289.938 51.7025 289.631 51.8205C289.347 51.9386 289.088 52.1039 288.899 52.2692C288.71 52.4581 288.568 52.647 288.474 52.8832C288.143 53.7097 288.379 54.4181 289.135 55.0084C289.89 55.5988 290.788 55.8113 291.803 55.646C292.677 55.5043 293.433 55.0084 294.023 54.1347C294.613 53.261 294.92 52.2928 294.92 51.2066C294.92 50.5454 294.613 49.7897 293.976 48.9633C293.338 48.1368 292.559 47.3339 291.614 46.531C290.67 45.7282 289.702 44.9253 288.733 44.1224C287.765 43.3196 286.844 42.4931 285.994 41.6194C285.144 40.7456 284.554 39.9664 284.247 39.258C283.656 38.0064 283.515 36.7077 283.798 35.3853C284.081 34.0629 284.837 32.9531 286.018 32.0558C286.797 31.4654 287.718 31.0167 288.804 30.7098C289.89 30.4028 290.977 30.2375 292.063 30.2139C293.173 30.1903 294.235 30.3083 295.298 30.5917C296.361 30.8514 297.305 31.2293 298.084 31.7252C298.887 32.221 299.501 32.8586 299.903 33.6851C300.328 34.488 300.469 35.3853 300.351 36.3771C300.257 36.9202 299.997 37.4161 299.572 37.8175C299.147 38.219 298.628 38.5023 298.061 38.644C297.494 38.7857 296.88 38.7621 296.219 38.5496C295.605 38.3607 295.038 37.9592 294.59 37.3453Z" fill="white"/>
</g>
<defs>
<clipPath id="clip0_0_234">
<rect width="304" height="65" fill="white"/>
</clipPath>
</defs>
</svg>
