<svg width="52" height="52" viewBox="0 0 52 52" fill="none" xmlns="http://www.w3.org/2000/svg">
<path d="M26.0027 5.8877C30.2953 5.89256 34.4106 7.59992 37.4459 10.6352C40.4811 13.6705 42.1885 17.7858 42.1934 22.0783C42.1934 35.9323 27.4746 46.3955 26.8472 46.8334C26.5997 47.0068 26.3049 47.0998 26.0027 47.0998C25.7006 47.0998 25.4057 47.0068 25.1582 46.8334C24.5309 46.3955 9.81211 35.9323 9.81211 22.0783C9.81698 17.7858 11.5243 13.6705 14.5596 10.6352C17.5949 7.59992 21.7102 5.89256 26.0027 5.8877ZM26.0027 16.1908C24.8383 16.1908 23.7 16.5361 22.7318 17.183C21.7636 17.83 21.009 18.7495 20.5634 19.8253C20.1178 20.9011 20.0012 22.0849 20.2284 23.2269C20.4555 24.369 21.0163 25.418 21.8396 26.2414C22.663 27.0648 23.7121 27.6255 24.8541 27.8527C25.9962 28.0799 27.18 27.9633 28.2558 27.5177C29.3316 27.0721 30.2511 26.3174 30.898 25.3492C31.5449 24.381 31.8902 23.2428 31.8902 22.0783C31.8902 20.5169 31.2699 19.0193 30.1658 17.9152C29.0617 16.8111 27.5642 16.1908 26.0027 16.1908Z" fill="#12A297"/>
<path d="M26.0027 16.1908C24.8383 16.1908 23.7 16.5361 22.7318 17.183C21.7636 17.83 21.009 18.7495 20.5634 19.8253C20.1178 20.9011 20.0012 22.0849 20.2284 23.2269C20.4555 24.369 21.0163 25.418 21.8396 26.2414C22.663 27.0648 23.7121 27.6255 24.8541 27.8527C25.9962 28.0799 27.18 27.9633 28.2558 27.5177C29.3316 27.0721 30.2511 26.3174 30.898 25.3492C31.5449 24.381 31.8902 23.2428 31.8902 22.0783C31.8902 20.5169 31.2699 19.0193 30.1658 17.9152C29.0617 16.8111 27.5642 16.1908 26.0027 16.1908Z" fill="white"/>
</svg>
