<svg width="42" height="42" viewBox="0 0 42 42" fill="none" xmlns="http://www.w3.org/2000/svg">
<g clip-path="url(#clip0_0_1605)">
<path d="M34.125 42H7.875C5.78642 42 3.78338 41.1703 2.30653 39.6935C0.829685 38.2166 0 36.2136 0 34.125L0 7.875C0 5.78642 0.829685 3.78338 2.30653 2.30653C3.78338 0.829685 5.78642 0 7.875 0L34.125 0C36.2136 0 38.2166 0.829685 39.6935 2.30653C41.1703 3.78338 42 5.78642 42 7.875V34.125C42 36.2136 41.1703 38.2166 39.6935 39.6935C38.2166 41.1703 36.2136 42 34.125 42Z" fill="white"/>
<path d="M25.0214 31.4987C24.8298 31.4987 24.6355 31.4751 24.4439 31.4305L20.5996 30.4933C20.4849 30.4662 20.3797 30.4086 20.2951 30.3265C20.2105 30.2445 20.1496 30.1411 20.119 30.0273C20.0883 29.9136 20.089 29.7936 20.1209 29.6802C20.1528 29.5667 20.2148 29.464 20.3003 29.383L28.1583 21.823C28.2614 21.724 28.394 21.6614 28.536 21.6447C28.6779 21.628 28.8215 21.6581 28.9448 21.7304C29.068 21.8028 29.1643 21.9134 29.219 22.0455C29.2737 22.1775 29.2837 22.3238 29.2476 22.4621L27.3393 29.7242C27.1761 30.3166 26.7949 30.8253 26.2722 31.1483C25.889 31.3793 25.4585 31.4987 25.0214 31.4987Z" fill="#30C9BD"/>
<path d="M19.2505 31.5C18.9056 31.5012 18.5639 31.4338 18.2453 31.3017C17.9267 31.1697 17.6375 30.9756 17.3946 30.7309L11.2705 24.6067C11.0253 24.3637 10.831 24.0743 10.6988 23.7555C10.5665 23.4367 10.4989 23.0947 10.5 22.7496C10.5 22.0763 10.7546 21.4357 11.218 20.9462L20.2125 11.5894C20.5398 11.2457 20.9333 10.972 21.3694 10.7847C21.8055 10.5975 22.275 10.5006 22.7496 10.5H28.875C30.3227 10.5 31.5 11.6773 31.5 13.125V19.2504C31.4991 19.7258 31.4019 20.196 31.2142 20.6328C31.0265 21.0695 30.7523 21.4637 30.408 21.7914L21.0591 30.7781C20.5643 31.2454 19.9238 31.5 19.2505 31.5ZM22.7496 12.2496C22.264 12.2496 21.8111 12.4438 21.4778 12.7969L12.4832 22.1537C12.332 22.3151 12.2484 22.5284 12.2496 22.7496C12.2496 22.9832 12.3401 23.2024 12.5055 23.3678L18.6309 29.4932C18.7946 29.6497 19.0115 29.7384 19.2379 29.7416C19.4643 29.7448 19.6836 29.6621 19.8516 29.5102L29.1979 20.5262L29.2031 20.5209C29.3769 20.358 29.5152 20.1609 29.6094 19.9421C29.7035 19.7233 29.7516 19.4874 29.7505 19.2491V13.125C29.7505 12.8928 29.6582 12.6701 29.494 12.506C29.3299 12.3418 29.1072 12.2496 28.875 12.2496H22.7496Z" fill="#12A297"/>
<path d="M27.1252 16.6254C26.6754 16.6041 26.251 16.4104 25.9402 16.0845C25.6294 15.7586 25.4561 15.3256 25.4561 14.8752C25.4561 14.4249 25.6294 13.9918 25.9402 13.6659C26.251 13.3401 26.6754 13.1463 27.1252 13.125C27.575 13.1463 27.9994 13.3401 28.3102 13.6659C28.621 13.9918 28.7944 14.4249 28.7944 14.8752C28.7944 15.3256 28.621 15.7586 28.3102 16.0845C27.9994 16.4104 27.575 16.6041 27.1252 16.6254Z" fill="#12A297"/>
</g>
<defs>
<clipPath id="clip0_0_1605">
<rect width="42" height="42" fill="white"/>
</clipPath>
</defs>
</svg>
