<svg width="1342" height="6012" viewBox="0 0 1342 6012" fill="none" xmlns="http://www.w3.org/2000/svg">
<path d="M407.112 838.128C407.968 837.849 408.698 837.842 409.314 837.994L405.494 827.196C406.4 832.223 407.2 837.109 407.112 838.128Z" fill="#324A57"/>
<path d="M407.112 838.128C407.968 837.849 408.698 837.842 409.314 837.994L405.494 827.196C406.4 832.223 407.2 837.109 407.112 838.128Z" fill="url(#paint0_radial_0_58)" fill-opacity="0.9"/>
<path d="M407.112 838.128C407.968 837.849 408.698 837.842 409.314 837.994L405.494 827.196C406.4 832.223 407.2 837.109 407.112 838.128Z" fill="url(#paint1_radial_0_58)" fill-opacity="0.9"/>
<path d="M411.077 841.005C411.407 840.888 411.736 840.772 412.066 840.656C411.932 840.234 411.106 838.438 409.314 837.994L410.457 841.224L410.865 841.079L411.077 841.005Z" fill="#324A57"/>
<path d="M411.077 841.005C411.407 840.888 411.736 840.772 412.066 840.656C411.932 840.234 411.106 838.438 409.314 837.994L410.457 841.224L410.865 841.079L411.077 841.005Z" fill="url(#paint2_radial_0_58)" fill-opacity="0.9"/>
<path d="M411.077 841.005C411.407 840.888 411.736 840.772 412.066 840.656C411.932 840.234 411.106 838.438 409.314 837.994L410.457 841.224L410.865 841.079L411.077 841.005Z" fill="url(#paint3_radial_0_58)" fill-opacity="0.9"/>
<path d="M284.5 884.977L291.772 896.564C292.996 895.362 295.472 892.944 295.586 892.887C294.198 891.33 288.861 887.662 284.5 884.977Z" fill="#324A57"/>
<path d="M284.5 884.977L291.772 896.564C292.996 895.362 295.472 892.944 295.586 892.887C294.198 891.33 288.861 887.662 284.5 884.977Z" fill="url(#paint4_radial_0_58)" fill-opacity="0.9"/>
<path d="M284.5 884.977L291.772 896.564C292.996 895.362 295.472 892.944 295.586 892.887C294.198 891.33 288.861 887.662 284.5 884.977Z" fill="url(#paint5_radial_0_58)" fill-opacity="0.9"/>
<path fill-rule="evenodd" clip-rule="evenodd" d="M642.76 245.588C629.854 250.97 622.436 257.937 619.067 267.059C614.57 279.239 619.112 294.377 635.449 316.643C647.244 332.717 663.334 350.123 681.79 370.09L681.796 370.096C688.483 377.331 695.481 384.901 702.698 392.866C756.061 451.762 818.172 528.932 831.8 634.318C836.247 668.706 822.208 695.095 796.954 715.462C772.424 735.245 736.871 749.821 696.297 762.432C662.699 772.874 624.545 782.283 584.778 792.089C576.305 794.178 567.76 796.285 559.17 798.424C510.573 810.525 460.225 823.719 412.066 840.656C411.932 840.234 411.106 838.438 409.314 837.994L405.494 827.196C404.896 823.878 404.253 820.497 403.788 818.127C453.188 800.733 504.585 787.284 553.37 775.135C562.071 772.969 570.678 770.846 579.174 768.751L579.231 768.737L579.287 768.723C619.036 758.919 656.326 749.723 689.173 739.514C729.252 727.057 761.093 713.551 781.887 696.781C801.958 680.594 811.174 661.959 807.998 637.395C795.383 539.839 737.839 467.395 684.913 408.981C678.23 401.605 671.564 394.395 665.057 387.357C646.242 367.006 628.765 348.102 616.099 330.84C599.322 307.975 587.439 283.43 596.553 258.746C602.975 241.354 616.769 230.423 633.522 223.437C650.03 216.553 670.518 213 692.608 210.771C711.202 208.895 731.753 207.893 752.969 206.858C757.055 206.658 761.167 206.458 765.294 206.249C791.03 204.951 817.646 203.345 843.923 199.921C856.808 198.241 869.516 196.135 881.905 193.444C881.606 196.875 882.746 204.886 889.699 209.489C888.622 212.035 888.924 215.166 889.21 216.413C875.24 219.53 861.097 221.885 847.025 223.719C819.738 227.275 792.313 228.917 766.503 230.219C762.274 230.432 758.095 230.636 753.97 230.838L753.967 230.838C732.739 231.875 712.935 232.842 695.017 234.65C673.529 236.818 655.911 240.104 642.76 245.588ZM291.772 896.564C265.814 912.854 242.423 931.496 222.561 953.118C216.665 959.537 211.177 965.396 206.01 970.913C181.591 996.985 164.345 1015.4 145.147 1048.96C124.666 1084.76 110.105 1111.8 99.3518 1140.66C88.6526 1169.39 81.5761 1200.34 76.6546 1243.85C73.8805 1268.37 80.1293 1286.92 91.4664 1302.26C103.111 1318.01 120.499 1330.87 140.752 1342.78C150.817 1348.7 161.35 1354.26 171.999 1359.79C173.458 1360.55 174.92 1361.31 176.385 1362.07L176.428 1362.09C185.548 1366.82 194.729 1371.59 203.416 1376.45C223.327 1387.61 242.58 1400.32 254.501 1417.03C263.661 1429.88 279.253 1443.12 298.091 1458.79L300.051 1460.42C317.847 1475.21 337.757 1491.76 354.161 1510.63C371.253 1530.28 385.302 1553.28 389.352 1580.73C393.434 1608.4 387.126 1638.96 366.51 1673.19C346.237 1706.85 325.754 1727.65 306.65 1742.22C294.016 1751.86 281.269 1759.15 270.813 1765.13C266.147 1767.8 261.936 1770.21 258.397 1772.45C246.421 1780.03 238.922 1787.14 234.744 1799.9C230.245 1813.64 229.172 1835.23 234.607 1872.78C236.812 1888.02 245.821 1902.47 261.875 1916.48C277.977 1930.54 300.409 1943.47 327.704 1955.58C382.329 1979.8 453.703 1999.54 526.063 2018.78C532.542 2020.5 539.03 2022.22 545.513 2023.93C610.914 2041.26 675.847 2058.45 726.739 2078.34C754.714 2089.27 779.227 2101.3 797.519 2115.1C815.734 2128.85 829.227 2145.46 832.112 2165.82C836.779 2198.75 837.127 2263.66 834.929 2342.49C832.721 2421.72 827.899 2516.06 821.956 2608.52C816.012 2700.99 808.941 2791.67 802.225 2863.58C795.565 2934.91 789.149 2989.1 784.342 3007.53C781.375 3018.9 772.434 3032.2 761.248 3046.01C749.697 3060.28 734.383 3076.7 716.817 3094.56C697.413 3114.29 674.701 3136.32 650.812 3159.49C631.744 3177.99 611.925 3197.21 592.439 3216.57C548.128 3260.6 504.807 3306.05 472.613 3348.23C456.523 3369.31 443.43 3389.29 434.4 3407.64C425.605 3425.51 421.026 3441.11 420.744 3454.22C425.112 3473.58 436.279 3525.8 448.793 3592.28C449.15 3594.18 450.731 3597.54 455.563 3602.29C460.277 3606.94 467.223 3612.06 476.492 3617.58C495.013 3628.61 521.161 3640.24 552.909 3652.22C616.301 3676.14 700.019 3700.72 784.954 3724.25C817.806 3733.35 850.874 3742.3 882.958 3750.99L882.971 3750.99L883.067 3751.02C933.606 3764.7 981.702 3777.72 1022.68 3789.62C1056.22 3799.37 1085.35 3808.46 1107.45 3816.66C1118.48 3820.76 1128.01 3824.73 1135.55 3828.54C1142.67 3832.14 1149.49 3836.3 1153.68 3841.27C1157.86 3846.23 1158.31 3852.29 1158 3856.61C1157.68 3861.17 1156.37 3866.09 1154.6 3871.01C1151.05 3880.92 1144.77 3893.3 1136.48 3907.5C1119.83 3936.04 1093.93 3973.89 1061.76 4017.75C997.357 4105.55 907.008 4218.57 813.041 4331.61C719.05 4444.68 621.311 4557.93 542.065 4646.27C502.449 4690.43 467.401 4728.42 439.726 4757.08C412.478 4785.28 391.397 4805.49 380.157 4812.98C357.879 4827.84 337.041 4831.34 317.51 4827.28C298.661 4823.36 282.31 4812.63 268.184 4801.76C262.988 4797.76 257.832 4793.54 252.914 4789.5C251.135 4788.04 249.387 4786.61 247.679 4785.22C241.1 4779.87 234.958 4775.07 228.957 4771.12C216.791 4763.13 207.065 4759.94 197.833 4761.77C196.447 4762.05 195.045 4762.32 193.627 4762.6L193.204 4762.68L192.046 4762.91L191.695 4762.98C164.697 4768.3 132.417 4774.65 104.135 4786.12C73.4824 4798.55 50.6345 4815.75 42.9836 4840.98C42.7821 4841.65 42.5 4843.88 43.8365 4848.59C45.1235 4853.12 47.5992 4858.87 51.4129 4865.85C59.0336 4879.78 71.1298 4897.08 86.6025 4916.96C116.074 4954.82 156.565 5000.52 198.433 5047.77L198.455 5047.79L198.462 5047.8L204.545 5054.67C248.386 5104.16 293.169 5154.95 326.984 5199.06C343.888 5221.1 358.287 5241.78 368.512 5260.01C378.481 5277.78 385.5 5294.96 385.5 5309.5C385.5 5315.43 389.541 5323.81 401.815 5334.51C413.731 5344.91 431.416 5355.74 453.784 5366.71C498.413 5388.59 559.251 5409.87 623.309 5429C751.279 5467.22 889.97 5496.25 932.22 5504.21C945.232 5506.66 956.014 5512.62 964.006 5521.56C971.923 5530.42 976.553 5541.58 978.443 5553.69C982.185 5577.66 975.445 5606.53 960.222 5634.43C929.566 5690.62 862.57 5746.69 761.947 5758.91C689.332 5767.73 642.008 5811.59 611.998 5864.18C581.822 5917.06 569.756 5977.91 567.988 6017.53L544.012 6016.46C545.911 5973.92 558.695 5909.17 591.153 5852.29C623.776 5795.12 676.868 5745.07 759.053 5735.09C851.93 5723.81 912.184 5672.37 939.153 5622.94C952.743 5598.03 957.409 5574.56 954.73 5557.39C953.408 5548.92 950.37 5542.32 946.11 5537.55C941.923 5532.87 936.019 5529.34 927.78 5527.79C885.031 5519.75 745.471 5490.53 616.441 5452C551.999 5432.75 489.65 5411.03 443.217 5388.26C420.053 5376.9 400.238 5364.99 386.037 5352.6C372.193 5340.52 361.5 5326.07 361.5 5309.5C361.5 5301.54 357.253 5289 347.58 5271.75C338.162 5254.96 324.542 5235.32 307.938 5213.66C274.737 5170.36 230.552 5120.22 186.58 5070.58L180.222 5063.4C138.589 5016.42 97.6255 4970.19 67.6634 4931.7C51.9408 4911.5 38.908 4893 30.3549 4877.36C26.0817 4869.54 22.7092 4862.05 20.748 4855.14C18.8362 4848.4 17.9057 4840.98 20.0166 4834.02C30.8657 4798.24 62.2678 4777.2 95.1156 4763.88C125.644 4751.5 160.11 4744.73 186.756 4739.49L187.288 4739.39L188.81 4739.09L189.262 4739C190.585 4738.74 191.887 4738.48 193.167 4738.23C211.686 4734.56 228.146 4741.87 242.137 4751.06C249.214 4755.71 256.142 4761.17 262.817 4766.6C264.529 4767.99 266.215 4769.37 267.889 4770.74L268.267 4771.05L268.381 4771.15C273.21 4775.11 277.934 4778.98 282.817 4782.74C296.315 4793.12 309.09 4801.01 322.397 4803.78C335.022 4806.41 349.371 4804.66 366.844 4793.01C375.478 4787.26 394.647 4769.2 422.464 4740.4C449.853 4712.05 484.684 4674.29 524.201 4630.24C603.221 4542.16 700.763 4429.13 794.585 4316.27C888.43 4203.37 978.424 4090.79 1042.41 4003.55C1074.44 3959.88 1099.74 3922.84 1115.75 3895.41C1123.8 3881.62 1129.2 3870.74 1132.01 3862.91C1133.25 3859.46 1133.81 3857.05 1134 3855.52C1132.43 3854.28 1129.54 3852.39 1124.73 3849.96C1118.32 3846.72 1109.73 3843.11 1099.09 3839.16C1077.84 3831.27 1049.39 3822.38 1015.98 3812.67C975.159 3800.82 927.48 3787.91 877.144 3774.28C844.997 3765.58 811.766 3756.58 778.546 3747.38C693.606 3723.84 608.949 3699.02 544.435 3674.67C512.23 3662.52 484.542 3650.3 464.215 3638.2C454.061 3632.16 445.33 3625.9 438.723 3619.39C432.234 3613 426.85 3605.45 425.207 3596.72C412.432 3528.85 401.082 3476 397.029 3458.16L396.731 3456.85V3455.5C396.731 3437 402.957 3417.18 412.866 3397.05C422.828 3376.8 436.907 3355.45 453.535 3333.66C486.779 3290.11 531.083 3243.71 575.522 3199.55C595.555 3179.64 615.474 3160.33 634.508 3141.87C658.091 3119 680.314 3097.45 699.706 3077.73C717.109 3060.04 731.78 3044.27 742.596 3030.91C753.777 3017.1 759.587 3007.35 761.119 3001.47C765.312 2985.4 771.584 2933.59 778.329 2861.35C785.02 2789.71 792.074 2699.26 798.005 2606.98C803.937 2514.69 808.741 2420.66 810.938 2341.82C813.147 2262.59 812.682 2199.75 808.349 2169.18C806.734 2157.79 798.868 2146.19 783.064 2134.26C767.335 2122.39 745.169 2111.31 718.004 2100.69C668.467 2081.34 604.906 2064.5 539.111 2047.07C532.724 2045.38 526.316 2043.68 519.898 2041.97C447.883 2022.83 374.632 2002.64 317.976 1977.52C289.63 1964.95 264.758 1950.86 246.091 1934.56C227.374 1918.22 214.149 1898.98 210.854 1876.22C205.289 1837.77 205.654 1811.61 211.936 1792.43C218.539 1772.27 231.166 1761.28 245.565 1752.17C250.715 1748.91 255.771 1746.03 260.906 1743.11L260.908 1743.11C270.631 1737.58 280.636 1731.88 292.093 1723.14C308.77 1710.42 327.224 1691.9 345.951 1660.81C364.335 1630.29 368.715 1605.29 365.609 1584.24C362.472 1562.97 351.458 1544.09 336.05 1526.37C320.948 1509.01 302.361 1493.55 284.152 1478.41L284.15 1478.41L282.745 1477.24C264.646 1462.19 246.301 1446.87 234.96 1430.97C226.381 1418.94 211.322 1408.39 191.686 1397.39C183.364 1392.73 174.569 1388.17 165.427 1383.42L165.424 1383.42L165.422 1383.42C163.933 1382.65 162.436 1381.87 160.929 1381.09C150.26 1375.54 139.238 1369.74 128.584 1363.47C107.4 1351.01 86.6939 1336.18 72.1667 1316.52C57.332 1296.45 49.3308 1271.88 52.8067 1241.15C57.8852 1196.26 65.3101 1163.3 76.8615 1132.29C88.3592 1101.42 103.798 1072.91 124.314 1037.04C145.002 1000.88 164.259 980.338 188.898 954.058C193.979 948.64 199.288 942.977 204.886 936.882C224.53 915.497 247.141 897.029 271.745 880.898C273.182 882.09 276.27 884.49 277.125 884.547C277.22 883.739 277.624 882.067 278.479 881.839C278.918 881.722 281.473 883.113 284.5 884.977L291.772 896.564ZM1134.07 3854.18C1134.07 3854.18 1134.08 3854.22 1134.08 3854.3C1134.07 3854.23 1134.07 3854.19 1134.07 3854.18Z" fill="#324A57"/>
<path fill-rule="evenodd" clip-rule="evenodd" d="M642.76 245.588C629.854 250.97 622.436 257.937 619.067 267.059C614.57 279.239 619.112 294.377 635.449 316.643C647.244 332.717 663.334 350.123 681.79 370.09L681.796 370.096C688.483 377.331 695.481 384.901 702.698 392.866C756.061 451.762 818.172 528.932 831.8 634.318C836.247 668.706 822.208 695.095 796.954 715.462C772.424 735.245 736.871 749.821 696.297 762.432C662.699 772.874 624.545 782.283 584.778 792.089C576.305 794.178 567.76 796.285 559.17 798.424C510.573 810.525 460.225 823.719 412.066 840.656C411.932 840.234 411.106 838.438 409.314 837.994L405.494 827.196C404.896 823.878 404.253 820.497 403.788 818.127C453.188 800.733 504.585 787.284 553.37 775.135C562.071 772.969 570.678 770.846 579.174 768.751L579.231 768.737L579.287 768.723C619.036 758.919 656.326 749.723 689.173 739.514C729.252 727.057 761.093 713.551 781.887 696.781C801.958 680.594 811.174 661.959 807.998 637.395C795.383 539.839 737.839 467.395 684.913 408.981C678.23 401.605 671.564 394.395 665.057 387.357C646.242 367.006 628.765 348.102 616.099 330.84C599.322 307.975 587.439 283.43 596.553 258.746C602.975 241.354 616.769 230.423 633.522 223.437C650.03 216.553 670.518 213 692.608 210.771C711.202 208.895 731.753 207.893 752.969 206.858C757.055 206.658 761.167 206.458 765.294 206.249C791.03 204.951 817.646 203.345 843.923 199.921C856.808 198.241 869.516 196.135 881.905 193.444C881.606 196.875 882.746 204.886 889.699 209.489C888.622 212.035 888.924 215.166 889.21 216.413C875.24 219.53 861.097 221.885 847.025 223.719C819.738 227.275 792.313 228.917 766.503 230.219C762.274 230.432 758.095 230.636 753.97 230.838L753.967 230.838C732.739 231.875 712.935 232.842 695.017 234.65C673.529 236.818 655.911 240.104 642.76 245.588ZM291.772 896.564C265.814 912.854 242.423 931.496 222.561 953.118C216.665 959.537 211.177 965.396 206.01 970.913C181.591 996.985 164.345 1015.4 145.147 1048.96C124.666 1084.76 110.105 1111.8 99.3518 1140.66C88.6526 1169.39 81.5761 1200.34 76.6546 1243.85C73.8805 1268.37 80.1293 1286.92 91.4664 1302.26C103.111 1318.01 120.499 1330.87 140.752 1342.78C150.817 1348.7 161.35 1354.26 171.999 1359.79C173.458 1360.55 174.92 1361.31 176.385 1362.07L176.428 1362.09C185.548 1366.82 194.729 1371.59 203.416 1376.45C223.327 1387.61 242.58 1400.32 254.501 1417.03C263.661 1429.88 279.253 1443.12 298.091 1458.79L300.051 1460.42C317.847 1475.21 337.757 1491.76 354.161 1510.63C371.253 1530.28 385.302 1553.28 389.352 1580.73C393.434 1608.4 387.126 1638.96 366.51 1673.19C346.237 1706.85 325.754 1727.65 306.65 1742.22C294.016 1751.86 281.269 1759.15 270.813 1765.13C266.147 1767.8 261.936 1770.21 258.397 1772.45C246.421 1780.03 238.922 1787.14 234.744 1799.9C230.245 1813.64 229.172 1835.23 234.607 1872.78C236.812 1888.02 245.821 1902.47 261.875 1916.48C277.977 1930.54 300.409 1943.47 327.704 1955.58C382.329 1979.8 453.703 1999.54 526.063 2018.78C532.542 2020.5 539.03 2022.22 545.513 2023.93C610.914 2041.26 675.847 2058.45 726.739 2078.34C754.714 2089.27 779.227 2101.3 797.519 2115.1C815.734 2128.85 829.227 2145.46 832.112 2165.82C836.779 2198.75 837.127 2263.66 834.929 2342.49C832.721 2421.72 827.899 2516.06 821.956 2608.52C816.012 2700.99 808.941 2791.67 802.225 2863.58C795.565 2934.91 789.149 2989.1 784.342 3007.53C781.375 3018.9 772.434 3032.2 761.248 3046.01C749.697 3060.28 734.383 3076.7 716.817 3094.56C697.413 3114.29 674.701 3136.32 650.812 3159.49C631.744 3177.99 611.925 3197.21 592.439 3216.57C548.128 3260.6 504.807 3306.05 472.613 3348.23C456.523 3369.31 443.43 3389.29 434.4 3407.64C425.605 3425.51 421.026 3441.11 420.744 3454.22C425.112 3473.58 436.279 3525.8 448.793 3592.28C449.15 3594.18 450.731 3597.54 455.563 3602.29C460.277 3606.94 467.223 3612.06 476.492 3617.58C495.013 3628.61 521.161 3640.24 552.909 3652.22C616.301 3676.14 700.019 3700.72 784.954 3724.25C817.806 3733.35 850.874 3742.3 882.958 3750.99L882.971 3750.99L883.067 3751.02C933.606 3764.7 981.702 3777.72 1022.68 3789.62C1056.22 3799.37 1085.35 3808.46 1107.45 3816.66C1118.48 3820.76 1128.01 3824.73 1135.55 3828.54C1142.67 3832.14 1149.49 3836.3 1153.68 3841.27C1157.86 3846.23 1158.31 3852.29 1158 3856.61C1157.68 3861.17 1156.37 3866.09 1154.6 3871.01C1151.05 3880.92 1144.77 3893.3 1136.48 3907.5C1119.83 3936.04 1093.93 3973.89 1061.76 4017.75C997.357 4105.55 907.008 4218.57 813.041 4331.61C719.05 4444.68 621.311 4557.93 542.065 4646.27C502.449 4690.43 467.401 4728.42 439.726 4757.08C412.478 4785.28 391.397 4805.49 380.157 4812.98C357.879 4827.84 337.041 4831.34 317.51 4827.28C298.661 4823.36 282.31 4812.63 268.184 4801.76C262.988 4797.76 257.832 4793.54 252.914 4789.5C251.135 4788.04 249.387 4786.61 247.679 4785.22C241.1 4779.87 234.958 4775.07 228.957 4771.12C216.791 4763.13 207.065 4759.94 197.833 4761.77C196.447 4762.05 195.045 4762.32 193.627 4762.6L193.204 4762.68L192.046 4762.91L191.695 4762.98C164.697 4768.3 132.417 4774.65 104.135 4786.12C73.4824 4798.55 50.6345 4815.75 42.9836 4840.98C42.7821 4841.65 42.5 4843.88 43.8365 4848.59C45.1235 4853.12 47.5992 4858.87 51.4129 4865.85C59.0336 4879.78 71.1298 4897.08 86.6025 4916.96C116.074 4954.82 156.565 5000.52 198.433 5047.77L198.455 5047.79L198.462 5047.8L204.545 5054.67C248.386 5104.16 293.169 5154.95 326.984 5199.06C343.888 5221.1 358.287 5241.78 368.512 5260.01C378.481 5277.78 385.5 5294.96 385.5 5309.5C385.5 5315.43 389.541 5323.81 401.815 5334.51C413.731 5344.91 431.416 5355.74 453.784 5366.71C498.413 5388.59 559.251 5409.87 623.309 5429C751.279 5467.22 889.97 5496.25 932.22 5504.21C945.232 5506.66 956.014 5512.62 964.006 5521.56C971.923 5530.42 976.553 5541.58 978.443 5553.69C982.185 5577.66 975.445 5606.53 960.222 5634.43C929.566 5690.62 862.57 5746.69 761.947 5758.91C689.332 5767.73 642.008 5811.59 611.998 5864.18C581.822 5917.06 569.756 5977.91 567.988 6017.53L544.012 6016.46C545.911 5973.92 558.695 5909.17 591.153 5852.29C623.776 5795.12 676.868 5745.07 759.053 5735.09C851.93 5723.81 912.184 5672.37 939.153 5622.94C952.743 5598.03 957.409 5574.56 954.73 5557.39C953.408 5548.92 950.37 5542.32 946.11 5537.55C941.923 5532.87 936.019 5529.34 927.78 5527.79C885.031 5519.75 745.471 5490.53 616.441 5452C551.999 5432.75 489.65 5411.03 443.217 5388.26C420.053 5376.9 400.238 5364.99 386.037 5352.6C372.193 5340.52 361.5 5326.07 361.5 5309.5C361.5 5301.54 357.253 5289 347.58 5271.75C338.162 5254.96 324.542 5235.32 307.938 5213.66C274.737 5170.36 230.552 5120.22 186.58 5070.58L180.222 5063.4C138.589 5016.42 97.6255 4970.19 67.6634 4931.7C51.9408 4911.5 38.908 4893 30.3549 4877.36C26.0817 4869.54 22.7092 4862.05 20.748 4855.14C18.8362 4848.4 17.9057 4840.98 20.0166 4834.02C30.8657 4798.24 62.2678 4777.2 95.1156 4763.88C125.644 4751.5 160.11 4744.73 186.756 4739.49L187.288 4739.39L188.81 4739.09L189.262 4739C190.585 4738.74 191.887 4738.48 193.167 4738.23C211.686 4734.56 228.146 4741.87 242.137 4751.06C249.214 4755.71 256.142 4761.17 262.817 4766.6C264.529 4767.99 266.215 4769.37 267.889 4770.74L268.267 4771.05L268.381 4771.15C273.21 4775.11 277.934 4778.98 282.817 4782.74C296.315 4793.12 309.09 4801.01 322.397 4803.78C335.022 4806.41 349.371 4804.66 366.844 4793.01C375.478 4787.26 394.647 4769.2 422.464 4740.4C449.853 4712.05 484.684 4674.29 524.201 4630.24C603.221 4542.16 700.763 4429.13 794.585 4316.27C888.43 4203.37 978.424 4090.79 1042.41 4003.55C1074.44 3959.88 1099.74 3922.84 1115.75 3895.41C1123.8 3881.62 1129.2 3870.74 1132.01 3862.91C1133.25 3859.46 1133.81 3857.05 1134 3855.52C1132.43 3854.28 1129.54 3852.39 1124.73 3849.96C1118.32 3846.72 1109.73 3843.11 1099.09 3839.16C1077.84 3831.27 1049.39 3822.38 1015.98 3812.67C975.159 3800.82 927.48 3787.91 877.144 3774.28C844.997 3765.58 811.766 3756.58 778.546 3747.38C693.606 3723.84 608.949 3699.02 544.435 3674.67C512.23 3662.52 484.542 3650.3 464.215 3638.2C454.061 3632.16 445.33 3625.9 438.723 3619.39C432.234 3613 426.85 3605.45 425.207 3596.72C412.432 3528.85 401.082 3476 397.029 3458.16L396.731 3456.85V3455.5C396.731 3437 402.957 3417.18 412.866 3397.05C422.828 3376.8 436.907 3355.45 453.535 3333.66C486.779 3290.11 531.083 3243.71 575.522 3199.55C595.555 3179.64 615.474 3160.33 634.508 3141.87C658.091 3119 680.314 3097.45 699.706 3077.73C717.109 3060.04 731.78 3044.27 742.596 3030.91C753.777 3017.1 759.587 3007.35 761.119 3001.47C765.312 2985.4 771.584 2933.59 778.329 2861.35C785.02 2789.71 792.074 2699.26 798.005 2606.98C803.937 2514.69 808.741 2420.66 810.938 2341.82C813.147 2262.59 812.682 2199.75 808.349 2169.18C806.734 2157.79 798.868 2146.19 783.064 2134.26C767.335 2122.39 745.169 2111.31 718.004 2100.69C668.467 2081.34 604.906 2064.5 539.111 2047.07C532.724 2045.38 526.316 2043.68 519.898 2041.97C447.883 2022.83 374.632 2002.64 317.976 1977.52C289.63 1964.95 264.758 1950.86 246.091 1934.56C227.374 1918.22 214.149 1898.98 210.854 1876.22C205.289 1837.77 205.654 1811.61 211.936 1792.43C218.539 1772.27 231.166 1761.28 245.565 1752.17C250.715 1748.91 255.771 1746.03 260.906 1743.11L260.908 1743.11C270.631 1737.58 280.636 1731.88 292.093 1723.14C308.77 1710.42 327.224 1691.9 345.951 1660.81C364.335 1630.29 368.715 1605.29 365.609 1584.24C362.472 1562.97 351.458 1544.09 336.05 1526.37C320.948 1509.01 302.361 1493.55 284.152 1478.41L284.15 1478.41L282.745 1477.24C264.646 1462.19 246.301 1446.87 234.96 1430.97C226.381 1418.94 211.322 1408.39 191.686 1397.39C183.364 1392.73 174.569 1388.17 165.427 1383.42L165.424 1383.42L165.422 1383.42C163.933 1382.65 162.436 1381.87 160.929 1381.09C150.26 1375.54 139.238 1369.74 128.584 1363.47C107.4 1351.01 86.6939 1336.18 72.1667 1316.52C57.332 1296.45 49.3308 1271.88 52.8067 1241.15C57.8852 1196.26 65.3101 1163.3 76.8615 1132.29C88.3592 1101.42 103.798 1072.91 124.314 1037.04C145.002 1000.88 164.259 980.338 188.898 954.058C193.979 948.64 199.288 942.977 204.886 936.882C224.53 915.497 247.141 897.029 271.745 880.898C273.182 882.09 276.27 884.49 277.125 884.547C277.22 883.739 277.624 882.067 278.479 881.839C278.918 881.722 281.473 883.113 284.5 884.977L291.772 896.564ZM1134.07 3854.18C1134.07 3854.18 1134.08 3854.22 1134.08 3854.3C1134.07 3854.23 1134.07 3854.19 1134.07 3854.18Z" fill="url(#paint6_radial_0_58)" fill-opacity="0.9"/>
<path fill-rule="evenodd" clip-rule="evenodd" d="M642.76 245.588C629.854 250.97 622.436 257.937 619.067 267.059C614.57 279.239 619.112 294.377 635.449 316.643C647.244 332.717 663.334 350.123 681.79 370.09L681.796 370.096C688.483 377.331 695.481 384.901 702.698 392.866C756.061 451.762 818.172 528.932 831.8 634.318C836.247 668.706 822.208 695.095 796.954 715.462C772.424 735.245 736.871 749.821 696.297 762.432C662.699 772.874 624.545 782.283 584.778 792.089C576.305 794.178 567.76 796.285 559.17 798.424C510.573 810.525 460.225 823.719 412.066 840.656C411.932 840.234 411.106 838.438 409.314 837.994L405.494 827.196C404.896 823.878 404.253 820.497 403.788 818.127C453.188 800.733 504.585 787.284 553.37 775.135C562.071 772.969 570.678 770.846 579.174 768.751L579.231 768.737L579.287 768.723C619.036 758.919 656.326 749.723 689.173 739.514C729.252 727.057 761.093 713.551 781.887 696.781C801.958 680.594 811.174 661.959 807.998 637.395C795.383 539.839 737.839 467.395 684.913 408.981C678.23 401.605 671.564 394.395 665.057 387.357C646.242 367.006 628.765 348.102 616.099 330.84C599.322 307.975 587.439 283.43 596.553 258.746C602.975 241.354 616.769 230.423 633.522 223.437C650.03 216.553 670.518 213 692.608 210.771C711.202 208.895 731.753 207.893 752.969 206.858C757.055 206.658 761.167 206.458 765.294 206.249C791.03 204.951 817.646 203.345 843.923 199.921C856.808 198.241 869.516 196.135 881.905 193.444C881.606 196.875 882.746 204.886 889.699 209.489C888.622 212.035 888.924 215.166 889.21 216.413C875.24 219.53 861.097 221.885 847.025 223.719C819.738 227.275 792.313 228.917 766.503 230.219C762.274 230.432 758.095 230.636 753.97 230.838L753.967 230.838C732.739 231.875 712.935 232.842 695.017 234.65C673.529 236.818 655.911 240.104 642.76 245.588ZM291.772 896.564C265.814 912.854 242.423 931.496 222.561 953.118C216.665 959.537 211.177 965.396 206.01 970.913C181.591 996.985 164.345 1015.4 145.147 1048.96C124.666 1084.76 110.105 1111.8 99.3518 1140.66C88.6526 1169.39 81.5761 1200.34 76.6546 1243.85C73.8805 1268.37 80.1293 1286.92 91.4664 1302.26C103.111 1318.01 120.499 1330.87 140.752 1342.78C150.817 1348.7 161.35 1354.26 171.999 1359.79C173.458 1360.55 174.92 1361.31 176.385 1362.07L176.428 1362.09C185.548 1366.82 194.729 1371.59 203.416 1376.45C223.327 1387.61 242.58 1400.32 254.501 1417.03C263.661 1429.88 279.253 1443.12 298.091 1458.79L300.051 1460.42C317.847 1475.21 337.757 1491.76 354.161 1510.63C371.253 1530.28 385.302 1553.28 389.352 1580.73C393.434 1608.4 387.126 1638.96 366.51 1673.19C346.237 1706.85 325.754 1727.65 306.65 1742.22C294.016 1751.86 281.269 1759.15 270.813 1765.13C266.147 1767.8 261.936 1770.21 258.397 1772.45C246.421 1780.03 238.922 1787.14 234.744 1799.9C230.245 1813.64 229.172 1835.23 234.607 1872.78C236.812 1888.02 245.821 1902.47 261.875 1916.48C277.977 1930.54 300.409 1943.47 327.704 1955.58C382.329 1979.8 453.703 1999.54 526.063 2018.78C532.542 2020.5 539.03 2022.22 545.513 2023.93C610.914 2041.26 675.847 2058.45 726.739 2078.34C754.714 2089.27 779.227 2101.3 797.519 2115.1C815.734 2128.85 829.227 2145.46 832.112 2165.82C836.779 2198.75 837.127 2263.66 834.929 2342.49C832.721 2421.72 827.899 2516.06 821.956 2608.52C816.012 2700.99 808.941 2791.67 802.225 2863.58C795.565 2934.91 789.149 2989.1 784.342 3007.53C781.375 3018.9 772.434 3032.2 761.248 3046.01C749.697 3060.28 734.383 3076.7 716.817 3094.56C697.413 3114.29 674.701 3136.32 650.812 3159.49C631.744 3177.99 611.925 3197.21 592.439 3216.57C548.128 3260.6 504.807 3306.05 472.613 3348.23C456.523 3369.31 443.43 3389.29 434.4 3407.64C425.605 3425.51 421.026 3441.11 420.744 3454.22C425.112 3473.58 436.279 3525.8 448.793 3592.28C449.15 3594.18 450.731 3597.54 455.563 3602.29C460.277 3606.94 467.223 3612.06 476.492 3617.58C495.013 3628.61 521.161 3640.24 552.909 3652.22C616.301 3676.14 700.019 3700.72 784.954 3724.25C817.806 3733.35 850.874 3742.3 882.958 3750.99L882.971 3750.99L883.067 3751.02C933.606 3764.7 981.702 3777.72 1022.68 3789.62C1056.22 3799.37 1085.35 3808.46 1107.45 3816.66C1118.48 3820.76 1128.01 3824.73 1135.55 3828.54C1142.67 3832.14 1149.49 3836.3 1153.68 3841.27C1157.86 3846.23 1158.31 3852.29 1158 3856.61C1157.68 3861.17 1156.37 3866.09 1154.6 3871.01C1151.05 3880.92 1144.77 3893.3 1136.48 3907.5C1119.83 3936.04 1093.93 3973.89 1061.76 4017.75C997.357 4105.55 907.008 4218.57 813.041 4331.61C719.05 4444.68 621.311 4557.93 542.065 4646.27C502.449 4690.43 467.401 4728.42 439.726 4757.08C412.478 4785.28 391.397 4805.49 380.157 4812.98C357.879 4827.84 337.041 4831.34 317.51 4827.28C298.661 4823.36 282.31 4812.63 268.184 4801.76C262.988 4797.76 257.832 4793.54 252.914 4789.5C251.135 4788.04 249.387 4786.61 247.679 4785.22C241.1 4779.87 234.958 4775.07 228.957 4771.12C216.791 4763.13 207.065 4759.94 197.833 4761.77C196.447 4762.05 195.045 4762.32 193.627 4762.6L193.204 4762.68L192.046 4762.91L191.695 4762.98C164.697 4768.3 132.417 4774.65 104.135 4786.12C73.4824 4798.55 50.6345 4815.75 42.9836 4840.98C42.7821 4841.65 42.5 4843.88 43.8365 4848.59C45.1235 4853.12 47.5992 4858.87 51.4129 4865.85C59.0336 4879.78 71.1298 4897.08 86.6025 4916.96C116.074 4954.82 156.565 5000.52 198.433 5047.77L198.455 5047.79L198.462 5047.8L204.545 5054.67C248.386 5104.16 293.169 5154.95 326.984 5199.06C343.888 5221.1 358.287 5241.78 368.512 5260.01C378.481 5277.78 385.5 5294.96 385.5 5309.5C385.5 5315.43 389.541 5323.81 401.815 5334.51C413.731 5344.91 431.416 5355.74 453.784 5366.71C498.413 5388.59 559.251 5409.87 623.309 5429C751.279 5467.22 889.97 5496.25 932.22 5504.21C945.232 5506.66 956.014 5512.62 964.006 5521.56C971.923 5530.42 976.553 5541.58 978.443 5553.69C982.185 5577.66 975.445 5606.53 960.222 5634.43C929.566 5690.62 862.57 5746.69 761.947 5758.91C689.332 5767.73 642.008 5811.59 611.998 5864.18C581.822 5917.06 569.756 5977.91 567.988 6017.53L544.012 6016.46C545.911 5973.92 558.695 5909.17 591.153 5852.29C623.776 5795.12 676.868 5745.07 759.053 5735.09C851.93 5723.81 912.184 5672.37 939.153 5622.94C952.743 5598.03 957.409 5574.56 954.73 5557.39C953.408 5548.92 950.37 5542.32 946.11 5537.55C941.923 5532.87 936.019 5529.34 927.78 5527.79C885.031 5519.75 745.471 5490.53 616.441 5452C551.999 5432.75 489.65 5411.03 443.217 5388.26C420.053 5376.9 400.238 5364.99 386.037 5352.6C372.193 5340.52 361.5 5326.07 361.5 5309.5C361.5 5301.54 357.253 5289 347.58 5271.75C338.162 5254.96 324.542 5235.32 307.938 5213.66C274.737 5170.36 230.552 5120.22 186.58 5070.58L180.222 5063.4C138.589 5016.42 97.6255 4970.19 67.6634 4931.7C51.9408 4911.5 38.908 4893 30.3549 4877.36C26.0817 4869.54 22.7092 4862.05 20.748 4855.14C18.8362 4848.4 17.9057 4840.98 20.0166 4834.02C30.8657 4798.24 62.2678 4777.2 95.1156 4763.88C125.644 4751.5 160.11 4744.73 186.756 4739.49L187.288 4739.39L188.81 4739.09L189.262 4739C190.585 4738.74 191.887 4738.48 193.167 4738.23C211.686 4734.56 228.146 4741.87 242.137 4751.06C249.214 4755.71 256.142 4761.17 262.817 4766.6C264.529 4767.99 266.215 4769.37 267.889 4770.74L268.267 4771.05L268.381 4771.15C273.21 4775.11 277.934 4778.98 282.817 4782.74C296.315 4793.12 309.09 4801.01 322.397 4803.78C335.022 4806.41 349.371 4804.66 366.844 4793.01C375.478 4787.26 394.647 4769.2 422.464 4740.4C449.853 4712.05 484.684 4674.29 524.201 4630.24C603.221 4542.16 700.763 4429.13 794.585 4316.27C888.43 4203.37 978.424 4090.79 1042.41 4003.55C1074.44 3959.88 1099.74 3922.84 1115.75 3895.41C1123.8 3881.62 1129.2 3870.74 1132.01 3862.91C1133.25 3859.46 1133.81 3857.05 1134 3855.52C1132.43 3854.28 1129.54 3852.39 1124.73 3849.96C1118.32 3846.72 1109.73 3843.11 1099.09 3839.16C1077.84 3831.27 1049.39 3822.38 1015.98 3812.67C975.159 3800.82 927.48 3787.91 877.144 3774.28C844.997 3765.58 811.766 3756.58 778.546 3747.38C693.606 3723.84 608.949 3699.02 544.435 3674.67C512.23 3662.52 484.542 3650.3 464.215 3638.2C454.061 3632.16 445.33 3625.9 438.723 3619.39C432.234 3613 426.85 3605.45 425.207 3596.72C412.432 3528.85 401.082 3476 397.029 3458.16L396.731 3456.85V3455.5C396.731 3437 402.957 3417.18 412.866 3397.05C422.828 3376.8 436.907 3355.45 453.535 3333.66C486.779 3290.11 531.083 3243.71 575.522 3199.55C595.555 3179.64 615.474 3160.33 634.508 3141.87C658.091 3119 680.314 3097.45 699.706 3077.73C717.109 3060.04 731.78 3044.27 742.596 3030.91C753.777 3017.1 759.587 3007.35 761.119 3001.47C765.312 2985.4 771.584 2933.59 778.329 2861.35C785.02 2789.71 792.074 2699.26 798.005 2606.98C803.937 2514.69 808.741 2420.66 810.938 2341.82C813.147 2262.59 812.682 2199.75 808.349 2169.18C806.734 2157.79 798.868 2146.19 783.064 2134.26C767.335 2122.39 745.169 2111.31 718.004 2100.69C668.467 2081.34 604.906 2064.5 539.111 2047.07C532.724 2045.38 526.316 2043.68 519.898 2041.97C447.883 2022.83 374.632 2002.64 317.976 1977.52C289.63 1964.95 264.758 1950.86 246.091 1934.56C227.374 1918.22 214.149 1898.98 210.854 1876.22C205.289 1837.77 205.654 1811.61 211.936 1792.43C218.539 1772.27 231.166 1761.28 245.565 1752.17C250.715 1748.91 255.771 1746.03 260.906 1743.11L260.908 1743.11C270.631 1737.58 280.636 1731.88 292.093 1723.14C308.77 1710.42 327.224 1691.9 345.951 1660.81C364.335 1630.29 368.715 1605.29 365.609 1584.24C362.472 1562.97 351.458 1544.09 336.05 1526.37C320.948 1509.01 302.361 1493.55 284.152 1478.41L284.15 1478.41L282.745 1477.24C264.646 1462.19 246.301 1446.87 234.96 1430.97C226.381 1418.94 211.322 1408.39 191.686 1397.39C183.364 1392.73 174.569 1388.17 165.427 1383.42L165.424 1383.42L165.422 1383.42C163.933 1382.65 162.436 1381.87 160.929 1381.09C150.26 1375.54 139.238 1369.74 128.584 1363.47C107.4 1351.01 86.6939 1336.18 72.1667 1316.52C57.332 1296.45 49.3308 1271.88 52.8067 1241.15C57.8852 1196.26 65.3101 1163.3 76.8615 1132.29C88.3592 1101.42 103.798 1072.91 124.314 1037.04C145.002 1000.88 164.259 980.338 188.898 954.058C193.979 948.64 199.288 942.977 204.886 936.882C224.53 915.497 247.141 897.029 271.745 880.898C273.182 882.09 276.27 884.49 277.125 884.547C277.22 883.739 277.624 882.067 278.479 881.839C278.918 881.722 281.473 883.113 284.5 884.977L291.772 896.564ZM1134.07 3854.18C1134.07 3854.18 1134.08 3854.22 1134.08 3854.3C1134.07 3854.23 1134.07 3854.19 1134.07 3854.18Z" fill="url(#paint7_radial_0_58)" fill-opacity="0.9"/>
<path d="M556 6018C559.667 5935.83 605.7 5766.8 760.5 5748C954 5724.5 1015 5533 930 5517C845 5501 373.5 5400.5 373.5 5310.5C373.5 5220.5 13 4899.5 31.5 4838.5C50 4777.5 140 4762 195.5 4751C251 4740 294 4857 373.5 4804C453 4751 1184.5 3897.5 1144.5 3850C1104.5 3802.5 453 3680.5 437 3595.5C424.2 3527.5 412.82 3474.5 408.73 3456.5C408.73 3329 754.73 3074.5 772.73 3005.5C790.73 2936.5 838.23 2295.5 820.23 2168.5C802.23 2041.5 244.73 2027.5 222.73 1875.5C200.73 1723.5 278.23 1797.5 356.23 1668C434.23 1538.5 285.73 1482.5 244.73 1425C203.73 1367.5 52.2305 1354 64.7305 1243.5C74.7305 1155.1 93.7332 1115.67 134.73 1044C158.837 1001.86 180.47 982.201 213.724 946C234.436 923.451 258.701 904.15 285.393 887.399M406.454 830.91C603.363 761.244 835.145 754.76 819.899 636.856C793.656 433.913 580.588 337.629 607.81 263.902C629.801 204.344 767.047 231.742 884.682 206.122" stroke="#BEBEBE" stroke-opacity="0.6" stroke-width="2" stroke-dasharray="12 21"/>
<defs>
<radialGradient id="paint0_radial_0_58" cx="0" cy="0" r="1" gradientUnits="userSpaceOnUse" gradientTransform="translate(340.237 850.52) rotate(-18.0041) scale(140.573 149.756)">
<stop stop-color="#002C5F"/>
<stop offset="1" stop-opacity="0"/>
</radialGradient>
<radialGradient id="paint1_radial_0_58" cx="0" cy="0" r="1" gradientUnits="userSpaceOnUse" gradientTransform="translate(914.407 193.444) rotate(156.095) scale(82.2531 39.2489)">
<stop stop-color="#002C5F"/>
<stop offset="1" stop-opacity="0"/>
</radialGradient>
<radialGradient id="paint2_radial_0_58" cx="0" cy="0" r="1" gradientUnits="userSpaceOnUse" gradientTransform="translate(340.237 850.52) rotate(-18.0041) scale(140.573 149.756)">
<stop stop-color="#002C5F"/>
<stop offset="1" stop-opacity="0"/>
</radialGradient>
<radialGradient id="paint3_radial_0_58" cx="0" cy="0" r="1" gradientUnits="userSpaceOnUse" gradientTransform="translate(914.407 193.444) rotate(156.095) scale(82.2531 39.2489)">
<stop stop-color="#002C5F"/>
<stop offset="1" stop-opacity="0"/>
</radialGradient>
<radialGradient id="paint4_radial_0_58" cx="0" cy="0" r="1" gradientUnits="userSpaceOnUse" gradientTransform="translate(340.237 850.52) rotate(-18.0041) scale(140.573 149.756)">
<stop stop-color="#002C5F"/>
<stop offset="1" stop-opacity="0"/>
</radialGradient>
<radialGradient id="paint5_radial_0_58" cx="0" cy="0" r="1" gradientUnits="userSpaceOnUse" gradientTransform="translate(914.407 193.444) rotate(156.095) scale(82.2531 39.2489)">
<stop stop-color="#002C5F"/>
<stop offset="1" stop-opacity="0"/>
</radialGradient>
<radialGradient id="paint6_radial_0_58" cx="0" cy="0" r="1" gradientUnits="userSpaceOnUse" gradientTransform="translate(340.237 850.52) rotate(-18.0041) scale(140.573 149.756)">
<stop stop-color="#002C5F"/>
<stop offset="1" stop-opacity="0"/>
</radialGradient>
<radialGradient id="paint7_radial_0_58" cx="0" cy="0" r="1" gradientUnits="userSpaceOnUse" gradientTransform="translate(914.407 193.444) rotate(156.095) scale(82.2531 39.2489)">
<stop stop-color="#002C5F"/>
<stop offset="1" stop-opacity="0"/>
</radialGradient>
</defs>
</svg>
